<svg id="visual" viewBox="0 0 900 600" width="900" height="600" xmlns="http://www.w3.org/2000/svg" xmlns:xlink="http://www.w3.org/1999/xlink" version="1.1"><g fill="#A7233A"><circle r="66" cx="682" cy="442"></circle><circle r="25" cx="721" cy="593"></circle><circle r="43" cx="791" cy="248"></circle><circle r="52" cx="300" cy="493"></circle><circle r="49" cx="392" cy="342"></circle><circle r="32" cx="30" cy="312"></circle><circle r="37" cx="523" cy="454"></circle><circle r="39" cx="505" cy="256"></circle><circle r="34" cx="468" cy="102"></circle><circle r="28" cx="230" cy="315"></circle><circle r="55" cx="876" cy="559"></circle><circle r="26" cx="220" cy="155"></circle><circle r="36" cx="742" cy="17"></circle><circle r="34" cx="73" cy="23"></circle><circle r="31" cx="634" cy="105"></circle><circle r="61" cx="90" cy="469"></circle><circle r="58" cx="646" cy="291"></circle><circle r="24" cx="891" cy="163"></circle><circle r="31" cx="363" cy="186"></circle><circle r="40" cx="157" cy="586"></circle><circle r="45" cx="378" cy="3"></circle><circle r="37" cx="845" cy="387"></circle><circle r="25" cx="517" cy="587"></circle><circle r="58" cx="2" cy="134"></circle><circle r="57" cx="10" cy="589"></circle><circle r="47" cx="246" cy="19"></circle><circle r="54" cx="877" cy="12"></circle></g></svg>