<svg id="visual" viewBox="0 0 900 600" width="900" height="600" xmlns="http://www.w3.org/2000/svg" xmlns:xlink="http://www.w3.org/1999/xlink" version="1.1"><path d="M0 249L8.3 255.5C16.7 262 33.3 275 50 272.5C66.7 270 83.3 252 100 247C116.7 242 133.3 250 150 258C166.7 266 183.3 274 200 279C216.7 284 233.3 286 250 280.2C266.7 274.3 283.3 260.7 300 252.5C316.7 244.3 333.3 241.7 350 247.7C366.7 253.7 383.3 268.3 400 272.2C416.7 276 433.3 269 450 267.3C466.7 265.7 483.3 269.3 500 269.7C516.7 270 533.3 267 550 262C566.7 257 583.3 250 600 254.2C616.7 258.3 633.3 273.7 650 281C666.7 288.3 683.3 287.7 700 286.7C716.7 285.7 733.3 284.3 750 275.7C766.7 267 783.3 251 800 251.2C816.7 251.3 833.3 267.7 850 274.7C866.7 281.7 883.3 279.3 891.7 278.2L900 277L900 0L891.7 0C883.3 0 866.7 0 850 0C833.3 0 816.7 0 800 0C783.3 0 766.7 0 750 0C733.3 0 716.7 0 700 0C683.3 0 666.7 0 650 0C633.3 0 616.7 0 600 0C583.3 0 566.7 0 550 0C533.3 0 516.7 0 500 0C483.3 0 466.7 0 450 0C433.3 0 416.7 0 400 0C383.3 0 366.7 0 350 0C333.3 0 316.7 0 300 0C283.3 0 266.7 0 250 0C233.3 0 216.7 0 200 0C183.3 0 166.7 0 150 0C133.3 0 116.7 0 100 0C83.3 0 66.7 0 50 0C33.3 0 16.7 0 8.3 0L0 0Z" fill="#ff1100"></path><path d="M0 198L8.3 202.8C16.7 207.7 33.3 217.3 50 219.2C66.7 221 83.3 215 100 210.5C116.7 206 133.3 203 150 204.5C166.7 206 183.3 212 200 213.7C216.7 215.3 233.3 212.7 250 215.7C266.7 218.7 283.3 227.3 300 228.5C316.7 229.7 333.3 223.3 350 220C366.7 216.7 383.3 216.3 400 219.8C416.7 223.3 433.3 230.7 450 236.2C466.7 241.7 483.3 245.3 500 241.2C516.7 237 533.3 225 550 217C566.7 209 583.3 205 600 203.2C616.7 201.3 633.3 201.7 650 205C666.7 208.3 683.3 214.7 700 219.5C716.7 224.3 733.3 227.7 750 224.2C766.7 220.7 783.3 210.3 800 213.2C816.7 216 833.3 232 850 232C866.7 232 883.3 216 891.7 208L900 200L900 0L891.7 0C883.3 0 866.7 0 850 0C833.3 0 816.7 0 800 0C783.3 0 766.7 0 750 0C733.3 0 716.7 0 700 0C683.3 0 666.7 0 650 0C633.3 0 616.7 0 600 0C583.3 0 566.7 0 550 0C533.3 0 516.7 0 500 0C483.3 0 466.7 0 450 0C433.3 0 416.7 0 400 0C383.3 0 366.7 0 350 0C333.3 0 316.7 0 300 0C283.3 0 266.7 0 250 0C233.3 0 216.7 0 200 0C183.3 0 166.7 0 150 0C133.3 0 116.7 0 100 0C83.3 0 66.7 0 50 0C33.3 0 16.7 0 8.3 0L0 0Z" fill="#f54200"></path><path d="M0 187L8.3 188C16.7 189 33.3 191 50 194.3C66.7 197.7 83.3 202.3 100 201.5C116.7 200.7 133.3 194.3 150 190C166.7 185.7 183.3 183.3 200 185.2C216.7 187 233.3 193 250 196.7C266.7 200.3 283.3 201.7 300 199.5C316.7 197.3 333.3 191.7 350 191.5C366.7 191.3 383.3 196.7 400 199.8C416.7 203 433.3 204 450 201C466.7 198 483.3 191 500 185.3C516.7 179.7 533.3 175.3 550 179.3C566.7 183.3 583.3 195.7 600 195.2C616.7 194.7 633.3 181.3 650 180C666.7 178.7 683.3 189.3 700 190.2C716.7 191 733.3 182 750 181.2C766.7 180.3 783.3 187.7 800 190.7C816.7 193.7 833.3 192.3 850 194.3C866.7 196.3 883.3 201.7 891.7 204.3L900 207L900 0L891.7 0C883.3 0 866.7 0 850 0C833.3 0 816.7 0 800 0C783.3 0 766.7 0 750 0C733.3 0 716.7 0 700 0C683.3 0 666.7 0 650 0C633.3 0 616.7 0 600 0C583.3 0 566.7 0 550 0C533.3 0 516.7 0 500 0C483.3 0 466.7 0 450 0C433.3 0 416.7 0 400 0C383.3 0 366.7 0 350 0C333.3 0 316.7 0 300 0C283.3 0 266.7 0 250 0C233.3 0 216.7 0 200 0C183.3 0 166.7 0 150 0C133.3 0 116.7 0 100 0C83.3 0 66.7 0 50 0C33.3 0 16.7 0 8.3 0L0 0Z" fill="#eb5a00"></path><path d="M0 155L8.3 155C16.7 155 33.3 155 50 153.7C66.7 152.3 83.3 149.7 100 149.2C116.7 148.7 133.3 150.3 150 151.2C166.7 152 183.3 152 200 149.7C216.7 147.3 233.3 142.7 250 142.7C266.7 142.7 283.3 147.3 300 147.2C316.7 147 333.3 142 350 142.2C366.7 142.3 383.3 147.7 400 150.5C416.7 153.3 433.3 153.7 450 153.3C466.7 153 483.3 152 500 151.3C516.7 150.7 533.3 150.3 550 147.3C566.7 144.3 583.3 138.7 600 137.8C616.7 137 633.3 141 650 146C666.7 151 683.3 157 700 161.2C716.7 165.3 733.3 167.7 750 165C766.7 162.3 783.3 154.7 800 153.5C816.7 152.3 833.3 157.7 850 157.8C866.7 158 883.3 153 891.7 150.5L900 148L900 0L891.7 0C883.3 0 866.7 0 850 0C833.3 0 816.7 0 800 0C783.3 0 766.7 0 750 0C733.3 0 716.7 0 700 0C683.3 0 666.7 0 650 0C633.3 0 616.7 0 600 0C583.3 0 566.7 0 550 0C533.3 0 516.7 0 500 0C483.3 0 466.7 0 450 0C433.3 0 416.7 0 400 0C383.3 0 366.7 0 350 0C333.3 0 316.7 0 300 0C283.3 0 266.7 0 250 0C233.3 0 216.7 0 200 0C183.3 0 166.7 0 150 0C133.3 0 116.7 0 100 0C83.3 0 66.7 0 50 0C33.3 0 16.7 0 8.3 0L0 0Z" fill="#e26c00"></path><path d="M0 124L8.3 123.2C16.7 122.3 33.3 120.7 50 117.2C66.7 113.7 83.3 108.3 100 110.3C116.7 112.3 133.3 121.7 150 123.2C166.7 124.7 183.3 118.3 200 116C216.7 113.7 233.3 115.3 250 118C266.7 120.7 283.3 124.3 300 125.2C316.7 126 333.3 124 350 123C366.7 122 383.3 122 400 120.5C416.7 119 433.3 116 450 117C466.7 118 483.3 123 500 122.3C516.7 121.7 533.3 115.3 550 113C566.7 110.7 583.3 112.3 600 114C616.7 115.7 633.3 117.3 650 120.2C666.7 123 683.3 127 700 128.3C716.7 129.7 733.3 128.3 750 127.8C766.7 127.3 783.3 127.7 800 124.8C816.7 122 833.3 116 850 115.7C866.7 115.3 883.3 120.7 891.7 123.3L900 126L900 0L891.7 0C883.3 0 866.7 0 850 0C833.3 0 816.7 0 800 0C783.3 0 766.7 0 750 0C733.3 0 716.7 0 700 0C683.3 0 666.7 0 650 0C633.3 0 616.7 0 600 0C583.3 0 566.7 0 550 0C533.3 0 516.7 0 500 0C483.3 0 466.7 0 450 0C433.3 0 416.7 0 400 0C383.3 0 366.7 0 350 0C333.3 0 316.7 0 300 0C283.3 0 266.7 0 250 0C233.3 0 216.7 0 200 0C183.3 0 166.7 0 150 0C133.3 0 116.7 0 100 0C83.3 0 66.7 0 50 0C33.3 0 16.7 0 8.3 0L0 0Z" fill="#d97a05"></path><path d="M0 66L8.3 67.8C16.7 69.7 33.3 73.3 50 75.8C66.7 78.3 83.3 79.7 100 82C116.7 84.3 133.3 87.7 150 90.2C166.7 92.7 183.3 94.3 200 93.8C216.7 93.3 233.3 90.7 250 88.5C266.7 86.3 283.3 84.7 300 83.5C316.7 82.3 333.3 81.7 350 82.8C366.7 84 383.3 87 400 86.5C416.7 86 433.3 82 450 82.8C466.7 83.7 483.3 89.3 500 87.8C516.7 86.3 533.3 77.7 550 73.2C566.7 68.7 583.3 68.3 600 70.2C616.7 72 633.3 76 650 78C666.7 80 683.3 80 700 80.3C716.7 80.7 733.3 81.3 750 79.8C766.7 78.3 783.3 74.7 800 76.2C816.7 77.7 833.3 84.3 850 84C866.7 83.7 883.3 76.3 891.7 72.7L900 69L900 0L891.7 0C883.3 0 866.7 0 850 0C833.3 0 816.7 0 800 0C783.3 0 766.7 0 750 0C733.3 0 716.7 0 700 0C683.3 0 666.7 0 650 0C633.3 0 616.7 0 600 0C583.3 0 566.7 0 550 0C533.3 0 516.7 0 500 0C483.3 0 466.7 0 450 0C433.3 0 416.7 0 400 0C383.3 0 366.7 0 350 0C333.3 0 316.7 0 300 0C283.3 0 266.7 0 250 0C233.3 0 216.7 0 200 0C183.3 0 166.7 0 150 0C133.3 0 116.7 0 100 0C83.3 0 66.7 0 50 0C33.3 0 16.7 0 8.3 0L0 0Z" fill="#d08614"></path><path d="M0 53L8.3 53.7C16.7 54.3 33.3 55.7 50 52.8C66.7 50 83.3 43 100 38.8C116.7 34.7 133.3 33.3 150 34.5C166.7 35.7 183.3 39.3 200 42.8C216.7 46.3 233.3 49.7 250 47.7C266.7 45.7 283.3 38.3 300 36.3C316.7 34.3 333.3 37.7 350 40C366.7 42.3 383.3 43.7 400 45.7C416.7 47.7 433.3 50.3 450 49.7C466.7 49 483.3 45 500 44.2C516.7 43.3 533.3 45.7 550 44.2C566.7 42.7 583.3 37.3 600 36.7C616.7 36 633.3 40 650 43.7C666.7 47.3 683.3 50.7 700 50.2C716.7 49.7 733.3 45.3 750 41.8C766.7 38.3 783.3 35.7 800 36.8C816.7 38 833.3 43 850 43.7C866.7 44.3 883.3 40.7 891.7 38.8L900 37L900 0L891.7 0C883.3 0 866.7 0 850 0C833.3 0 816.7 0 800 0C783.3 0 766.7 0 750 0C733.3 0 716.7 0 700 0C683.3 0 666.7 0 650 0C633.3 0 616.7 0 600 0C583.3 0 566.7 0 550 0C533.3 0 516.7 0 500 0C483.3 0 466.7 0 450 0C433.3 0 416.7 0 400 0C383.3 0 366.7 0 350 0C333.3 0 316.7 0 300 0C283.3 0 266.7 0 250 0C233.3 0 216.7 0 200 0C183.3 0 166.7 0 150 0C133.3 0 116.7 0 100 0C83.3 0 66.7 0 50 0C33.3 0 16.7 0 8.3 0L0 0Z" fill="#c79124"></path></svg>