<svg id="visual" viewBox="0 0 900 600" width="900" height="600" xmlns="http://www.w3.org/2000/svg" xmlns:xlink="http://www.w3.org/1999/xlink" version="1.1"><path d="M0 340L16.7 334.3C33.3 328.7 66.7 317.3 100 315.3C133.3 313.3 166.7 320.7 200 325.3C233.3 330 266.7 332 300 332C333.3 332 366.7 330 400 328.7C433.3 327.3 466.7 326.7 500 327C533.3 327.3 566.7 328.7 600 331C633.3 333.3 666.7 336.7 700 338.2C733.3 339.7 766.7 339.3 800 337.3C833.3 335.3 866.7 331.7 883.3 329.8L900 328L900 0L883.3 0C866.7 0 833.3 0 800 0C766.7 0 733.3 0 700 0C666.7 0 633.3 0 600 0C566.7 0 533.3 0 500 0C466.7 0 433.3 0 400 0C366.7 0 333.3 0 300 0C266.7 0 233.3 0 200 0C166.7 0 133.3 0 100 0C66.7 0 33.3 0 16.7 0L0 0Z" fill="#cdc658"></path><path d="M0 263L16.7 262.2C33.3 261.3 66.7 259.7 100 265.8C133.3 272 166.7 286 200 285.3C233.3 284.7 266.7 269.3 300 266.5C333.3 263.7 366.7 273.3 400 275.5C433.3 277.7 466.7 272.3 500 268.7C533.3 265 566.7 263 600 263.7C633.3 264.3 666.7 267.7 700 266.3C733.3 265 766.7 259 800 261.8C833.3 264.7 866.7 276.3 883.3 282.2L900 288L900 0L883.3 0C866.7 0 833.3 0 800 0C766.7 0 733.3 0 700 0C666.7 0 633.3 0 600 0C566.7 0 533.3 0 500 0C466.7 0 433.3 0 400 0C366.7 0 333.3 0 300 0C266.7 0 233.3 0 200 0C166.7 0 133.3 0 100 0C66.7 0 33.3 0 16.7 0L0 0Z" fill="#d0ab3b"></path><path d="M0 210L16.7 210C33.3 210 66.7 210 100 211.5C133.3 213 166.7 216 200 216.5C233.3 217 266.7 215 300 216.5C333.3 218 366.7 223 400 226.7C433.3 230.3 466.7 232.7 500 232.3C533.3 232 566.7 229 600 223.3C633.3 217.7 666.7 209.3 700 207.5C733.3 205.7 766.7 210.3 800 210.3C833.3 210.3 866.7 205.7 883.3 203.3L900 201L900 0L883.3 0C866.7 0 833.3 0 800 0C766.7 0 733.3 0 700 0C666.7 0 633.3 0 600 0C566.7 0 533.3 0 500 0C466.7 0 433.3 0 400 0C366.7 0 333.3 0 300 0C266.7 0 233.3 0 200 0C166.7 0 133.3 0 100 0C66.7 0 33.3 0 16.7 0L0 0Z" fill="#d19025"></path><path d="M0 169L16.7 170C33.3 171 66.7 173 100 170.7C133.3 168.3 166.7 161.7 200 160.7C233.3 159.7 266.7 164.3 300 162.8C333.3 161.3 366.7 153.7 400 156.8C433.3 160 466.7 174 500 176.3C533.3 178.7 566.7 169.3 600 162.5C633.3 155.7 666.7 151.3 700 152.2C733.3 153 766.7 159 800 158.8C833.3 158.7 866.7 152.3 883.3 149.2L900 146L900 0L883.3 0C866.7 0 833.3 0 800 0C766.7 0 733.3 0 700 0C666.7 0 633.3 0 600 0C566.7 0 533.3 0 500 0C466.7 0 433.3 0 400 0C366.7 0 333.3 0 300 0C266.7 0 233.3 0 200 0C166.7 0 133.3 0 100 0C66.7 0 33.3 0 16.7 0L0 0Z" fill="#d1721a"></path><path d="M0 103L16.7 102.5C33.3 102 66.7 101 100 102.3C133.3 103.7 166.7 107.3 200 107.7C233.3 108 266.7 105 300 107.5C333.3 110 366.7 118 400 119C433.3 120 466.7 114 500 113.3C533.3 112.7 566.7 117.3 600 118.2C633.3 119 666.7 116 700 111.8C733.3 107.7 766.7 102.3 800 103.7C833.3 105 866.7 113 883.3 117L900 121L900 0L883.3 0C866.7 0 833.3 0 800 0C766.7 0 733.3 0 700 0C666.7 0 633.3 0 600 0C566.7 0 533.3 0 500 0C466.7 0 433.3 0 400 0C366.7 0 333.3 0 300 0C266.7 0 233.3 0 200 0C166.7 0 133.3 0 100 0C66.7 0 33.3 0 16.7 0L0 0Z" fill="#ce501c"></path><path d="M0 50L16.7 52.5C33.3 55 66.7 60 100 63.5C133.3 67 166.7 69 200 68C233.3 67 266.7 63 300 62C333.3 61 366.7 63 400 60.2C433.3 57.3 466.7 49.7 500 51.2C533.3 52.7 566.7 63.3 600 66.5C633.3 69.7 666.7 65.3 700 63.2C733.3 61 766.7 61 800 59.3C833.3 57.7 866.7 54.3 883.3 52.7L900 51L900 0L883.3 0C866.7 0 833.3 0 800 0C766.7 0 733.3 0 700 0C666.7 0 633.3 0 600 0C566.7 0 533.3 0 500 0C466.7 0 433.3 0 400 0C366.7 0 333.3 0 300 0C266.7 0 233.3 0 200 0C166.7 0 133.3 0 100 0C66.7 0 33.3 0 16.7 0L0 0Z" fill="#c72424"></path></svg>