<svg id="visual" viewBox="0 0 900 600" width="900" height="600" xmlns="http://www.w3.org/2000/svg" xmlns:xlink="http://www.w3.org/1999/xlink" version="1.1"><path d="M0 340L129 340L129 334L257 334L257 334L386 334L386 349L514 349L514 383L643 383L643 381L771 381L771 339L900 339L900 359L900 601L900 601L771 601L771 601L643 601L643 601L514 601L514 601L386 601L386 601L257 601L257 601L129 601L129 601L0 601Z" fill="#8f1600"></path><path d="M0 368L129 368L129 407L257 407L257 375L386 375L386 391L514 391L514 394L643 394L643 362L771 362L771 377L900 377L900 380L900 601L900 601L771 601L771 601L643 601L643 601L514 601L514 601L386 601L386 601L257 601L257 601L129 601L129 601L0 601Z" fill="#9c1600"></path><path d="M0 437L129 437L129 393L257 393L257 395L386 395L386 407L514 407L514 433L643 433L643 428L771 428L771 429L900 429L900 419L900 601L900 601L771 601L771 601L643 601L643 601L514 601L514 601L386 601L386 601L257 601L257 601L129 601L129 601L0 601Z" fill="#aa1601"></path><path d="M0 454L129 454L129 467L257 467L257 445L386 445L386 448L514 448L514 437L643 437L643 446L771 446L771 431L900 431L900 436L900 601L900 601L771 601L771 601L643 601L643 601L514 601L514 601L386 601L386 601L257 601L257 601L129 601L129 601L0 601Z" fill="#b71500"></path><path d="M0 459L129 459L129 461L257 461L257 482L386 482L386 448L514 448L514 487L643 487L643 469L771 469L771 472L900 472L900 452L900 601L900 601L771 601L771 601L643 601L643 601L514 601L514 601L386 601L386 601L257 601L257 601L129 601L129 601L0 601Z" fill="#c51400"></path><path d="M0 479L129 479L129 483L257 483L257 484L386 484L386 490L514 490L514 508L643 508L643 476L771 476L771 508L900 508L900 488L900 601L900 601L771 601L771 601L643 601L643 601L514 601L514 601L386 601L386 601L257 601L257 601L129 601L129 601L0 601Z" fill="#d31200"></path><path d="M0 508L129 508L129 501L257 501L257 537L386 537L386 506L514 506L514 514L643 514L643 510L771 510L771 502L900 502L900 522L900 601L900 601L771 601L771 601L643 601L643 601L514 601L514 601L386 601L386 601L257 601L257 601L129 601L129 601L0 601Z" fill="#e20e00"></path><path d="M0 554L129 554L129 529L257 529L257 542L386 542L386 551L514 551L514 527L643 527L643 534L771 534L771 547L900 547L900 535L900 601L900 601L771 601L771 601L643 601L643 601L514 601L514 601L386 601L386 601L257 601L257 601L129 601L129 601L0 601Z" fill="#f00800"></path><path d="M0 562L129 562L129 560L257 560L257 558L386 558L386 554L514 554L514 569L643 569L643 569L771 569L771 568L900 568L900 580L900 601L900 601L771 601L771 601L643 601L643 601L514 601L514 601L386 601L386 601L257 601L257 601L129 601L129 601L0 601Z" fill="#ff0000"></path></svg>