<svg id="visual" viewBox="0 0 900 600" width="900" height="600" xmlns="http://www.w3.org/2000/svg" xmlns:xlink="http://www.w3.org/1999/xlink" version="1.1"><rect x="0" y="0" width="900" height="600" fill="#001220"></rect><path d="M0 239L8.3 243.3C16.7 247.7 33.3 256.3 50 262.8C66.7 269.3 83.3 273.7 100 270.8C116.7 268 133.3 258 150 254.8C166.7 251.7 183.3 255.3 200 255.5C216.7 255.7 233.3 252.3 250 247.5C266.7 242.7 283.3 236.3 300 235.5C316.7 234.7 333.3 239.3 350 240C366.7 240.7 383.3 237.3 400 241.7C416.7 246 433.3 258 450 262.7C466.7 267.3 483.3 264.7 500 265.2C516.7 265.7 533.3 269.3 550 267.2C566.7 265 583.3 257 600 253.5C616.7 250 633.3 251 650 257.3C666.7 263.7 683.3 275.3 700 275C716.7 274.7 733.3 262.3 750 261C766.7 259.7 783.3 269.3 800 270.2C816.7 271 833.3 263 850 257.3C866.7 251.7 883.3 248.3 891.7 246.7L900 245L900 0L891.7 0C883.3 0 866.7 0 850 0C833.3 0 816.7 0 800 0C783.3 0 766.7 0 750 0C733.3 0 716.7 0 700 0C683.3 0 666.7 0 650 0C633.3 0 616.7 0 600 0C583.3 0 566.7 0 550 0C533.3 0 516.7 0 500 0C483.3 0 466.7 0 450 0C433.3 0 416.7 0 400 0C383.3 0 366.7 0 350 0C333.3 0 316.7 0 300 0C283.3 0 266.7 0 250 0C233.3 0 216.7 0 200 0C183.3 0 166.7 0 150 0C133.3 0 116.7 0 100 0C83.3 0 66.7 0 50 0C33.3 0 16.7 0 8.3 0L0 0Z" fill="#ff1100"></path><path d="M0 228L8.3 227.5C16.7 227 33.3 226 50 224.8C66.7 223.7 83.3 222.3 100 220C116.7 217.7 133.3 214.3 150 219.2C166.7 224 183.3 237 200 235.5C216.7 234 233.3 218 250 214.8C266.7 211.7 283.3 221.3 300 226.7C316.7 232 333.3 233 350 229.8C366.7 226.7 383.3 219.3 400 213.2C416.7 207 433.3 202 450 208C466.7 214 483.3 231 500 239C516.7 247 533.3 246 550 238.5C566.7 231 583.3 217 600 211.7C616.7 206.3 633.3 209.7 650 214.5C666.7 219.3 683.3 225.7 700 226C716.7 226.3 733.3 220.7 750 217.7C766.7 214.7 783.3 214.3 800 219.7C816.7 225 833.3 236 850 237.8C866.7 239.7 883.3 232.3 891.7 228.7L900 225L900 0L891.7 0C883.3 0 866.7 0 850 0C833.3 0 816.7 0 800 0C783.3 0 766.7 0 750 0C733.3 0 716.7 0 700 0C683.3 0 666.7 0 650 0C633.3 0 616.7 0 600 0C583.3 0 566.7 0 550 0C533.3 0 516.7 0 500 0C483.3 0 466.7 0 450 0C433.3 0 416.7 0 400 0C383.3 0 366.7 0 350 0C333.3 0 316.7 0 300 0C283.3 0 266.7 0 250 0C233.3 0 216.7 0 200 0C183.3 0 166.7 0 150 0C133.3 0 116.7 0 100 0C83.3 0 66.7 0 50 0C33.3 0 16.7 0 8.3 0L0 0Z" fill="#f54200"></path><path d="M0 209L8.3 207.7C16.7 206.3 33.3 203.7 50 202.5C66.7 201.3 83.3 201.7 100 196.3C116.7 191 133.3 180 150 176.3C166.7 172.7 183.3 176.3 200 183.2C216.7 190 233.3 200 250 198.8C266.7 197.7 283.3 185.3 300 179.7C316.7 174 333.3 175 350 174C366.7 173 383.3 170 400 172.2C416.7 174.3 433.3 181.7 450 189.2C466.7 196.7 483.3 204.3 500 206.7C516.7 209 533.3 206 550 205.5C566.7 205 583.3 207 600 204.8C616.7 202.7 633.3 196.3 650 194.8C666.7 193.3 683.3 196.7 700 197C716.7 197.3 733.3 194.7 750 193.8C766.7 193 783.3 194 800 192.7C816.7 191.3 833.3 187.7 850 183.5C866.7 179.3 883.3 174.7 891.7 172.3L900 170L900 0L891.7 0C883.3 0 866.7 0 850 0C833.3 0 816.7 0 800 0C783.3 0 766.7 0 750 0C733.3 0 716.7 0 700 0C683.3 0 666.7 0 650 0C633.3 0 616.7 0 600 0C583.3 0 566.7 0 550 0C533.3 0 516.7 0 500 0C483.3 0 466.7 0 450 0C433.3 0 416.7 0 400 0C383.3 0 366.7 0 350 0C333.3 0 316.7 0 300 0C283.3 0 266.7 0 250 0C233.3 0 216.7 0 200 0C183.3 0 166.7 0 150 0C133.3 0 116.7 0 100 0C83.3 0 66.7 0 50 0C33.3 0 16.7 0 8.3 0L0 0Z" fill="#eb5a00"></path><path d="M0 156L8.3 155.3C16.7 154.7 33.3 153.3 50 149.8C66.7 146.3 83.3 140.7 100 143.5C116.7 146.3 133.3 157.7 150 159.8C166.7 162 183.3 155 200 151.3C216.7 147.7 233.3 147.3 250 145.2C266.7 143 283.3 139 300 139.2C316.7 139.3 333.3 143.7 350 144.8C366.7 146 383.3 144 400 147.7C416.7 151.3 433.3 160.7 450 161.3C466.7 162 483.3 154 500 151.8C516.7 149.7 533.3 153.3 550 156.2C566.7 159 583.3 161 600 160.8C616.7 160.7 633.3 158.3 650 153.3C666.7 148.3 683.3 140.7 700 137.2C716.7 133.7 733.3 134.3 750 135.7C766.7 137 783.3 139 800 143C816.7 147 833.3 153 850 155.7C866.7 158.3 883.3 157.7 891.7 157.3L900 157L900 0L891.7 0C883.3 0 866.7 0 850 0C833.3 0 816.7 0 800 0C783.3 0 766.7 0 750 0C733.3 0 716.7 0 700 0C683.3 0 666.7 0 650 0C633.3 0 616.7 0 600 0C583.3 0 566.7 0 550 0C533.3 0 516.7 0 500 0C483.3 0 466.7 0 450 0C433.3 0 416.7 0 400 0C383.3 0 366.7 0 350 0C333.3 0 316.7 0 300 0C283.3 0 266.7 0 250 0C233.3 0 216.7 0 200 0C183.3 0 166.7 0 150 0C133.3 0 116.7 0 100 0C83.3 0 66.7 0 50 0C33.3 0 16.7 0 8.3 0L0 0Z" fill="#e26c00"></path><path d="M0 121L8.3 121.8C16.7 122.7 33.3 124.3 50 123.8C66.7 123.3 83.3 120.7 100 116.3C116.7 112 133.3 106 150 107.3C166.7 108.7 183.3 117.3 200 119.2C216.7 121 233.3 116 250 113.2C266.7 110.3 283.3 109.7 300 107.5C316.7 105.3 333.3 101.7 350 101.8C366.7 102 383.3 106 400 110.2C416.7 114.3 433.3 118.7 450 118.7C466.7 118.7 483.3 114.3 500 111.3C516.7 108.3 533.3 106.7 550 106C566.7 105.3 583.3 105.7 600 105.8C616.7 106 633.3 106 650 106.7C666.7 107.3 683.3 108.7 700 108C716.7 107.3 733.3 104.7 750 108.3C766.7 112 783.3 122 800 125.8C816.7 129.7 833.3 127.3 850 125.5C866.7 123.7 883.3 122.3 891.7 121.7L900 121L900 0L891.7 0C883.3 0 866.7 0 850 0C833.3 0 816.7 0 800 0C783.3 0 766.7 0 750 0C733.3 0 716.7 0 700 0C683.3 0 666.7 0 650 0C633.3 0 616.7 0 600 0C583.3 0 566.7 0 550 0C533.3 0 516.7 0 500 0C483.3 0 466.7 0 450 0C433.3 0 416.7 0 400 0C383.3 0 366.7 0 350 0C333.3 0 316.7 0 300 0C283.3 0 266.7 0 250 0C233.3 0 216.7 0 200 0C183.3 0 166.7 0 150 0C133.3 0 116.7 0 100 0C83.3 0 66.7 0 50 0C33.3 0 16.7 0 8.3 0L0 0Z" fill="#d97a05"></path><path d="M0 71L8.3 74.3C16.7 77.7 33.3 84.3 50 86.7C66.7 89 83.3 87 100 85C116.7 83 133.3 81 150 82C166.7 83 183.3 87 200 86C216.7 85 233.3 79 250 76C266.7 73 283.3 73 300 75.7C316.7 78.3 333.3 83.7 350 85.8C366.7 88 383.3 87 400 83C416.7 79 433.3 72 450 73.3C466.7 74.7 483.3 84.3 500 85C516.7 85.7 533.3 77.3 550 74.5C566.7 71.7 583.3 74.3 600 74.5C616.7 74.7 633.3 72.3 650 72C666.7 71.7 683.3 73.3 700 72.7C716.7 72 733.3 69 750 67.8C766.7 66.7 783.3 67.3 800 71C816.7 74.7 833.3 81.3 850 81.3C866.7 81.3 883.3 74.7 891.7 71.3L900 68L900 0L891.7 0C883.3 0 866.7 0 850 0C833.3 0 816.7 0 800 0C783.3 0 766.7 0 750 0C733.3 0 716.7 0 700 0C683.3 0 666.7 0 650 0C633.3 0 616.7 0 600 0C583.3 0 566.7 0 550 0C533.3 0 516.7 0 500 0C483.3 0 466.7 0 450 0C433.3 0 416.7 0 400 0C383.3 0 366.7 0 350 0C333.3 0 316.7 0 300 0C283.3 0 266.7 0 250 0C233.3 0 216.7 0 200 0C183.3 0 166.7 0 150 0C133.3 0 116.7 0 100 0C83.3 0 66.7 0 50 0C33.3 0 16.7 0 8.3 0L0 0Z" fill="#d08614"></path><path d="M0 53L8.3 52C16.7 51 33.3 49 50 45.8C66.7 42.7 83.3 38.3 100 36.7C116.7 35 133.3 36 150 36C166.7 36 183.3 35 200 36C216.7 37 233.3 40 250 41.8C266.7 43.7 283.3 44.3 300 43.2C316.7 42 333.3 39 350 39.5C366.7 40 383.3 44 400 43.2C416.7 42.3 433.3 36.7 450 34.5C466.7 32.3 483.3 33.7 500 36.3C516.7 39 533.3 43 550 45.7C566.7 48.3 583.3 49.7 600 47.8C616.7 46 633.3 41 650 37.8C666.7 34.7 683.3 33.3 700 34.7C716.7 36 733.3 40 750 41.3C766.7 42.7 783.3 41.3 800 40.5C816.7 39.7 833.3 39.3 850 40C866.7 40.7 883.3 42.3 891.7 43.2L900 44L900 0L891.7 0C883.3 0 866.7 0 850 0C833.3 0 816.7 0 800 0C783.3 0 766.7 0 750 0C733.3 0 716.7 0 700 0C683.3 0 666.7 0 650 0C633.3 0 616.7 0 600 0C583.3 0 566.7 0 550 0C533.3 0 516.7 0 500 0C483.3 0 466.7 0 450 0C433.3 0 416.7 0 400 0C383.3 0 366.7 0 350 0C333.3 0 316.7 0 300 0C283.3 0 266.7 0 250 0C233.3 0 216.7 0 200 0C183.3 0 166.7 0 150 0C133.3 0 116.7 0 100 0C83.3 0 66.7 0 50 0C33.3 0 16.7 0 8.3 0L0 0Z" fill="#c79124"></path></svg>