<svg id="visual" viewBox="0 0 900 600" width="900" height="600" xmlns="http://www.w3.org/2000/svg" xmlns:xlink="http://www.w3.org/1999/xlink" version="1.1"><g stroke-width="1" stroke-linejoin="bevel"><path d="M457 295L451 221L337.5 323Z" fill="#682804" stroke="#682804"></path><path d="M451 221L315.5 203L337.5 323Z" fill="#772c08" stroke="#772c08"></path><path d="M451 221L350.5 123L315.5 203Z" fill="#963311" stroke="#963311"></path><path d="M233 387L323.5 400L337.5 323Z" fill="#682804" stroke="#682804"></path><path d="M337.5 323L467 392L457 295Z" fill="#86300c" stroke="#86300c"></path><path d="M323.5 400L467 392L337.5 323Z" fill="#a63617" stroke="#a63617"></path><path d="M457 295L577.5 185L451 221Z" fill="#fe3d3d" stroke="#fe3d3d"></path><path d="M221 223L237 292L315.5 203Z" fill="#c83a24" stroke="#c83a24"></path><path d="M315.5 203L237 292L337.5 323Z" fill="#a63617" stroke="#a63617"></path><path d="M246 88L221 223L315.5 203Z" fill="#772c08" stroke="#772c08"></path><path d="M451 221L435 82L350.5 123Z" fill="#b7381d" stroke="#b7381d"></path><path d="M102.5 298L233 387L237 292Z" fill="#86300c" stroke="#86300c"></path><path d="M237 292L233 387L337.5 323Z" fill="#da3c2c" stroke="#da3c2c"></path><path d="M462 503L538.5 395L467 392Z" fill="#a63617" stroke="#a63617"></path><path d="M467 392L538.5 395L457 295Z" fill="#ec3d34" stroke="#ec3d34"></path><path d="M451 221L577.5 185L435 82Z" fill="#772c08" stroke="#772c08"></path><path d="M538.5 395L582.5 318L457 295Z" fill="#772c08" stroke="#772c08"></path><path d="M582.5 318L577.5 185L457 295Z" fill="#86300c" stroke="#86300c"></path><path d="M354.5 0L246 88L350.5 123Z" fill="#5a2400" stroke="#5a2400"></path><path d="M350.5 123L246 88L315.5 203Z" fill="#da3c2c" stroke="#da3c2c"></path><path d="M242 478L331.5 495L323.5 400Z" fill="#c83a24" stroke="#c83a24"></path><path d="M323.5 400L331.5 495L467 392Z" fill="#da3c2c" stroke="#da3c2c"></path><path d="M331.5 495L462 503L467 392Z" fill="#c83a24" stroke="#c83a24"></path><path d="M233 387L242 478L323.5 400Z" fill="#682804" stroke="#682804"></path><path d="M435 82L354.5 0L350.5 123Z" fill="#da3c2c" stroke="#da3c2c"></path><path d="M459 0L354.5 0L435 82Z" fill="#ec3d34" stroke="#ec3d34"></path><path d="M675 105L583.5 76L577.5 185Z" fill="#963311" stroke="#963311"></path><path d="M577.5 185L583.5 76L435 82Z" fill="#a63617" stroke="#a63617"></path><path d="M583.5 76L459 0L435 82Z" fill="#682804" stroke="#682804"></path><path d="M654 388L660 281L582.5 318Z" fill="#86300c" stroke="#86300c"></path><path d="M582.5 318L660 281L577.5 185Z" fill="#86300c" stroke="#86300c"></path><path d="M654 388L582.5 318L538.5 395Z" fill="#fe3d3d" stroke="#fe3d3d"></path><path d="M221 223L102.5 298L237 292Z" fill="#772c08" stroke="#772c08"></path><path d="M233 387L125.5 415L242 478Z" fill="#a63617" stroke="#a63617"></path><path d="M110.5 186L102.5 298L221 223Z" fill="#b7381d" stroke="#b7381d"></path><path d="M94.5 117L110.5 186L246 88Z" fill="#5a2400" stroke="#5a2400"></path><path d="M246 88L110.5 186L221 223Z" fill="#ec3d34" stroke="#ec3d34"></path><path d="M660 281L670 218L577.5 185Z" fill="#ec3d34" stroke="#ec3d34"></path><path d="M462 503L569.5 485L538.5 395Z" fill="#b7381d" stroke="#b7381d"></path><path d="M569.5 485L654 388L538.5 395Z" fill="#772c08" stroke="#772c08"></path><path d="M660 281L773.5 313L670 218Z" fill="#86300c" stroke="#86300c"></path><path d="M102.5 298L125.5 415L233 387Z" fill="#fe3d3d" stroke="#fe3d3d"></path><path d="M354.5 0L235 0L246 88Z" fill="#5a2400" stroke="#5a2400"></path><path d="M583.5 76L579.5 0L459 0Z" fill="#772c08" stroke="#772c08"></path><path d="M665 0L579.5 0L583.5 76Z" fill="#da3c2c" stroke="#da3c2c"></path><path d="M120.5 0L94.5 117L246 88Z" fill="#fe3d3d" stroke="#fe3d3d"></path><path d="M0 194L0 295L102.5 298Z" fill="#c83a24" stroke="#c83a24"></path><path d="M670 218L675 105L577.5 185Z" fill="#fe3d3d" stroke="#fe3d3d"></path><path d="M232 600L331.5 495L242 478Z" fill="#772c08" stroke="#772c08"></path><path d="M232 600L336.5 600L331.5 495Z" fill="#772c08" stroke="#772c08"></path><path d="M331.5 495L445 600L462 503Z" fill="#fe3d3d" stroke="#fe3d3d"></path><path d="M462 503L556.5 600L569.5 485Z" fill="#c83a24" stroke="#c83a24"></path><path d="M336.5 600L445 600L331.5 495Z" fill="#86300c" stroke="#86300c"></path><path d="M0 420L98.5 479L125.5 415Z" fill="#fe3d3d" stroke="#fe3d3d"></path><path d="M125.5 415L98.5 479L242 478Z" fill="#c83a24" stroke="#c83a24"></path><path d="M0 420L125.5 415L102.5 298Z" fill="#963311" stroke="#963311"></path><path d="M128.5 600L232 600L242 478Z" fill="#86300c" stroke="#86300c"></path><path d="M235 0L120.5 0L246 88Z" fill="#ec3d34" stroke="#ec3d34"></path><path d="M569.5 485L671 509L654 388Z" fill="#a63617" stroke="#a63617"></path><path d="M654 388L773.5 313L660 281Z" fill="#772c08" stroke="#772c08"></path><path d="M670 218L798.5 215L675 105Z" fill="#fe3d3d" stroke="#fe3d3d"></path><path d="M556.5 600L671 509L569.5 485Z" fill="#c83a24" stroke="#c83a24"></path><path d="M445 600L556.5 600L462 503Z" fill="#682804" stroke="#682804"></path><path d="M675 105L665 0L583.5 76Z" fill="#5a2400" stroke="#5a2400"></path><path d="M0 194L102.5 298L110.5 186Z" fill="#a63617" stroke="#a63617"></path><path d="M0 194L110.5 186L94.5 117Z" fill="#5a2400" stroke="#5a2400"></path><path d="M780.5 387L773.5 313L654 388Z" fill="#a63617" stroke="#a63617"></path><path d="M675 105L797.5 0L665 0Z" fill="#fe3d3d" stroke="#fe3d3d"></path><path d="M0 87L0 194L94.5 117Z" fill="#86300c" stroke="#86300c"></path><path d="M671 509L780.5 387L654 388Z" fill="#a63617" stroke="#a63617"></path><path d="M900 286L798.5 215L773.5 313Z" fill="#da3c2c" stroke="#da3c2c"></path><path d="M773.5 313L798.5 215L670 218Z" fill="#c83a24" stroke="#c83a24"></path><path d="M0 295L0 420L102.5 298Z" fill="#fe3d3d" stroke="#fe3d3d"></path><path d="M98.5 479L128.5 600L242 478Z" fill="#86300c" stroke="#86300c"></path><path d="M0 521L128.5 600L98.5 479Z" fill="#772c08" stroke="#772c08"></path><path d="M120.5 0L0 87L94.5 117Z" fill="#b7381d" stroke="#b7381d"></path><path d="M556.5 600L683 600L671 509Z" fill="#772c08" stroke="#772c08"></path><path d="M671 509L810.5 502L780.5 387Z" fill="#86300c" stroke="#86300c"></path><path d="M798.5 215L805.5 102L675 105Z" fill="#963311" stroke="#963311"></path><path d="M0 420L0 521L98.5 479Z" fill="#b7381d" stroke="#b7381d"></path><path d="M120.5 0L0 0L0 87Z" fill="#86300c" stroke="#86300c"></path><path d="M780.5 600L810.5 502L671 509Z" fill="#b7381d" stroke="#b7381d"></path><path d="M900 388L900 286L773.5 313Z" fill="#5a2400" stroke="#5a2400"></path><path d="M798.5 215L900 185L805.5 102Z" fill="#da3c2c" stroke="#da3c2c"></path><path d="M805.5 102L797.5 0L675 105Z" fill="#682804" stroke="#682804"></path><path d="M0 521L0 600L128.5 600Z" fill="#5a2400" stroke="#5a2400"></path><path d="M900 388L773.5 313L780.5 387Z" fill="#86300c" stroke="#86300c"></path><path d="M805.5 102L900 81L797.5 0Z" fill="#a63617" stroke="#a63617"></path><path d="M683 600L780.5 600L671 509Z" fill="#ec3d34" stroke="#ec3d34"></path><path d="M810.5 502L900 388L780.5 387Z" fill="#5a2400" stroke="#5a2400"></path><path d="M900 286L900 185L798.5 215Z" fill="#682804" stroke="#682804"></path><path d="M900 494L900 388L810.5 502Z" fill="#b7381d" stroke="#b7381d"></path><path d="M900 185L900 81L805.5 102Z" fill="#682804" stroke="#682804"></path><path d="M900 600L900 494L810.5 502Z" fill="#da3c2c" stroke="#da3c2c"></path><path d="M900 81L900 0L797.5 0Z" fill="#772c08" stroke="#772c08"></path><path d="M780.5 600L900 600L810.5 502Z" fill="#b7381d" stroke="#b7381d"></path></g></svg>