<svg id="visual" viewBox="0 0 900 600" width="900" height="600" xmlns="http://www.w3.org/2000/svg" xmlns:xlink="http://www.w3.org/1999/xlink" version="1.1"><path d="M0 175L7.2 172.2C14.3 169.3 28.7 163.7 43 156.2C57.3 148.7 71.7 139.3 86 137.7C100.3 136 114.7 142 128.8 140.8C143 139.7 157 131.3 171.2 127C185.3 122.7 199.7 122.3 214 126.5C228.3 130.7 242.7 139.3 257 147.3C271.3 155.3 285.7 162.7 300 165.5C314.3 168.3 328.7 166.7 343 164C357.3 161.3 371.7 157.7 386 151.5C400.3 145.3 414.7 136.7 428.8 131.5C443 126.3 457 124.7 471.2 131.3C485.3 138 499.7 153 514 159.2C528.3 165.3 542.7 162.7 557 156.3C571.3 150 585.7 140 600 140.8C614.3 141.7 628.7 153.3 643 153.5C657.3 153.7 671.7 142.3 686 138.2C700.3 134 714.7 137 728.8 142.8C743 148.7 757 157.3 771.2 154.2C785.3 151 799.7 136 814 133.3C828.3 130.7 842.7 140.3 857 144.2C871.3 148 885.7 146 892.8 145L900 144L900 0L892.8 0C885.7 0 871.3 0 857 0C842.7 0 828.3 0 814 0C799.7 0 785.3 0 771.2 0C757 0 743 0 728.8 0C714.7 0 700.3 0 686 0C671.7 0 657.3 0 643 0C628.7 0 614.3 0 600 0C585.7 0 571.3 0 557 0C542.7 0 528.3 0 514 0C499.7 0 485.3 0 471.2 0C457 0 443 0 428.8 0C414.7 0 400.3 0 386 0C371.7 0 357.3 0 343 0C328.7 0 314.3 0 300 0C285.7 0 271.3 0 257 0C242.7 0 228.3 0 214 0C199.7 0 185.3 0 171.2 0C157 0 143 0 128.8 0C114.7 0 100.3 0 86 0C71.7 0 57.3 0 43 0C28.7 0 14.3 0 7.2 0L0 0Z" fill="#b80000" stroke-linecap="round" stroke-linejoin="miter"></path></svg>