<?xml version="1.0" encoding="UTF-8" standalone="no"?>
<!-- Created with Inkscape (http://www.inkscape.org/) -->

<svg
   width="205.3685mm"
   height="30.939045mm"
   viewBox="0 0 205.3685 30.939045"
   version="1.1"
   id="svg1"
   xml:space="preserve"
   inkscape:export-filename="unicomec.svg"
   inkscape:export-xdpi="46.869999"
   inkscape:export-ydpi="46.869999"
   xmlns:inkscape="http://www.inkscape.org/namespaces/inkscape"
   xmlns:sodipodi="http://sodipodi.sourceforge.net/DTD/sodipodi-0.dtd"
   xmlns="http://www.w3.org/2000/svg"
   xmlns:svg="http://www.w3.org/2000/svg"><sodipodi:namedview
     id="namedview1"
     pagecolor="#ffffff"
     bordercolor="#000000"
     borderopacity="0.25"
     inkscape:showpageshadow="2"
     inkscape:pageopacity="0.0"
     inkscape:pagecheckerboard="0"
     inkscape:deskcolor="#d1d1d1"
     inkscape:document-units="mm"><inkscape:page
       x="-8.120606e-16"
       y="0"
       width="205.36848"
       height="30.939045"
       id="page2"
       margin="0"
       bleed="0" /></sodipodi:namedview><defs
     id="defs1" /><g
     inkscape:label="Capa 1"
     inkscape:groupmode="layer"
     id="layer1"
     transform="translate(-2.3948656,-104.9674)"><g
       id="g15"
       transform="translate(0.7937501,-10.847917)"><path
         style="fill:#99adc9"
         d="m 19.059057,146.09854 c -0.03739,-0.0762 0.828703,-0.117 1.92464,-0.0907 3.677197,0.0884 4.057087,0.15552 1.089314,0.1925 -1.620289,0.0202 -2.976569,-0.0256 -3.013954,-0.10185 z m 26.824461,0.011 c 2.494607,-0.13213 5.146707,-0.13789 5.084488,-0.011 -0.03738,0.0762 -1.42648,0.12204 -3.086894,0.10185 -1.660414,-0.0202 -2.559331,-0.061 -1.997594,-0.0908 z m 38.272909,10e-4 c 0.105326,-0.0534 0.23117,-0.0468 0.279653,0.0146 0.04848,0.0614 -0.03769,0.10505 -0.191501,0.097 -0.169972,-0.009 -0.204546,-0.0526 -0.08815,-0.11161 z m 55.253723,-0.0564 c -0.0511,-0.10473 0.007,-0.1357 0.1373,-0.0726 0.25277,0.12281 0.29902,0.25523 0.0891,0.25523 -0.0755,0 -0.17741,-0.0822 -0.22644,-0.18262 z M 9.637452,145.75986 c 0.007,-0.21521 0.041575,-0.25899 0.088151,-0.11162 0.042148,0.13336 0.036964,0.2927 -0.011519,0.35409 -0.048483,0.0614 -0.082968,-0.0477 -0.076632,-0.24247 z m 28.317239,-0.077 c 0,-0.25401 0.03312,-0.35793 0.07359,-0.23092 0.04048,0.12701 0.04048,0.33484 0,0.46185 -0.04048,0.127 -0.07359,0.0231 -0.07359,-0.23093 z m -21.729147,-0.73895 c 0,-0.35562 0.03003,-0.50111 0.06673,-0.32329 0.0367,0.17781 0.0367,0.46877 0,0.64658 -0.0367,0.17781 -0.06673,0.0323 -0.06673,-0.32329 z m 154.946196,-0.87165 -0.0281,-1.33349 -1.7144,-0.0585 -1.71439,-0.0585 1.71897,-0.0397 c 1.33397,-0.0308 1.73597,0.0163 1.79486,0.21066 0.0417,0.13771 0.0523,0.78198 0.0235,1.43172 l -0.0523,1.18134 z m -33.38145,0.27125 -0.27794,-0.41566 0.32828,0.35192 c 0.30851,0.33072 0.39471,0.4794 0.27795,0.4794 -0.0277,0 -0.17541,-0.18705 -0.32829,-0.41566 z m 38.94681,-1.61647 c 0,-0.76204 0.0258,-1.07379 0.0572,-0.69277 0.0315,0.38103 0.0315,1.00452 0,1.38554 -0.0315,0.38103 -0.0572,0.0693 -0.0572,-0.69277 z M 15.631108,143.466 c 0,-0.25402 0.03312,-0.35793 0.07359,-0.23092 0.04048,0.127 0.04048,0.33483 0,0.46184 -0.04048,0.12701 -0.07359,0.0231 -0.07359,-0.23092 z m 28.311127,-0.0924 c 0.003,-0.30482 0.03567,-0.40715 0.07267,-0.22741 0.03699,0.17975 0.03456,0.42914 -0.0054,0.55422 -0.03997,0.12507 -0.07023,-0.022 -0.06726,-0.32681 z M 9.5030651,142.9118 c 0,-0.25401 0.033117,-0.35793 0.073593,-0.23092 0.040476,0.12701 0.040476,0.33484 0,0.46185 -0.040476,0.127 -0.073593,0.0231 -0.073593,-0.23093 z m 28.2942019,-0.10776 c 0.007,-0.21521 0.04157,-0.25899 0.08815,-0.11161 0.04215,0.13335 0.03697,0.29269 -0.01152,0.35408 -0.04848,0.0614 -0.08297,-0.0477 -0.07663,-0.24247 z m -21.728442,-0.44645 c 0,-0.25402 0.03312,-0.35793 0.07359,-0.23093 0.04048,0.12701 0.04048,0.33484 0,0.46185 -0.04048,0.12701 -0.07359,0.0231 -0.07359,-0.23092 z m 119.900465,-0.13856 -0.35372,-0.50803 0.40124,0.44787 c 0.22068,0.24632 0.40124,0.47494 0.40124,0.50803 0,0.14488 -0.11815,0.027 -0.44876,-0.44787 z M 15.485202,140.69494 c 0,-0.25402 0.03312,-0.35793 0.07359,-0.23092 0.04048,0.127 0.04048,0.33483 0,0.46184 -0.04048,0.12701 -0.07359,0.0231 -0.07359,-0.23092 z m 28.30572,-0.18474 c 0,-0.25402 0.03312,-0.35793 0.07359,-0.23092 0.04048,0.127 0.04048,0.33484 0,0.46184 -0.04048,0.12701 -0.07359,0.0231 -0.07359,-0.23092 z m 90.351728,-0.41566 -0.27795,-0.41566 0.32829,0.35192 c 0.30851,0.33072 0.39471,0.4794 0.27795,0.4794 -0.0277,0 -0.17542,-0.18705 -0.32829,-0.41566 z M 9.3571594,139.95598 c 0,-0.25401 0.033117,-0.35793 0.073593,-0.23092 0.040476,0.12701 0.040476,0.33484 0,0.46185 -0.040476,0.12701 -0.073593,0.0231 -0.073593,-0.23093 z m 6.5765726,-0.92369 c 0,-0.35562 0.03003,-0.5011 0.06673,-0.32329 0.0367,0.17781 0.0367,0.46877 0,0.64658 -0.0367,0.17781 -0.06673,0.0323 -0.06673,-0.32329 z m 154.079128,-0.68654 c 0.22068,-0.0423 0.5818,-0.0423 0.80248,0 0.22068,0.0423 0.0401,0.077 -0.40124,0.077 -0.44137,0 -0.62193,-0.0346 -0.40124,-0.077 z m -154.668157,-0.699 c 0.003,-0.30482 0.03567,-0.40715 0.07267,-0.22741 0.03699,0.17975 0.03456,0.42915 -0.0054,0.55422 -0.03997,0.12507 -0.07023,-0.022 -0.06726,-0.32681 z m 179.362707,0.0924 c 0.14525,-0.20321 0.29691,-0.36948 0.33704,-0.36948 0.0401,0 -0.0459,0.16627 -0.19113,0.36948 -0.14525,0.20321 -0.29692,0.36948 -0.33704,0.36948 -0.0401,0 0.0459,-0.16627 0.19113,-0.36948 z M 43.645017,137.55438 c 0,-0.25401 0.03312,-0.35793 0.07359,-0.23092 0.04048,0.12701 0.04048,0.33484 0,0.46184 -0.04048,0.12701 -0.07359,0.0231 -0.07359,-0.23092 z m -6.128043,-0.55421 c 0,-0.25402 0.03312,-0.35794 0.07359,-0.23093 0.04048,0.12701 0.04048,0.33484 0,0.46185 -0.04048,0.12701 -0.07359,0.0231 -0.07359,-0.23092 z m -21.739961,-0.55422 c 0,-0.25402 0.03312,-0.35793 0.07359,-0.23092 0.04048,0.127 0.04048,0.33483 0,0.46184 -0.04048,0.12701 -0.07359,0.0231 -0.07359,-0.23092 z M 170.969,135.04919 c -0.0334,-0.36179 -0.008,-0.69922 0.057,-0.74985 0.0647,-0.0506 0.11765,0.24538 0.11765,0.6578 0,0.92561 -0.0933,0.97476 -0.17463,0.0921 z m -44.15769,-0.0812 c 0,-0.25402 0.0331,-0.35793 0.0736,-0.23092 0.0405,0.127 0.0405,0.33484 0,0.46184 -0.0405,0.12701 -0.0736,0.0231 -0.0736,-0.23092 z M 15.19339,134.7833 c 0,-0.25401 0.03312,-0.35793 0.07359,-0.23092 0.04048,0.12701 0.04048,0.33484 0,0.46184 -0.04048,0.12701 -0.07359,0.0231 -0.07359,-0.23092 z m 28.305721,-0.18474 c 0,-0.25401 0.03312,-0.35793 0.07359,-0.23092 0.04048,0.12701 0.04048,0.33484 0,0.46185 -0.04048,0.127 -0.07359,0.0231 -0.07359,-0.23093 z m 68.143399,-0.0924 c 0.003,-0.30482 0.0357,-0.40715 0.0727,-0.2274 0.037,0.17974 0.0346,0.42914 -0.005,0.55421 -0.04,0.12508 -0.0702,-0.022 -0.0673,-0.32681 z m -74.367432,-0.0924 c 0.0496,-0.1016 0.119128,-0.18473 0.154516,-0.18473 0.03539,0 0.06434,0.0831 0.06434,0.18473 0,0.10161 -0.06953,0.18474 -0.154516,0.18474 -0.08498,0 -0.113938,-0.0831 -0.06434,-0.18474 z m 139.317082,-1.93975 c 5.3e-4,-0.81285 0.0262,-1.1224 0.057,-0.68789 0.0308,0.43451 0.0304,1.09957 -9.6e-4,1.47791 -0.0314,0.37834 -0.0566,0.0228 -0.056,-0.79002 z M 15.047485,131.82748 c 0,-0.25401 0.03312,-0.35793 0.07359,-0.23092 0.04048,0.12701 0.04048,0.33484 0,0.46185 -0.04048,0.127 -0.07359,0.0231 -0.07359,-0.23093 z m 64.759126,-0.27711 c 0.272229,-0.35562 0.52779,-0.64658 0.567914,-0.64658 0.04012,0 -0.149779,0.29096 -0.422008,0.64658 -0.272229,0.35563 -0.52779,0.64659 -0.567914,0.64659 -0.04012,0 0.14978,-0.29096 0.422008,-0.64659 z m -36.453406,0.0924 c 0,-0.25401 0.03312,-0.35793 0.07359,-0.23092 0.04048,0.12701 0.04048,0.33484 0,0.46185 -0.04048,0.12701 -0.07359,0.0231 -0.07359,-0.23093 z m 96.247415,0.24328 c 0.10533,-0.0534 0.23117,-0.0468 0.27965,0.0146 0.0485,0.0614 -0.0377,0.10505 -0.1915,0.097 -0.16997,-0.009 -0.20454,-0.0526 -0.0882,-0.11162 z m -0.0456,-2.2754 c 0.14524,-0.20321 0.29691,-0.36948 0.33704,-0.36948 0.0401,0 -0.0459,0.16627 -0.19114,0.36948 -0.14525,0.20321 -0.29691,0.36948 -0.33704,0.36948 -0.0401,0 0.0459,-0.16627 0.19114,-0.36948 z M 14.906985,128.96403 c 0.003,-0.30482 0.03567,-0.40715 0.07267,-0.2274 0.03699,0.17974 0.03456,0.42914 -0.0054,0.55421 -0.03997,0.12508 -0.07023,-0.022 -0.06726,-0.32681 z m 28.300314,-0.2771 c 0,-0.25402 0.03312,-0.35794 0.07359,-0.23093 0.04048,0.12701 0.04048,0.33484 0,0.46185 -0.04048,0.12701 -0.07359,0.0231 -0.07359,-0.23092 z m 78.145981,-0.50782 c 1.62503,-0.0297 4.28416,-0.0297 5.90918,0 1.62503,0.0297 0.29546,0.0541 -2.95459,0.0541 -3.25005,0 -4.57961,-0.0243 -2.95459,-0.0541 z m 66.89142,0.002 c 0.53816,-0.0354 1.45737,-0.0357 2.04268,-5.2e-4 0.58531,0.0352 0.14499,0.0642 -0.97848,0.0644 -1.12348,2.9e-4 -1.60237,-0.0285 -1.0642,-0.0639 z m 9.33632,-1.80295 c 0.003,-0.30482 0.0357,-0.40715 0.0727,-0.22741 0.037,0.17975 0.0346,0.42915 -0.005,0.55422 -0.04,0.12507 -0.0702,-0.022 -0.0673,-0.32681 z M 14.761079,126.00821 c 0.003,-0.30481 0.03567,-0.40715 0.07267,-0.2274 0.03699,0.17974 0.03456,0.42914 -0.0054,0.55421 -0.03997,0.12508 -0.07023,-0.022 -0.06726,-0.32681 z m 63.075804,0.0924 c 0.145247,-0.20321 0.296915,-0.36947 0.337039,-0.36947 0.04012,0 -0.04589,0.16626 -0.191133,0.36947 -0.145247,0.20322 -0.296915,0.36948 -0.337039,0.36948 -0.04012,0 0.04589,-0.16626 0.191133,-0.36948 z m 6.200996,-0.0924 c 0.188473,-0.25401 0.375507,-0.46184 0.415631,-0.46184 0.04012,0 -0.08125,0.20783 -0.269726,0.46184 -0.188473,0.25402 -0.375507,0.46185 -0.415631,0.46185 -0.04012,0 0.08125,-0.20783 0.269726,-0.46185 z m 29.618871,0.0226 c 0,-0.0384 0.1149,-0.18384 0.25534,-0.32329 0.23141,-0.22979 0.23657,-0.22325 0.0551,0.0697 -0.1906,0.30773 -0.31042,0.40559 -0.31042,0.25354 z m 29.47297,-0.76157 c 0.18847,-0.25402 0.37551,-0.46185 0.41563,-0.46185 0.0401,0 -0.0813,0.20783 -0.26973,0.46185 -0.18847,0.25402 -0.3755,0.46185 -0.41563,0.46185 -0.0401,0 0.0812,-0.20783 0.26973,-0.46185 z m 60.81535,-0.95752 c 0.10532,-0.0534 0.23117,-0.0468 0.27965,0.0146 0.0485,0.0614 -0.0377,0.10505 -0.1915,0.097 -0.16997,-0.009 -0.20454,-0.0526 -0.0882,-0.11161 z M 5.958486,124.01943 c 0.061512,-0.0778 2.0444449,-0.11925 4.406518,-0.0922 l 4.294678,0.0492 -4.406518,0.0922 c -2.4235845,0.0507 -4.3561898,0.0286 -4.294678,-0.0492 z m 54.423594,-0.001 c 0.06205,-0.0784 1.454116,-0.11977 3.093484,-0.092 l 2.980669,0.0505 -3.093484,0.092 c -1.701417,0.0506 -3.042718,0.0279 -2.980669,-0.0505 z m 9.79475,0.0501 -3.136974,-0.10349 3.091887,-0.0406 c 1.939263,-0.0255 3.125503,0.0282 3.182061,0.14412 0.0496,0.1016 0.06989,0.16646 0.04509,0.14411 -0.0248,-0.0223 -1.456726,-0.0872 -3.182062,-0.14411 z m 27.119411,-0.0501 c 0.06205,-0.0784 1.454116,-0.11977 3.093479,-0.092 l 2.98067,0.0505 -3.09348,0.092 c -1.701416,0.0506 -3.042717,0.0279 -2.980669,-0.0505 z m -60.203546,-0.0872 c 0.621924,-0.0346 1.639617,-0.0346 2.26154,0 0.621923,0.0346 0.113077,0.063 -1.13077,0.063 -1.243847,0 -1.752693,-0.0283 -1.13077,-0.063 z m 13.723073,-6.4e-4 c 0.86703,-0.0327 2.24584,-0.0326 3.064022,2.8e-4 0.818182,0.0329 0.108794,0.0596 -1.576417,0.0595 -1.685212,-1.5e-4 -2.354634,-0.027 -1.487605,-0.0598 z m 37.060067,0 c 0.86703,-0.0327 2.24584,-0.0326 3.064022,2.8e-4 0.818182,0.0329 0.108794,0.0596 -1.576417,0.0595 -1.685212,-1.5e-4 -2.354634,-0.027 -1.487605,-0.0598 z m 35.082405,-4.3e-4 c 1.86577,-0.0292 4.91885,-0.0292 6.78462,0 1.86577,0.0292 0.33923,0.0532 -3.39231,0.0532 -3.73154,0 -5.25808,-0.0239 -3.39231,-0.0532 z m 26.62781,6.7e-4 c 0.78242,-0.0332 2.06274,-0.0332 2.84516,0 0.78242,0.0332 0.14226,0.0604 -1.42258,0.0604 -1.56484,0 -2.205,-0.0272 -1.42258,-0.0604 z m 21.5211,5.5e-4 c 0.5818,-0.0351 1.53383,-0.0351 2.11563,0 0.5818,0.0351 0.10579,0.0637 -1.05781,0.0637 -1.1636,0 -1.63962,-0.0287 -1.05782,-0.0637 z m 14.88239,-0.001 c 1.86577,-0.0292 4.91885,-0.0292 6.78462,0 1.86577,0.0292 0.33923,0.0532 -3.39231,0.0532 -3.73154,0 -5.25808,-0.0239 -3.39231,-0.0532 z m 19.95261,-0.7853 c 0.14525,-0.20322 0.29692,-0.36948 0.33704,-0.36948 0.0401,0 -0.0459,0.16626 -0.19113,0.36948 -0.14525,0.20321 -0.29691,0.36947 -0.33704,0.36947 -0.0401,0 0.0459,-0.16626 0.19113,-0.36947 z m -0.64441,-0.42176 c 0.0334,-0.0288 0.19211,-0.17423 0.3526,-0.32329 0.26993,-0.25069 0.2768,-0.24677 0.0916,0.0523 -0.11014,0.17781 -0.26881,0.32329 -0.35261,0.32329 -0.0838,0 -0.125,-0.0235 -0.0916,-0.0523 z m -5.10735,-3.19604 c 0.007,-0.21521 0.0416,-0.25899 0.0882,-0.11162 0.0421,0.13336 0.037,0.2927 -0.0115,0.35409 -0.0485,0.0614 -0.083,-0.0477 -0.0766,-0.24247 z m 1.30164,-1.80938 c 0,-0.0384 0.1149,-0.18384 0.25533,-0.32329 0.23142,-0.22979 0.23658,-0.22325 0.0551,0.0697 -0.19061,0.30773 -0.31042,0.40559 -0.31042,0.25354 z m 3.33722,-0.25354 c -0.18149,-0.293 -0.17633,-0.29954 0.0551,-0.0697 0.14043,0.13945 0.25533,0.28493 0.25533,0.32329 0,0.15205 -0.11981,0.0542 -0.31042,-0.25354 z m -3.70199,-0.41566 c 0.14525,-0.20321 0.29692,-0.36948 0.33704,-0.36948 0.0401,0 -0.0459,0.16627 -0.19113,0.36948 -0.14525,0.20321 -0.29692,0.36948 -0.33704,0.36948 -0.0401,0 0.0459,-0.16627 0.19113,-0.36948 z"
         id="path21" /><path
         style="fill:#8897b4"
         d="m 2.9586741,146.09914 c 0.8670295,-0.0327 2.2458391,-0.0326 3.0640213,2.8e-4 0.8181822,0.0329 0.1087944,0.0596 -1.5764173,0.0595 -1.6852117,-1.5e-4 -2.3546335,-0.027 -1.487604,-0.0598 z m 8.3166289,0 c 0.86703,-0.0327 2.245839,-0.0326 3.064022,2.8e-4 0.818182,0.0329 0.108794,0.0596 -1.576418,0.0595 -1.685211,-1.5e-4 -2.354633,-0.027 -1.487604,-0.0598 z m 16.195541,0 c 0.86703,-0.0327 2.245839,-0.0326 3.064022,2.8e-4 0.818182,0.0329 0.108794,0.0596 -1.576418,0.0595 -1.685211,-1.5e-4 -2.354633,-0.027 -1.487604,-0.0598 z m 12.11018,0 c 0.867029,-0.0327 2.245839,-0.0326 3.064021,2.8e-4 0.818182,0.0329 0.108795,0.0596 -1.576417,0.0595 -1.685212,-1.5e-4 -2.354634,-0.027 -1.487604,-0.0598 z m 17.865527,1.7e-4 c 0.822544,-0.0329 2.168525,-0.0329 2.991069,0 0.822543,0.0329 0.149553,0.0599 -1.495535,0.0599 -1.645087,0 -2.318078,-0.0269 -1.495534,-0.0599 z m 12.365515,0.0103 c 2.494606,-0.13213 5.146706,-0.13789 5.084487,-0.011 -0.03738,0.0762 -1.42648,0.12204 -3.086894,0.10185 -1.660414,-0.0202 -2.559331,-0.061 -1.997593,-0.0908 z m 17.143928,-0.006 c 6.544504,-0.12867 11.930424,-0.13097 11.868879,-0.005 -0.03725,0.0762 -3.297495,0.11982 -7.244981,0.0969 -3.947487,-0.0229 -6.028241,-0.0642 -4.623898,-0.0918 z m 89.755086,-1.71391 c 0,-0.25401 0.0331,-0.35793 0.0736,-0.23092 0.0405,0.12701 0.0405,0.33484 0,0.46185 -0.0405,0.127 -0.0736,0.0231 -0.0736,-0.23093 z M 36.438732,138.34419 c 0.262244,-0.0411 0.65619,-0.0403 0.875435,0.002 0.219245,0.0422 0.0047,0.0758 -0.476807,0.0748 -0.481489,-10e-4 -0.660871,-0.0355 -0.398628,-0.0766 z m 140.137258,-3.93037 c 0,-0.35562 0.03,-0.5011 0.0667,-0.32329 0.0367,0.17781 0.0367,0.46878 0,0.64659 -0.0367,0.17781 -0.0667,0.0323 -0.0667,-0.3233 z m 26.93136,-10.10208 c 0.10533,-0.0534 0.23117,-0.0468 0.27965,0.0146 0.0485,0.0614 -0.0377,0.10505 -0.1915,0.097 -0.16997,-0.009 -0.20454,-0.0526 -0.0881,-0.11161 z m -64.75481,-0.24328 -5.17965,-0.0995 5.13457,-0.0426 c 3.30246,-0.0274 5.16674,0.0233 5.22474,0.14211 0.0496,0.1016 0.0699,0.16555 0.0451,0.14211 -0.0248,-0.0235 -2.37594,-0.0874 -5.22475,-0.14211 z m 63.58757,-1.04989 c 0.10532,-0.0534 0.23116,-0.0468 0.27965,0.0146 0.0485,0.0614 -0.0377,0.10505 -0.1915,0.097 -0.16998,-0.009 -0.20455,-0.0526 -0.0881,-0.11161 z m 2.1514,-0.0413 c -0.045,-0.0921 0.0496,-0.12401 0.21024,-0.0708 0.34069,0.11281 0.38376,0.23834 0.0818,0.23834 -0.11564,0 -0.24704,-0.0754 -0.29201,-0.16751 z"
         id="path20" /><path
         style="fill:#6f8bb1"
         d="m 176.72779,145.49814 c 0,-0.45722 0.0284,-0.64427 0.0632,-0.41566 0.0348,0.22862 0.0348,0.60271 0,0.83133 -0.0348,0.22861 -0.0632,0.0416 -0.0632,-0.41567 z m -93.875769,-0.13855 c -0.181487,-0.29301 -0.176327,-0.29954 0.05509,-0.0697 0.243042,0.24134 0.320333,0.39304 0.200248,0.39304 -0.0303,0 -0.145199,-0.14548 -0.255336,-0.32329 z m 55.590099,-0.18474 c -0.18149,-0.293 -0.17633,-0.29954 0.0551,-0.0697 0.24304,0.24134 0.32033,0.39304 0.20025,0.39304 -0.0303,0 -0.1452,-0.14548 -0.25534,-0.32329 z M 9.6489709,144.94393 c 0,-0.25402 0.033117,-0.35793 0.073593,-0.23093 0.040476,0.12701 0.040476,0.33484 0,0.46185 -0.040476,0.12701 -0.073593,0.0231 -0.073593,-0.23092 z m 28.3057201,-0.18474 c 0,-0.25402 0.03312,-0.35793 0.07359,-0.23092 0.04048,0.127 0.04048,0.33483 0,0.46184 -0.04048,0.12701 -0.07359,0.0231 -0.07359,-0.23092 z m -22.335102,-0.2925 c 0.007,-0.21521 0.04157,-0.25899 0.08815,-0.11162 0.04215,0.13336 0.03697,0.2927 -0.01152,0.35409 -0.04848,0.0614 -0.08297,-0.0477 -0.07663,-0.24247 z m 28.30572,-0.18474 c 0.007,-0.21521 0.04158,-0.25899 0.08815,-0.11162 0.04215,0.13336 0.03696,0.2927 -0.01152,0.35409 -0.04848,0.0614 -0.08297,-0.0477 -0.07663,-0.24247 z m 92.697741,-1.23159 -0.27795,-0.41567 0.32829,0.35193 c 0.18056,0.19356 0.32829,0.38061 0.32829,0.41566 0,0.14784 -0.11743,0.0387 -0.37863,-0.35192 z M 9.4915463,141.88035 c 0.007,-0.21522 0.041574,-0.25899 0.088151,-0.11162 0.042148,0.13336 0.036964,0.2927 -0.011519,0.35408 -0.048483,0.0614 -0.082968,-0.0477 -0.076632,-0.24246 z m 5.9936557,-0.26172 c 0,-0.25401 0.03312,-0.35793 0.07359,-0.23092 0.04048,0.12701 0.04048,0.33484 0,0.46185 -0.04048,0.127 -0.07359,0.0231 -0.07359,-0.23093 z m 28.294202,-0.10776 c 0.007,-0.21521 0.04157,-0.25899 0.08815,-0.11162 0.04215,0.13336 0.03696,0.2927 -0.01152,0.35409 -0.04848,0.0614 -0.08297,-0.0477 -0.07663,-0.24247 z m 106.219406,-0.18474 c 0.007,-0.21521 0.0416,-0.25899 0.0882,-0.11161 0.0421,0.13335 0.037,0.29269 -0.0115,0.35408 -0.0485,0.0614 -0.083,-0.0477 -0.0766,-0.24247 z m -15.20433,-0.40027 c -0.18149,-0.293 -0.17633,-0.29954 0.0551,-0.0697 0.24304,0.24134 0.32033,0.39304 0.20024,0.39304 -0.0303,0 -0.1452,-0.14548 -0.25533,-0.32329 z M 9.3456405,139.10926 c 0.007,-0.21521 0.041574,-0.25898 0.088151,-0.11161 0.042148,0.13336 0.036964,0.2927 -0.011519,0.35408 -0.048483,0.0614 -0.082968,-0.0477 -0.076632,-0.24247 z m 5.9821365,-0.55421 c 0.007,-0.21521 0.04157,-0.25899 0.08815,-0.11161 0.04215,0.13335 0.03696,0.29269 -0.01152,0.35408 -0.04848,0.0614 -0.08297,-0.0477 -0.07663,-0.24247 z m 28.305721,-0.18474 c 0.007,-0.21521 0.04157,-0.25898 0.08815,-0.11161 0.04215,0.13336 0.03697,0.29269 -0.01152,0.35408 -0.04848,0.0614 -0.08297,-0.0477 -0.07663,-0.24247 z m 89.019452,-1.64725 c 0.003,-0.30482 0.0357,-0.40715 0.0727,-0.22741 0.037,0.17974 0.0346,0.42914 -0.005,0.55422 -0.04,0.12507 -0.0702,-0.022 -0.0673,-0.32681 z m 43.9344,-0.73896 c 8.2e-4,-0.60964 0.0281,-0.83676 0.0605,-0.50472 0.0325,0.33204 0.0318,0.83083 -0.001,1.10843 -0.0333,0.2776 -0.0599,0.006 -0.059,-0.60371 z M 37.505455,135.9687 c 0.007,-0.21521 0.04158,-0.25899 0.08815,-0.11162 0.04215,0.13336 0.03696,0.2927 -0.01152,0.35409 -0.04848,0.0614 -0.08297,-0.0477 -0.07663,-0.24247 z m -22.323583,-0.18474 c 0.007,-0.21521 0.04157,-0.25899 0.08815,-0.11161 0.04215,0.13335 0.03696,0.29269 -0.01152,0.35408 -0.04848,0.0614 -0.08297,-0.0477 -0.07663,-0.24247 z m 28.30572,-0.18474 c 0.007,-0.21521 0.04157,-0.25898 0.08815,-0.11161 0.04215,0.13336 0.03696,0.29269 -0.01152,0.35408 -0.04848,0.0614 -0.08297,-0.0477 -0.07663,-0.24247 z m -28.440107,-2.84805 c 0,-0.25402 0.03312,-0.35794 0.07359,-0.23093 0.04048,0.12701 0.04048,0.33484 0,0.46185 -0.04048,0.12701 -0.07359,0.0231 -0.07359,-0.23092 z m 28.30572,-0.18474 c 0,-0.25402 0.03312,-0.35793 0.07359,-0.23093 0.04048,0.12701 0.04048,0.33484 0,0.46185 -0.04048,0.12701 -0.07359,0.0231 -0.07359,-0.23092 z m 76.395115,0.0467 c 0.98304,-0.032 2.59165,-0.032 3.57469,0 0.98304,0.032 0.17873,0.0581 -1.78735,0.0581 -1.96608,0 -2.77038,-0.0262 -1.78734,-0.0581 z m -104.85826,-2.7408 c 0.007,-0.21521 0.04157,-0.25898 0.08815,-0.11161 0.04215,0.13336 0.03697,0.29269 -0.01152,0.35408 -0.04848,0.0614 -0.08297,-0.0477 -0.07663,-0.24247 z m 28.30572,-0.18474 c 0.007,-0.21521 0.04158,-0.25898 0.08815,-0.11161 0.04215,0.13336 0.03696,0.2927 -0.01152,0.35408 -0.04848,0.0614 -0.08297,-0.0477 -0.07663,-0.24247 z m -28.451626,-2.77108 c 0.007,-0.21521 0.04157,-0.25898 0.08815,-0.11161 0.04215,0.13336 0.03696,0.2927 -0.01152,0.35408 -0.04848,0.0614 -0.08297,-0.0477 -0.07663,-0.24247 z m 27.400156,-1.87817 c -0.181488,-0.29301 -0.176327,-0.29954 0.05509,-0.0697 0.243042,0.24133 0.320333,0.39304 0.200247,0.39304 -0.0303,0 -0.145199,-0.14548 -0.255335,-0.32329 z m 91.18236,-1.09608 c 0.10533,-0.0534 0.23117,-0.0468 0.27966,0.0146 0.0485,0.0614 -0.0377,0.10505 -0.19151,0.097 -0.16997,-0.009 -0.20454,-0.0526 -0.0881,-0.11161 z m 68.66214,-3.84568 c 1.8e-4,-1.6257 0.0225,-2.26603 0.0496,-1.42296 0.0271,0.84308 0.0269,2.1732 -3.4e-4,2.95582 -0.0273,0.78263 -0.0495,0.0928 -0.0493,-1.53286 z m 0.71716,1.75501 c 0,-0.66044 0.0265,-0.93062 0.0588,-0.6004 0.0324,0.33022 0.0324,0.87058 0,1.20081 -0.0324,0.33022 -0.0588,0.06 -0.0588,-0.60041 z m -0.007,-2.95581 c 0,-0.45723 0.0285,-0.64428 0.0632,-0.41567 0.0348,0.22862 0.0348,0.60271 0,0.83133 -0.0348,0.22861 -0.0632,0.0416 -0.0632,-0.41566 z"
         id="path19" /><path
         style="fill:#e2851c"
         d="m 16.335607,145.72907 c -0.0011,-0.58424 -0.04158,-1.2493 -0.08997,-1.47791 -0.05279,-0.2494 -0.02281,-0.41566 0.07495,-0.41566 0.1034,0 0.162923,0.44268 0.162923,1.2117 0,0.83404 0.05001,1.17257 0.160462,1.08614 0.112778,-0.0883 0.111252,-0.009 -0.0051,0.2662 -0.251679,0.59543 -0.301058,0.48625 -0.303227,-0.67047 z m 4.277314,0.18545 c 0.786588,-0.0333 2.034083,-0.0331 2.77221,3.2e-4 0.738127,0.0335 0.09456,0.0607 -1.43016,0.0605 -1.524715,-1.7e-4 -2.128638,-0.0275 -1.34205,-0.0608 z m 4.343374,-0.17455 c -0.0056,-0.22262 0.0554,-0.45614 0.13565,-0.51893 0.172575,-0.13505 0.172575,0.0457 0,0.55421 -0.120896,0.35622 -0.125763,0.35496 -0.13565,-0.0353 z m 19.97858,0.17384 c -1.4e-4,-0.0762 0.869823,-0.11693 1.933252,-0.0905 3.630891,0.0902 3.978115,0.15561 1.021596,0.19234 -1.625026,0.0202 -2.954707,-0.0256 -2.954848,-0.10184 z m 94.441875,-0.0924 c -0.27683,-0.45321 -0.35272,-0.77766 -0.0897,-0.38357 0.1474,0.22086 0.43214,0.43815 0.63276,0.48287 l 0.36477,0.0813 -0.38338,0.0252 c -0.21086,0.0138 -0.44685,-0.0788 -0.52443,-0.20576 z m -88.459482,-0.41567 c 0,-0.25401 0.05655,-0.46184 0.125672,-0.46184 0.06912,0 0.09429,0.20783 0.05594,0.46184 -0.03835,0.25402 -0.0949,0.46185 -0.125673,0.46185 -0.03077,0 -0.05594,-0.20783 -0.05594,-0.46185 z m 89.440242,0.27711 c 0,-0.1016 0.11818,-0.18474 0.26263,-0.18474 0.14445,0 0.32639,-0.0624 0.40433,-0.13855 0.0779,-0.0762 0.0181,0.007 -0.13289,0.18474 -0.30583,0.36007 -0.53407,0.41929 -0.53407,0.13855 z M 19.197439,145.19033 c 0.134294,-0.70781 0.204181,-0.7748 0.204181,-0.19573 0,0.26496 -0.06829,0.53518 -0.151754,0.60049 -0.09953,0.0779 -0.117576,-0.0614 -0.05243,-0.40476 z m -2.130311,-0.0617 c 0.0859,-0.20322 0.189001,-0.36948 0.229125,-0.36948 0.04012,0 0.0027,0.16626 -0.08322,0.36948 -0.0859,0.20321 -0.189001,0.36947 -0.229125,0.36947 -0.04012,0 -0.0027,-0.16626 0.08322,-0.36947 z m 28.124104,-0.27711 c 0.03835,-0.25402 0.0949,-0.46185 0.125673,-0.46185 0.03077,0 0.05594,0.20783 0.05594,0.46185 0,0.25401 -0.05655,0.46185 -0.125673,0.46185 -0.06912,0 -0.09429,-0.20784 -0.05594,-0.46185 z m 96.192258,0.15902 c 0.007,-0.22544 0.41748,-0.88704 0.49196,-0.79212 0.0341,0.0434 -0.0638,0.27514 -0.21735,0.51501 -0.15359,0.23987 -0.27716,0.36457 -0.27461,0.27711 z m -2.68334,-0.62655 c -0.14075,-0.30169 -0.20296,-0.54789 -0.13824,-0.54709 0.11977,10e-4 0.5146,0.94312 0.43677,1.04166 -0.0234,0.0297 -0.15778,-0.19288 -0.29853,-0.49457 z m -113.462299,-0.045 c 0,-0.26496 0.06829,-0.53518 0.151754,-0.60049 0.09954,-0.0779 0.117576,0.0614 0.05243,0.40476 -0.134294,0.70781 -0.204181,0.7748 -0.204181,0.19573 z m -7.817161,0.0507 c 0.04618,-0.15241 0.124496,-0.42259 0.174031,-0.6004 0.04953,-0.17781 0.150374,-0.32329 0.224086,-0.32329 0.132338,0 0.0052,0.36675 -0.320184,0.92369 -0.143911,0.24632 -0.15257,0.24632 -0.07793,0 z m 33.788389,-0.36948 c 0,-0.30481 0.05429,-0.55421 0.120636,-0.55421 0.06635,0 0.09173,0.2494 0.05639,0.55421 -0.03533,0.30482 -0.08962,0.55422 -0.120636,0.55422 -0.03102,0 -0.05639,-0.2494 -0.05639,-0.55422 z m -31.71676,-0.32329 c 0.137421,-0.72528 0.201113,-0.74966 0.201113,-0.077 0,0.32175 -0.06691,0.585 -0.148686,0.585 -0.08827,0 -0.109571,-0.20644 -0.05243,-0.50803 z m 25.968159,-0.16926 c 0.134294,-0.70781 0.204182,-0.7748 0.204182,-0.19572 0,0.26495 -0.06829,0.53517 -0.151754,0.60048 -0.09954,0.0779 -0.117576,-0.0614 -0.05243,-0.40476 z m 96.501992,0.31872 c 0,-0.0956 0.0649,-0.22463 0.14424,-0.2867 0.0827,-0.0647 0.10717,0.009 0.0573,0.17383 -0.097,0.32005 -0.20158,0.3786 -0.20158,0.11287 z m -3.71121,-0.51097 c -0.0792,-0.26329 -0.0624,-0.28451 0.0817,-0.10341 0.0997,0.12531 0.14455,0.27438 0.0996,0.33126 -0.0449,0.0569 -0.1265,-0.0456 -0.18129,-0.22785 z M 17.944797,143.135 c -0.0012,-0.13126 0.137183,-0.42222 0.307583,-0.64658 0.273714,-0.3604 0.291286,-0.36489 0.150792,-0.0385 -0.309952,0.72013 -0.456003,0.93841 -0.458375,0.68504 z m 124.309483,-0.11993 c 0,-0.14641 0.0595,-0.31279 0.1323,-0.36973 0.0728,-0.0569 0.0979,0.0628 0.0559,0.26621 -0.0891,0.43136 -0.18824,0.48589 -0.18824,0.10352 z m -90.781669,-0.0183 c -0.09093,-0.19343 0.139628,-1.11399 0.245448,-0.98001 0.03575,0.0453 0.0139,0.32418 -0.04854,0.61982 -0.06245,0.29564 -0.151053,0.45773 -0.196903,0.36019 z m 90.376139,-0.25524 c 0.0224,-0.24605 0.12284,-0.48159 0.22315,-0.52342 0.24819,-0.10349 0.22944,0.17797 -0.0408,0.6122 -0.2161,0.34727 -0.22186,0.34446 -0.18239,-0.0888 z m -4.0253,-0.43013 -0.26249,-0.6004 0.30074,0.46185 c 0.26671,0.4096 0.38515,0.73895 0.26573,0.73895 -0.0228,0 -0.15962,-0.27018 -0.30398,-0.6004 z M 19.803627,142.2652 c 0.03835,-0.25402 0.0949,-0.46185 0.125673,-0.46185 0.03077,0 0.05594,0.20783 0.05594,0.46185 0,0.25401 -0.05655,0.46184 -0.125673,0.46184 -0.06912,0 -0.09429,-0.20783 -0.05594,-0.46184 z m 118.657103,0.27711 c 0,-0.10161 0.0985,-0.18474 0.21886,-0.18474 0.12037,0 0.21886,0.0831 0.21886,0.18474 0,0.1016 -0.0985,0.18473 -0.21886,0.18473 -0.12037,0 -0.21886,-0.0831 -0.21886,-0.18473 z m -92.70844,-0.49256 c 0.134294,-0.70781 0.204181,-0.7748 0.204181,-0.19572 0,0.26495 -0.06829,0.53517 -0.151754,0.60048 -0.09953,0.0779 -0.117575,-0.0614 -0.05243,-0.40476 z m 96.7938,-0.33877 c 0,-0.25401 0.0566,-0.46185 0.12568,-0.46185 0.0691,0 0.0943,0.20784 0.0559,0.46185 -0.0384,0.25402 -0.0949,0.46185 -0.12567,0.46185 -0.0308,0 -0.0559,-0.20783 -0.0559,-0.46185 z M 16.082582,141.34152 c 0.0016,-0.40642 0.0315,-0.55093 0.0664,-0.32113 0.0349,0.22979 0.03357,0.56232 -0.0029,0.73895 -0.03652,0.17663 -0.06507,-0.0114 -0.06345,-0.41782 z m 2.443603,0.46185 c 0,-0.10161 0.06953,-0.18474 0.154517,-0.18474 0.08498,0 0.113938,0.0831 0.06434,0.18474 -0.0496,0.10161 -0.119128,0.18474 -0.154517,0.18474 -0.03539,0 -0.06434,-0.0831 -0.06434,-0.18474 z m 7.295289,-0.46185 c 0,-0.25401 0.05655,-0.46184 0.125673,-0.46184 0.06912,0 0.09429,0.20783 0.05594,0.46184 -0.03835,0.25402 -0.0949,0.46185 -0.125673,0.46185 -0.03077,0 -0.05594,-0.20783 -0.05594,-0.46185 z m 25.971228,-0.14304 c 0,-0.26496 0.06829,-0.53517 0.151754,-0.60049 0.09954,-0.0779 0.117576,0.0614 0.05243,0.40476 -0.134294,0.70781 -0.204182,0.77481 -0.204182,0.19573 z m -32.974705,0.10408 c 0,-0.10609 0.114901,-0.307 0.255335,-0.44645 0.236186,-0.23453 0.239282,-0.22583 0.04129,0.11594 -0.117727,0.20321 -0.232628,0.40411 -0.255335,0.44645 -0.02271,0.0423 -0.04129,-0.01 -0.04129,-0.11594 z m 1.277441,-0.51525 c 0.03835,-0.25402 0.0949,-0.46185 0.125673,-0.46185 0.03077,0 0.05594,0.20783 0.05594,0.46185 0,0.25401 -0.05655,0.46184 -0.125673,0.46184 -0.06912,0 -0.0943,-0.20783 -0.05594,-0.46184 z m 25.957141,-0.12937 c 0.122887,-0.81678 0.195704,-0.88726 0.195704,-0.18943 0,0.31575 -0.06467,0.62471 -0.143709,0.68656 -0.08979,0.0703 -0.1093,-0.11625 -0.05199,-0.49713 z m 91.040071,0.12223 c -0.14079,-0.46457 -0.0993,-0.58443 0.0727,-0.20993 0.0852,0.18543 0.12411,0.37607 0.0865,0.42363 -0.0376,0.0476 -0.10924,-0.0486 -0.15928,-0.2137 z m 5.74526,-0.32065 c 0,-0.26495 0.0683,-0.53517 0.15175,-0.60048 0.0995,-0.0779 0.11758,0.0614 0.0524,0.40476 -0.1343,0.70781 -0.20418,0.7748 -0.20418,0.19572 z M 26.113286,139.95598 c 0,-0.30481 0.05429,-0.55421 0.120636,-0.55421 0.06635,0 0.09173,0.2494 0.05639,0.55421 -0.03533,0.30482 -0.08962,0.55422 -0.120636,0.55422 -0.03102,0 -0.05639,-0.2494 -0.05639,-0.55422 z m -10.041902,-0.36947 c -0.01627,-0.45723 -0.07045,-1.03916 -0.120391,-1.29317 -0.06913,-0.3516 -0.04935,-0.41315 0.08286,-0.25785 0.109475,0.12859 0.153977,0.6066 0.120391,1.29317 -0.04647,0.94992 -0.05706,0.98288 -0.08286,0.25785 z m 36.01313,0.13406 c 0,-0.26496 0.06829,-0.53517 0.151754,-0.60049 0.09953,-0.0779 0.117576,0.0614 0.05243,0.40476 -0.134294,0.70781 -0.204181,0.77481 -0.204181,0.19573 z m 84.996676,0.004 c 0.15837,-0.66369 0.31503,-0.75634 0.24409,-0.14436 -0.0357,0.30801 -0.12754,0.56002 -0.20409,0.56002 -0.0766,0 -0.0946,-0.18705 -0.04,-0.41566 z M 20.38725,139.3094 c 0.03835,-0.25402 0.0949,-0.46185 0.125673,-0.46185 0.03077,0 0.05594,0.20783 0.05594,0.46185 0,0.25401 -0.05655,0.46185 -0.125672,0.46185 -0.06912,0 -0.09429,-0.20784 -0.05594,-0.46185 z m 25.948663,-0.0307 c 0.134294,-0.70781 0.204181,-0.7748 0.204181,-0.19572 0,0.26495 -0.06829,0.53517 -0.151754,0.60048 -0.09953,0.0779 -0.117575,-0.0614 -0.05243,-0.40476 z m -26.642481,0.0307 c 0,-0.15241 0.0636,-0.27711 0.141326,-0.27711 0.07773,0 0.103534,0.1247 0.05734,0.27711 -0.04619,0.15241 -0.109788,0.27711 -0.141327,0.27711 -0.03154,0 -0.05734,-0.1247 -0.05734,-0.27711 z m 122.414948,0.12946 c 0,-0.0812 0.2298,-0.11367 0.51067,-0.0721 0.28087,0.0415 0.51067,0.10795 0.51067,0.14764 0,0.0397 -0.2298,0.0722 -0.51067,0.0722 -0.28087,0 -0.51067,-0.0664 -0.51067,-0.14765 z m -1.38475,-0.40379 c -0.0555,-0.11369 0.0918,-0.13839 0.39263,-0.0658 0.64509,0.15559 0.70076,0.24779 0.14961,0.24779 -0.24938,0 -0.49339,-0.0819 -0.54224,-0.18196 z M 26.405097,138.61214 c 0,-0.26496 0.06829,-0.53518 0.151754,-0.60049 0.09954,-0.0779 0.117576,0.0614 0.05243,0.40476 -0.134294,0.70781 -0.204182,0.7748 -0.204182,0.19573 z m -6.41762,0.13217 c 0.0033,-0.25536 0.262367,-0.73174 0.342668,-0.63007 0.03793,0.048 -0.02416,0.24855 -0.137973,0.44562 -0.113811,0.19707 -0.205923,0.28007 -0.204695,0.18445 z m 32.388848,-0.51255 c 0,-0.37256 0.06402,-0.67738 0.142259,-0.67738 0.08174,0 0.10386,0.25541 0.05199,0.6004 -0.12657,0.84191 -0.194253,0.86873 -0.194253,0.077 z m 86.959845,0.42848 c -0.15398,-0.1278 -0.0675,-0.14648 0.29181,-0.063 0.62926,0.1462 0.74796,0.25124 0.27965,0.24748 -0.19393,-0.002 -0.45109,-0.0846 -0.57146,-0.18448 z m 2.80585,-0.8086 c -1.33263,-0.88035 -1.54461,-1.06533 -1.03294,-0.90135 0.1885,0.0604 0.37555,0.15869 0.41567,0.21841 0.13464,0.20038 1.33861,0.9399 1.53019,0.9399 0.10421,0 0.22726,0.1247 0.27345,0.27711 0.0462,0.1524 0.0696,0.27393 0.0521,0.27004 -0.0175,-0.004 -0.57484,-0.36573 -1.23845,-0.80411 z m -3.93662,0.49909 c 0.14043,-0.0465 0.37023,-0.0465 0.51067,0 0.14043,0.0465 0.0255,0.0845 -0.25534,0.0845 -0.28087,0 -0.39577,-0.038 -0.25533,-0.0845 z M 46.630793,137.7853 c 0.137421,-0.72528 0.201113,-0.74965 0.201113,-0.077 0,0.32175 -0.06691,0.58501 -0.148686,0.58501 -0.08827,0 -0.109571,-0.20644 -0.05243,-0.50804 z m 96.790737,-0.13855 c 0,-0.25402 0.0566,-0.46185 0.12567,-0.46185 0.0691,0 0.0943,0.20783 0.0559,0.46185 -0.0384,0.25402 -0.0949,0.46185 -0.12568,0.46185 -0.0308,0 -0.0559,-0.20783 -0.0559,-0.46185 z m -122.779711,-0.0924 c -0.0496,-0.10161 -0.02064,-0.18474 0.06434,-0.18474 0.08498,0 0.154517,0.0831 0.154517,0.18474 0,0.10161 -0.02895,0.18474 -0.06434,0.18474 -0.03539,0 -0.104921,-0.0831 -0.154517,-0.18474 z m 6.05509,-0.52343 c 0,-0.32175 0.06691,-0.585 0.148685,-0.585 0.08827,0 0.109572,0.20644 0.05243,0.50803 -0.137421,0.72528 -0.201113,0.74966 -0.201113,0.077 z m 116.320341,0.11932 c 0.0318,-0.12066 0.13577,-0.25231 0.23112,-0.29255 0.10662,-0.045 0.13922,0.0395 0.0847,0.21938 -0.10178,0.3358 -0.40336,0.40567 -0.31582,0.0732 z m -96.128001,-0.62706 c 0.04871,-0.16072 0.08856,-0.42674 0.08856,-0.59116 0,-0.19255 0.05023,-0.23535 0.141127,-0.12026 0.168741,0.21365 0.03198,1.00364 -0.173755,1.00364 -0.07947,0 -0.104645,-0.1315 -0.05593,-0.29222 z m 5.487076,-0.0773 c 0,-0.20321 0.02517,-0.36948 0.05594,-0.36948 0.03077,0 0.09028,0.16627 0.132246,0.36948 0.04197,0.20321 0.0168,0.36948 -0.05593,0.36948 -0.07274,0 -0.132247,-0.16627 -0.132247,-0.36948 z M 143.71334,136.292 c 0,-0.32175 0.0669,-0.58501 0.14869,-0.58501 0.0883,0 0.10957,0.20644 0.0524,0.50804 -0.13742,0.72528 -0.20111,0.74965 -0.20111,0.077 z m -3.64764,0.15395 c -0.13151,-0.1076 -0.1495,-0.18021 -0.0451,-0.18191 0.0956,-0.002 0.21435,0.0803 0.26395,0.18191 0.11195,0.22936 0.0614,0.22936 -0.21886,0 z m -0.53328,-0.46981 c -0.0475,-0.1568 -0.0538,-0.32636 -0.0139,-0.37681 0.0399,-0.0505 0.10747,0.0778 0.15027,0.28508 0.0909,0.44022 -0.0101,0.50819 -0.13632,0.0917 z M 15.777326,135.60375 c -0.01284,-0.3108 0.07305,-0.72646 0.190868,-0.92369 0.193832,-0.32448 0.21466,-0.32784 0.218859,-0.0353 0.0026,0.17781 -0.05686,0.32329 -0.132021,0.32329 -0.07516,0 -0.163143,0.27018 -0.195509,0.6004 l -0.05885,0.6004 z m 11.166488,0.22154 c -0.04453,-0.14692 0.01403,-0.42068 0.130119,-0.60837 0.19401,-0.31366 0.203337,-0.29644 0.115359,0.21297 -0.118827,0.68803 -0.144337,0.72912 -0.245478,0.3954 z m 25.191049,-0.21863 c -0.04752,-0.15679 -0.0538,-0.32636 -0.01395,-0.37681 0.03985,-0.0505 0.107468,0.0778 0.150271,0.28508 0.09092,0.44022 -0.0101,0.50819 -0.136319,0.0917 z m 91.870287,-0.54625 c 0,-0.25402 0.0566,-0.46185 0.12568,-0.46185 0.0691,0 0.0943,0.20783 0.0559,0.46185 -0.0384,0.25401 -0.0949,0.46185 -0.12567,0.46185 -0.0308,0 -0.056,-0.20784 -0.056,-0.46185 z M 47.2385,134.7833 c 0.03533,-0.30482 0.08962,-0.55421 0.120636,-0.55421 0.03102,0 0.05639,0.24939 0.05639,0.55421 0,0.30482 -0.05429,0.55422 -0.120636,0.55422 -0.06635,0 -0.09173,-0.2494 -0.05639,-0.55422 z m 4.651473,0.0616 c -0.0535,-0.0677 -0.09527,-0.25478 -0.09283,-0.41566 0.0036,-0.24022 0.03212,-0.23224 0.15928,0.0446 0.157108,0.34208 0.111561,0.5964 -0.06645,0.37102 z m -24.609441,-0.51252 c 0,-0.24802 0.05378,-0.49303 0.119505,-0.54446 0.06573,-0.0514 0.0911,0.15149 0.05639,0.45094 -0.07653,0.66024 -0.175898,0.71306 -0.175898,0.0935 z m 50.091557,-0.0571 c -0.04998,-0.17781 -0.117451,-0.38564 -0.149937,-0.46185 -0.03249,-0.0762 -0.02025,-0.13855 0.0272,-0.13855 0.04745,0 0.136372,0.1715 0.197613,0.38111 0.101707,0.34812 0.177125,0.29306 0.871013,-0.6359 0.417816,-0.55936 0.841612,-1.07491 0.941768,-1.14567 0.100156,-0.0708 -0.242776,0.42323 -0.762071,1.09775 -0.519295,0.67452 -0.964544,1.2264 -0.989443,1.2264 -0.0249,0 -0.08616,-0.14548 -0.136143,-0.32329 z m 62.401791,-0.0462 c 0.0859,-0.20322 0.18055,-0.36948 0.21034,-0.36948 0.0298,0 0.0198,0.16626 -0.0221,0.36948 -0.042,0.20321 -0.13662,0.36947 -0.21034,0.36947 -0.074,0 -0.0641,-0.16535 0.0221,-0.36947 z M 16.413019,133.66883 c 0.132376,-0.32412 0.297013,-0.50689 0.390614,-0.43365 0.10941,0.0856 0.08378,0.19884 -0.07917,0.3497 -0.132529,0.1227 -0.240962,0.31784 -0.240962,0.43365 0,0.1158 -0.06734,0.21056 -0.149653,0.21056 -0.08486,0 -0.05059,-0.24256 0.07917,-0.56026 z m 127.883941,0.0368 c 0,-0.32175 0.0669,-0.58501 0.14869,-0.58501 0.0883,0 0.10957,0.20644 0.0524,0.50803 -0.13742,0.72529 -0.20112,0.74966 -0.20112,0.077 z m -96.771236,-0.3079 c 0.03835,-0.25401 0.0949,-0.46185 0.125673,-0.46185 0.03077,0 0.05594,0.20784 0.05594,0.46185 0,0.25402 -0.05655,0.46185 -0.125673,0.46185 -0.06912,0 -0.0943,-0.20783 -0.05594,-0.46185 z m 3.975167,0.18474 c 0,-0.15241 0.0258,-0.27711 0.05734,-0.27711 0.03154,0 0.09514,0.1247 0.141327,0.27711 0.04619,0.15241 0.02039,0.27711 -0.05734,0.27711 -0.07773,0 -0.141326,-0.1247 -0.141327,-0.27711 z m 89.128929,-0.0244 c 0.27014,-0.14923 0.53087,-0.22107 0.57939,-0.15962 0.13981,0.17702 -0.30547,0.45663 -0.7058,0.4432 -0.33642,-0.0113 -0.3266,-0.0333 0.12641,-0.28358 z m -92.602224,-0.52985 c 0.003,-0.30481 0.03567,-0.40715 0.07267,-0.2274 0.03699,0.17974 0.03456,0.42914 -0.0054,0.55421 -0.03997,0.12508 -0.07023,-0.022 -0.06726,-0.32681 z m 28.943233,0.14653 c -0.07918,-0.26329 -0.06242,-0.28451 0.08168,-0.10342 0.09971,0.12531 0.144544,0.27438 0.09962,0.33126 -0.04492,0.0569 -0.126508,-0.0456 -0.1813,-0.22784 z m -49.398485,-0.33126 c 0,-0.25402 0.05655,-0.46185 0.125672,-0.46185 0.06912,0 0.0943,0.20783 0.05594,0.46185 -0.03835,0.25401 -0.0949,0.46184 -0.125673,0.46184 -0.03077,0 -0.05594,-0.20783 -0.05594,-0.46184 z m 113.806506,0.39102 c 0,-0.0389 0.1314,-0.11433 0.29201,-0.16751 0.16061,-0.0532 0.25522,-0.0213 0.21025,0.0708 -0.0785,0.16089 -0.50226,0.24246 -0.50226,0.0967 z m 1.31315,-0.11392 c 0,-0.1016 0.0657,-0.18474 0.14591,-0.18474 0.0802,0 0.1459,0.0831 0.1459,0.18474 0,0.10161 -0.0657,0.18474 -0.1459,0.18474 -0.0803,0 -0.14591,-0.0831 -0.14591,-0.18474 z M 17.213033,132.93591 c 0,-0.1016 0.06178,-0.18473 0.137295,-0.18473 0.07551,0 0.177874,0.0831 0.22747,0.18473 0.0496,0.10161 -0.01219,0.18474 -0.137295,0.18474 -0.125108,0 -0.22747,-0.0831 -0.22747,-0.18474 z m 9.775687,0 c 0,-0.1016 0.06566,-0.18473 0.145906,-0.18473 0.08025,0 0.145906,0.0831 0.145906,0.18473 0,0.10161 -0.06566,0.18474 -0.145906,0.18474 -0.08025,0 -0.145906,-0.0831 -0.145906,-0.18474 z m 24.311337,-0.0995 c -0.05004,-0.1651 -0.08682,-0.3973 -0.08173,-0.516 0.0051,-0.11869 0.07215,-0.0167 0.14904,0.22667 0.07689,0.24337 0.113664,0.47557 0.08173,0.516 -0.03193,0.0404 -0.099,-0.0616 -0.14904,-0.22667 z m 90.808323,0.0287 c 0,-0.0389 0.1314,-0.11433 0.29201,-0.16751 0.16061,-0.0532 0.25522,-0.0213 0.21025,0.0708 -0.0785,0.16089 -0.50226,0.24246 -0.50226,0.0967 z m -65.410012,-0.37128 c -0.0597,-0.19235 -0.07418,-0.39326 -0.03217,-0.44645 0.133074,-0.16849 0.250164,0.10762 0.194403,0.45843 -0.0511,0.32151 -0.05891,0.32093 -0.162238,-0.012 z m 67.901922,-0.0351 c 0.007,-0.21521 0.0416,-0.25898 0.0882,-0.11161 0.0421,0.13336 0.037,0.2927 -0.0115,0.35408 -0.0485,0.0614 -0.083,-0.0477 -0.0766,-0.24247 z M 17.081775,132.25155 c 0.106241,-0.224 0.224571,-0.3675 0.262956,-0.3189 0.03839,0.0486 -0.04854,0.23187 -0.193164,0.40726 -0.251241,0.30469 -0.25435,0.30075 -0.06979,-0.0884 z m 125.756135,0.24405 c 0,-0.0389 0.16414,-0.11056 0.36476,-0.15912 0.20062,-0.0486 0.36477,-0.0167 0.36477,0.0708 0,0.0875 -0.16415,0.15912 -0.36477,0.15912 -0.20062,0 -0.36476,-0.0319 -0.36476,-0.0708 z m -95.020374,-0.57575 c 0.03835,-0.25401 0.0949,-0.46184 0.125673,-0.46184 0.03077,0 0.05594,0.20783 0.05594,0.46184 0,0.25402 -0.05655,0.46185 -0.125673,0.46185 -0.06912,0 -0.09429,-0.20783 -0.05594,-0.46185 z m 95.895804,0.20629 c 0,-0.039 0.13141,-0.11434 0.29201,-0.16751 0.16061,-0.0532 0.25522,-0.0213 0.21025,0.0708 -0.0785,0.16089 -0.50226,0.24246 -0.50226,0.0967 z m -92.745724,-0.39899 c -0.04752,-0.1568 -0.0538,-0.32636 -0.01395,-0.37681 0.03985,-0.0504 0.107468,0.0778 0.150271,0.28508 0.09092,0.44022 -0.0101,0.50819 -0.13632,0.0917 z m 93.621164,0.10033 c -0.18704,-0.15304 -0.18174,-0.17949 0.0365,-0.18191 0.14044,-0.002 0.25534,0.0803 0.25534,0.18191 0,0.22531 -0.0165,0.22531 -0.29181,0 z M 27.864155,131.36564 c 0,-0.25402 0.05655,-0.46185 0.125673,-0.46185 0.06912,0 0.09429,0.20783 0.05594,0.46185 -0.03835,0.25401 -0.0949,0.46184 -0.125672,0.46184 -0.03077,0 -0.05594,-0.20783 -0.05594,-0.46184 z m 111.273345,0.18473 c -0.0462,-0.1524 -0.0204,-0.2771 0.0573,-0.2771 0.0777,0 0.14133,0.1247 0.14133,0.2771 0,0.15241 -0.0258,0.27711 -0.0573,0.27711 -0.0315,0 -0.0951,-0.1247 -0.14133,-0.27711 z m 0.85524,0.0924 c 0.24075,-0.0776 0.66752,-0.1413 0.94839,-0.14163 l 0.51067,-6.2e-4 -0.58362,0.15285 c -0.32099,0.0841 -0.74777,0.1478 -0.94839,0.14164 -0.33233,-0.0102 -0.32584,-0.0238 0.0729,-0.15224 z M 17.441273,131.40385 c 0.05479,-0.18219 0.136377,-0.28472 0.181299,-0.22784 0.04492,0.0569 9.3e-5,0.20594 -0.09962,0.33126 -0.144099,0.18109 -0.160858,0.15987 -0.08168,-0.10342 z m 122.150227,-0.0682 c 0.10031,-0.0512 0.26446,-0.0512 0.36477,0 0.10031,0.0513 0.0182,0.0932 -0.18239,0.0932 -0.20062,0 -0.28269,-0.0419 -0.18238,-0.0932 z m 2.37097,-0.0648 c 0.12037,-0.0972 0.41036,-0.17795 0.64442,-0.1795 0.56438,-0.004 0.44158,0.1029 -0.27965,0.24289 -0.39745,0.0771 -0.51381,0.0569 -0.36477,-0.0634 z m -93.875688,-0.67488 c 0.134294,-0.70781 0.204182,-0.77481 0.204182,-0.19573 0,0.26495 -0.06829,0.53517 -0.151754,0.60048 -0.09954,0.0779 -0.117576,-0.0614 -0.05243,-0.40475 z m 2.589023,0.20747 c -0.04752,-0.15679 -0.0538,-0.32635 -0.01395,-0.3768 0.03985,-0.0504 0.107468,0.0778 0.150272,0.28507 0.09092,0.44022 -0.0101,0.5082 -0.13632,0.0917 z m 25.430398,0.008 c -0.04619,-0.15241 -0.02039,-0.27711 0.05734,-0.27711 0.07773,0 0.141327,0.1247 0.141327,0.27711 0,0.15241 -0.02581,0.27711 -0.05734,0.27711 -0.03154,0 -0.09513,-0.1247 -0.141327,-0.27711 z m 67.461237,0.0553 c 0,-0.0812 0.2298,-0.14764 0.51067,-0.14764 0.28086,0 0.51067,0.0325 0.51067,0.0722 0,0.0397 -0.22981,0.10612 -0.51067,0.14764 -0.28087,0.0415 -0.51067,0.009 -0.51067,-0.0722 z M 76.669637,130.7191 c -0.0496,-0.10161 -0.04526,-0.27675 0.0096,-0.3892 0.09807,-0.2009 0.347607,0.10696 0.352903,0.43539 0.0033,0.20249 -0.257349,0.16929 -0.36253,-0.0462 z m 62.491203,-0.27711 c 0.0858,-0.20321 0.96356,-1.36706 1.95057,-2.58634 l 1.79456,-2.21686 -1.89395,2.49397 c -1.04167,1.37168 -1.91943,2.53554 -1.95057,2.58634 -0.0311,0.0508 0.0136,-0.0739 0.0994,-0.27711 z m -58.6247,0.0656 c 0,-0.0579 0.689405,-0.96423 1.532011,-2.01408 0.842606,-1.04985 1.53201,-1.9734 1.53201,-2.05232 0,-0.14701 0.599259,-0.92623 1.469518,-1.91083 0.582326,-0.65884 -2.722958,3.8437 -3.792134,5.16573 -0.407773,0.50421 -0.741405,0.86939 -0.741405,0.8115 z m -62.207249,-1.03548 c 0.219247,-0.48263 0.551862,-1.16847 0.739145,-1.52409 0.300369,-0.57035 0.332783,-0.59213 0.274939,-0.18474 -0.03607,0.25402 -0.07045,0.5291 -0.07642,0.61131 -0.006,0.0822 -0.07533,0.099 -0.154148,0.0373 -0.07882,-0.0617 -0.25845,0.22438 -0.399183,0.63568 -0.140734,0.41131 -0.306048,0.74783 -0.367365,0.74783 -0.06132,0 -0.111487,0.1247 -0.111487,0.27711 0,0.1524 -0.06842,0.2771 -0.152056,0.2771 -0.08363,0 0.02733,-0.39488 0.246573,-0.87751 z m 9.827076,0.41567 c 0,-0.25402 0.05655,-0.46185 0.125672,-0.46185 0.06912,0 0.0943,0.20783 0.05594,0.46185 -0.03835,0.25401 -0.0949,0.46184 -0.125673,0.46184 -0.03077,0 -0.05594,-0.20783 -0.05594,-0.46184 z m 47.671971,0.10717 c -0.06347,-0.30728 -0.04448,-0.37941 0.06379,-0.24232 0.08479,0.10735 0.125449,0.30423 0.09036,0.43751 -0.03643,0.13836 -0.102564,0.0546 -0.154157,-0.19519 z m -25.443945,-0.11514 c -0.04752,-0.15679 -0.0538,-0.32635 -0.01395,-0.37681 0.03985,-0.0505 0.107468,0.0778 0.150271,0.28508 0.09092,0.44022 -0.0101,0.5082 -0.13632,0.0917 z m 94.788407,-0.13508 c 0,-0.26495 0.0683,-0.53517 0.15175,-0.60048 0.0995,-0.0779 0.11758,0.0614 0.0524,0.40475 -0.13429,0.70782 -0.20418,0.77481 -0.20418,0.19573 z m -96.785328,-0.54054 c 0.122886,-0.81678 0.195703,-0.88726 0.195703,-0.18943 0,0.31576 -0.06467,0.62471 -0.143709,0.68656 -0.08979,0.0703 -0.1093,-0.11625 -0.05199,-0.49713 z m 27.207587,0.0829 c 0.0295,-0.0973 0.907186,-1.2912 1.950413,-2.6532 1.043226,-1.362 1.650559,-2.13993 1.349628,-1.72874 -0.300931,0.41119 -0.547147,0.80169 -0.547147,0.86777 0,0.0661 -0.631469,0.92359 -1.403266,1.90558 -0.771796,0.98199 -1.379129,1.70586 -1.349628,1.60859 z M 28.450012,128.7639 c 0.0012,-0.19475 0.06888,-0.47878 0.150338,-0.63119 0.108161,-0.20237 0.121698,-0.12764 0.05019,0.27711 -0.120004,0.67927 -0.203514,0.82672 -0.200532,0.35408 z m 21.591821,0.0154 c 0,-0.1524 0.0258,-0.2771 0.05734,-0.2771 0.03154,0 0.09513,0.1247 0.141326,0.2771 0.04619,0.15241 0.02039,0.27711 -0.05734,0.27711 -0.07773,0 -0.141327,-0.1247 -0.141326,-0.27711 z m 91.045207,-0.0924 c 0,-0.10161 0.10236,-0.18474 0.22747,-0.18474 0.1251,0 0.18689,0.0831 0.13729,0.18474 -0.0496,0.1016 -0.15196,0.18473 -0.22747,0.18473 -0.0755,0 -0.13729,-0.0831 -0.13729,-0.18473 z m 4.37717,-0.42016 c 0,-0.26495 0.0683,-0.53517 0.15175,-0.60048 0.0995,-0.0779 0.11758,0.0614 0.0524,0.40476 -0.13429,0.70781 -0.20418,0.7748 -0.20418,0.19572 z M 48.671821,127.8556 c 0.120004,-0.67927 0.203514,-0.82673 0.200532,-0.35408 -0.0012,0.19474 -0.06888,0.47878 -0.150338,0.63119 -0.108161,0.20237 -0.121698,0.12764 -0.05019,-0.27711 z m 1.0782,0.27711 c 0,-0.10161 0.06566,-0.18474 0.145906,-0.18474 0.08025,0 0.145906,0.0831 0.145906,0.18474 0,0.10161 -0.06566,0.18474 -0.145906,0.18474 -0.08025,0 -0.145906,-0.0831 -0.145906,-0.18474 z M 28.73959,127.05507 c 0,-0.32176 0.06691,-0.58501 0.148685,-0.58501 0.08827,0 0.109571,0.20644 0.05243,0.50803 -0.137421,0.72528 -0.201113,0.74966 -0.201113,0.077 z m 113.45196,0.35962 c -0.044,-0.0901 0.0101,-0.25848 0.12025,-0.3742 0.15416,-0.16198 0.22092,-0.14207 0.29021,0.0865 0.0495,0.16331 0.09,0.3317 0.09,0.37419 0,0.14861 -0.42123,0.0758 -0.50045,-0.0865 z m 3.60968,-1.037 c 8.2e-4,-0.60964 0.0281,-0.83676 0.0605,-0.50472 0.0325,0.33204 0.0318,0.83083 -0.001,1.10843 -0.0333,0.2776 -0.0599,0.006 -0.059,-0.60371 z m -126.306467,0.55422 c 0.04619,-0.15241 0.109788,-0.27711 0.141326,-0.27711 0.03154,0 0.05734,0.1247 0.05734,0.27711 0,0.15241 -0.0636,0.27711 -0.141327,0.27711 -0.07773,0 -0.103534,-0.1247 -0.05734,-0.27711 z m 30.013796,-0.008 c -0.04752,-0.15679 -0.0538,-0.32635 -0.01395,-0.3768 0.03985,-0.0505 0.107468,0.0778 0.150271,0.28507 0.09092,0.44022 -0.0101,0.5082 -0.136319,0.0917 z m -0.544961,-0.59243 c 0.144263,-0.77499 0.297666,-0.86709 0.230477,-0.13839 -0.03278,0.35553 -0.119328,0.64642 -0.192325,0.64642 -0.073,0 -0.09017,-0.22862 -0.03815,-0.50803 z M 29.031401,125.6804 c 0,-0.26495 0.06829,-0.53517 0.151754,-0.60049 0.09954,-0.0779 0.117576,0.0614 0.05243,0.40476 -0.134294,0.70781 -0.204182,0.77481 -0.204182,0.19573 z m -8.81206,-0.27949 c 0.150124,-0.334 0.297932,-0.51239 0.328464,-0.39642 0.03053,0.11597 -0.0923,0.38925 -0.272952,0.60728 l -0.328463,0.39641 z"
         id="path18" /><path
         style="fill:#e47e10"
         d="m 16.483505,145.08864 c 0,-0.67271 -0.06743,-1.25081 -0.149958,-1.28564 -0.09361,-0.0395 -0.151849,-1.11975 -0.154992,-2.87506 -0.0028,-1.54646 -0.0666,-2.85994 -0.141853,-2.91882 -0.186082,-0.14562 -0.177432,-3.04108 0.0091,-3.04108 0.08025,0 0.145906,-0.16626 0.145906,-0.36948 0,-0.20321 0.06566,-0.36947 0.145906,-0.36947 0.08025,0 0.145906,-0.11581 0.145906,-0.25735 0,-0.14154 0.102648,-0.30721 0.228106,-0.36817 0.125459,-0.061 0.183384,-0.20245 0.128722,-0.31444 -0.05466,-0.11198 0.02803,-0.42431 0.183754,-0.69407 0.155726,-0.26976 0.376459,-0.76065 0.490518,-1.09087 0.114059,-0.33022 0.25701,-0.6004 0.317669,-0.6004 0.06066,0 0.110288,-0.1247 0.110288,-0.27711 0,-0.15241 0.06566,-0.27711 0.145906,-0.27711 0.08025,0 0.145906,-0.1247 0.145906,-0.2771 0,-0.15241 0.05017,-0.27711 0.111487,-0.27711 0.06132,0 0.226631,-0.33652 0.367365,-0.74783 0.140733,-0.4113 0.320365,-0.69735 0.399183,-0.63568 0.07882,0.0617 0.148184,0.0449 0.154148,-0.0373 0.04328,-0.59661 0.165445,-1.08269 0.285188,-1.13473 0.07793,-0.0339 0.141687,-0.22092 0.141687,-0.41567 0,-0.19474 0.06566,-0.35408 0.145905,-0.35408 0.08025,0 0.145906,-0.0974 0.145906,-0.21638 0,-0.119 0.113206,-0.37476 0.251569,-0.56834 0.138363,-0.19358 0.318921,-0.61579 0.401241,-0.93824 l 0.149672,-0.58627 4.351223,-0.049 4.351224,-0.0489 -0.09988,0.41843 c -0.05493,0.23014 -0.158156,0.49741 -0.229385,0.59393 -0.07123,0.0965 -0.129507,0.44984 -0.129507,0.78514 0,0.3353 -0.05905,0.60964 -0.131214,0.60964 -0.07217,0 -0.167613,0.35331 -0.2121,0.78514 -0.159996,1.55302 -0.274434,2.17068 -0.402178,2.17068 -0.07147,0 -0.129942,0.33253 -0.129942,0.73895 0,0.40643 -0.06566,0.73896 -0.145906,0.73896 -0.08025,0 -0.145906,0.33253 -0.145906,0.73895 0,0.40643 -0.06566,0.73896 -0.145906,0.73896 -0.08025,0 -0.145905,0.28606 -0.145905,0.63568 0,0.34963 -0.06566,0.68706 -0.145906,0.74986 -0.08025,0.0628 -0.147994,0.33788 -0.150546,0.6113 -0.0026,0.27342 -0.09192,0.64271 -0.198593,0.82064 -0.106674,0.17793 -0.162589,0.53124 -0.124256,0.78514 0.04068,0.26941 0.0019,0.46163 -0.09322,0.46163 -0.09239,0 -0.162915,0.31517 -0.162915,0.72805 0,0.40043 -0.06566,0.77943 -0.145906,0.84223 -0.08025,0.0628 -0.145906,0.40023 -0.145906,0.74986 0,0.34962 -0.06566,0.63568 -0.145905,0.63568 -0.08025,0 -0.145906,0.33253 -0.145906,0.73895 0,0.40643 -0.06566,0.73896 -0.145906,0.73896 -0.08025,0 -0.145906,0.31867 -0.145906,0.70816 0,0.38949 -0.04625,0.76673 -0.102787,0.83831 -0.05653,0.0716 -0.126244,0.35562 -0.154912,0.63119 -0.02867,0.27558 -0.113729,0.58002 -0.189024,0.67655 -0.0753,0.0965 -0.1369,0.44493 -0.1369,0.77424 0,0.3293 -0.06566,0.65011 -0.145906,0.71291 -0.08025,0.0628 -0.145875,0.25475 -0.145838,0.42656 6.1e-5,0.28295 -0.274931,0.31239 -2.918025,0.31239 -2.695759,0 -3.164669,-0.0625 -2.772368,-0.36948 0.08025,-0.0628 0.145906,-0.40023 0.145906,-0.74985 0,-0.34963 0.06566,-0.63569 0.145906,-0.63569 0.08025,0 0.145906,-0.33253 0.145906,-0.73895 0,-0.40643 0.06566,-0.73896 0.145905,-0.73896 0.08025,0 0.145906,-0.33253 0.145906,-0.73895 0,-0.40643 0.06566,-0.73896 0.145906,-0.73896 0.08025,0 0.145906,-0.33253 0.145906,-0.73895 0,-0.40643 0.06566,-0.73895 0.145906,-0.73895 0.08025,0 0.145905,-0.28556 0.145905,-0.63456 0,-0.34901 0.0675,-0.85933 0.149988,-1.13406 0.08249,-0.27472 0.106334,-0.55031 0.05298,-0.61242 -0.05336,-0.0621 -0.124298,-0.0167 -0.15765,0.10091 -0.03335,0.11761 -0.188507,0.40051 -0.344789,0.62866 -0.156282,0.22816 -0.28415,0.52681 -0.28415,0.66367 0,0.13686 -0.06566,0.24884 -0.145906,0.24884 -0.08025,0 -0.145905,0.16627 -0.145905,0.36948 0,0.20321 -0.05126,0.36948 -0.113918,0.36948 -0.06265,0 -0.191586,0.22861 -0.286514,0.50803 -0.167952,0.49436 -0.473283,1.15274 -0.621141,1.33935 -0.04025,0.0508 -0.166248,0.32099 -0.279991,0.6004 -0.113742,0.27942 -0.261367,0.50803 -0.328055,0.50803 -0.06669,0 -0.121251,0.15934 -0.121251,0.35409 0,0.19474 -0.04924,0.38179 -0.109429,0.41566 -0.06019,0.0339 -0.330645,0.60194 -0.601019,1.26238 -0.693649,1.69437 -0.748609,1.71855 -0.748609,0.32945 z m 1.094293,-12.15273 c -0.0496,-0.1016 -0.151957,-0.18473 -0.22747,-0.18473 -0.07551,0 -0.137295,0.0831 -0.137295,0.18473 0,0.10161 0.102362,0.18474 0.22747,0.18474 0.125108,0 0.186891,-0.0831 0.137295,-0.18474 z m 9.702734,0 c 0,-0.1016 -0.06566,-0.18473 -0.145906,-0.18473 -0.08025,0 -0.145906,0.0831 -0.145906,0.18473 0,0.10161 0.06566,0.18474 0.145906,0.18474 0.08025,0 0.145906,-0.0831 0.145906,-0.18474 z m 20.682144,12.97399 c -2.428045,-0.0422 -2.881639,-0.0931 -2.881639,-0.32329 0,-0.15026 0.06566,-0.2732 0.145905,-0.2732 0.08025,0 0.145906,-0.28606 0.145906,-0.63569 0,-0.34962 0.06566,-0.68706 0.145906,-0.74985 0.08025,-0.0628 0.145906,-0.39533 0.145906,-0.73896 0,-0.34363 0.06566,-0.67616 0.145906,-0.73895 0.08025,-0.0628 0.145905,-0.35376 0.145905,-0.64659 0,-0.29283 0.06566,-0.58379 0.145906,-0.64658 0.08025,-0.0628 0.145906,-0.39533 0.145906,-0.73896 0,-0.34363 0.06566,-0.67616 0.145906,-0.73895 0.08025,-0.0628 0.145905,-0.40024 0.145905,-0.74986 0,-0.34963 0.06566,-0.63568 0.145906,-0.63568 0.08025,0 0.145906,-0.32561 0.145906,-0.72356 0,-0.39968 0.07859,-0.75673 0.175576,-0.79767 0.09849,-0.0416 0.16889,-0.37278 0.160347,-0.75435 -0.0084,-0.37413 0.04393,-0.68024 0.116236,-0.68024 0.07231,0 0.131464,-0.33253 0.131464,-0.73896 0,-0.40642 0.06566,-0.73895 0.145906,-0.73895 0.08025,0 0.145906,-0.33253 0.145906,-0.73896 0,-0.40642 0.06566,-0.73895 0.145905,-0.73895 0.08025,0 0.145906,-0.28606 0.145906,-0.63568 0,-0.34963 0.06566,-0.68707 0.145906,-0.74986 0.08025,-0.0628 0.145906,-0.35376 0.145906,-0.64659 0,-0.29282 0.05872,-0.57836 0.130493,-0.63452 0.07177,-0.0562 0.167738,-0.41438 0.21326,-0.79604 0.195217,-1.63672 0.278785,-2.07947 0.392494,-2.07947 0.06638,0 0.144247,-0.27018 0.173029,-0.6004 l 0.05233,-0.6004 0.11598,0.55421 c 0.06379,0.30482 0.202404,0.7963 0.308033,1.09217 0.105628,0.29587 0.158339,0.64918 0.117135,0.78514 -0.0412,0.13595 -0.0022,0.24719 0.0866,0.24719 0.08883,0 0.161516,0.16626 0.161516,0.36948 0,0.20321 0.06566,0.36947 0.145906,0.36947 0.08025,0 0.145906,0.1674 0.145906,0.37199 0,0.20459 0.058,0.51633 0.128882,0.69277 0.07089,0.17643 0.209861,0.57018 0.308835,0.875 0.09897,0.30482 0.226908,0.67891 0.284299,0.83132 0.05739,0.15241 0.195381,0.67199 0.306642,1.15462 0.111262,0.48263 0.253618,0.87751 0.316347,0.87751 0.06273,0 0.114052,0.16739 0.114052,0.37198 0,0.20459 0.06566,0.53712 0.145906,0.73896 0.08025,0.20183 0.211563,0.5321 0.291812,0.73394 0.08025,0.20183 0.145905,0.53436 0.145905,0.73895 0,0.20459 0.06566,0.37199 0.145906,0.37199 0.08025,0 0.145906,0.16626 0.145906,0.36947 0,0.20322 -0.06566,0.36948 -0.145906,0.36948 -0.08025,0 -0.145906,0.32762 -0.145906,0.72805 0,0.40043 -0.06566,0.77943 -0.145905,0.84223 -0.08025,0.0628 -0.145906,0.39533 -0.145906,0.73895 0,0.34363 -0.06566,0.67616 -0.145906,0.73896 -0.08025,0.0628 -0.145906,0.3836 -0.145906,0.71291 0,0.3293 -0.07574,0.69463 -0.168302,0.81183 -0.09257,0.1172 -0.162616,0.46636 -0.155665,0.7759 0.007,0.30955 -0.04863,0.56281 -0.123509,0.56281 -0.07488,0 -0.136147,0.33253 -0.136147,0.73895 0,0.40643 -0.0615,0.73896 -0.136661,0.73896 -0.07516,0 -0.157236,0.22861 -0.182382,0.50803 l -0.04572,0.50803 z m 0.137587,-13.10902 c -0.03699,-0.17975 -0.06969,-0.0774 -0.07267,0.2274 -0.003,0.30482 0.02729,0.45189 0.06726,0.32681 0.03997,-0.12507 0.0424,-0.37447 0.0054,-0.55421 z m 91.212707,12.65108 c -0.11146,-0.22861 -0.29946,-0.66506 -0.41778,-0.96988 -0.11833,-0.30482 -0.24807,-0.59578 -0.28832,-0.64658 -0.0402,-0.0508 -0.20945,-0.4249 -0.37599,-0.83133 -0.40071,-0.97786 -0.70109,-1.64143 -0.79446,-1.75502 -0.19045,-0.23171 -0.41644,-1.10843 -0.28571,-1.10843 0.0785,0 0.14278,-0.20783 0.14278,-0.46184 0,-0.25402 0.13725,-0.63563 0.305,-0.84803 0.25196,-0.31902 0.42324,-0.36846 0.98486,-0.28427 1.46954,0.22029 1.99865,0.34555 2.13163,0.50463 0.0762,0.0912 0.42094,0.16582 0.766,0.16582 0.34507,0 0.6274,0.0831 0.6274,0.18474 0,0.1016 0.24293,0.18474 0.53985,0.18474 0.41988,0 0.50094,0.0493 0.36476,0.22168 -0.0963,0.12193 -0.17508,0.49603 -0.17508,0.83133 0,0.3353 -0.0657,0.60963 -0.14591,0.60963 -0.0803,0 -0.14591,0.25053 -0.14591,0.55673 0,0.30619 -0.058,0.70107 -0.12888,0.87751 -0.0709,0.17643 -0.21861,0.56902 -0.32829,0.87241 -0.36632,1.01341 -1.06798,1.94234 -1.46711,1.94234 -0.14537,0 -0.2643,0.0831 -0.2643,0.18474 0,0.37821 -0.83786,0.19298 -1.04454,-0.23092 z m 2.94131,-3.14508 c 0,-0.3725 -0.36791,0.0218 -0.40553,0.43465 -0.0395,0.43324 -0.0337,0.43605 0.18239,0.0888 0.12273,-0.19723 0.22314,-0.43277 0.22314,-0.52343 z m -3.35583,0.23545 c 0,-0.10161 -0.0985,-0.18474 -0.21886,-0.18474 -0.12037,0 -0.21886,0.0831 -0.21886,0.18474 0,0.1016 0.0985,0.18473 0.21886,0.18473 0.12037,0 0.21886,-0.0831 0.21886,-0.18473 z m 4.4017,-4.20281 c -0.0135,-0.12701 -0.11681,-0.23092 -0.2296,-0.23092 -0.243,0 -1.45143,-0.77032 -1.52148,-0.96988 -0.0267,-0.0762 -0.14286,-0.13855 -0.25802,-0.13855 -0.3968,0 -1.63306,-0.94319 -1.70728,-1.30255 -0.0874,-0.4231 0.0295,-1.09906 0.19011,-1.09906 0.0615,0 0.14622,-0.16626 0.18819,-0.36947 0.0551,-0.26667 0.19901,-0.36948 0.51726,-0.36948 0.24253,0 0.53944,-0.1247 0.65982,-0.27711 0.12037,-0.15241 0.29009,-0.27711 0.37716,-0.27711 0.0871,0 0.28873,-0.0831 0.44814,-0.18474 0.15941,-0.1016 0.42026,-0.26787 0.57966,-0.36947 0.15941,-0.10161 0.45487,-0.18474 0.65658,-0.18474 0.20171,0 0.36675,-0.0831 0.36675,-0.18474 0,-0.10161 0.12744,-0.18474 0.2832,-0.18474 0.15576,0 0.32378,-0.0831 0.37337,-0.18474 0.0496,-0.10161 0.18315,-0.18474 0.29678,-0.18474 0.15477,0 0.18341,0.1506 0.11416,0.6004 -0.0508,0.33022 -0.14768,0.62811 -0.21521,0.66198 -0.0675,0.0339 -0.12278,0.38718 -0.12278,0.78514 0,0.39796 -0.0657,0.72356 -0.1459,0.72356 -0.0803,0 -0.14591,0.2494 -0.14591,0.55422 0,0.30482 -0.0657,0.55421 -0.1459,0.55421 -0.0803,0 -0.14591,0.33253 -0.14591,0.73896 0,0.40642 -0.0617,0.73895 -0.1371,0.73895 -0.0754,0 -0.16285,0.31175 -0.19433,0.69277 -0.0315,0.38103 -0.0683,0.58886 -0.0818,0.46185 z m 0.0329,-1.26242 c 0.0545,-0.17992 0.0219,-0.26438 -0.0847,-0.21938 -0.21811,0.0921 -0.3382,0.51192 -0.14642,0.51192 0.0784,0 0.18235,-0.13164 0.23112,-0.29254 z m -0.34926,-3.95645 c 0,-0.1016 -0.0657,-0.18474 -0.1459,-0.18474 -0.0803,0 -0.14591,0.0831 -0.14591,0.18474 0,0.10161 0.0657,0.18474 0.14591,0.18474 0.0802,0 0.1459,-0.0831 0.1459,-0.18474 z m -65.767026,0.40264 c -0.180559,-0.48153 -0.328288,-0.98289 -0.328288,-1.11412 0,-0.13123 -0.09909,-0.36406 -0.2202,-0.51741 -0.12111,-0.15334 -0.182893,-0.35523 -0.137295,-0.44865 0.0456,-0.0934 0.01337,-0.16984 -0.07161,-0.16984 -0.08498,0 -0.154516,-0.16627 -0.154516,-0.36948 0,-0.20321 -0.06566,-0.36948 -0.145906,-0.36948 -0.08025,0 -0.145906,-0.12582 -0.145906,-0.27961 0,-0.15379 -0.0773,-0.43634 -0.171781,-0.62789 -0.151407,-0.30697 -0.01296,-0.54842 1.167246,-2.03563 0.736465,-0.92805 1.339027,-1.74386 1.339027,-1.81291 0,-0.0691 0.276301,-0.48201 0.614002,-0.91768 l 0.614002,-0.79213 2.924213,9.5e-4 2.924214,9.5e-4 -0.911912,1.10396 c -0.501551,0.60717 -0.911911,1.17289 -0.911911,1.25714 0,0.0842 -0.689404,1.01215 -1.53201,2.062 -0.842606,1.04985 -1.532011,1.9478 -1.532011,1.99544 0,0.0476 -0.67299,0.94686 -1.495534,1.99827 l -1.495534,1.91165 z m -0.184617,-2.75805 c -0.0053,-0.32843 -0.254837,-0.63629 -0.352903,-0.43539 -0.05489,0.11245 -0.05922,0.28759 -0.0096,0.3892 0.105181,0.21548 0.365796,0.24868 0.36253,0.0462 z m 62.304003,0.81298 c 0,-0.15079 -0.0821,-0.30905 -0.18238,-0.3517 -0.36089,-0.15342 0.22681,-1.05567 2.6641,-4.08997 2.65821,-3.30934 2.7501,-3.37137 3.56965,-2.40969 0.32109,0.37678 0.36848,0.58655 0.36848,1.63111 0,0.65929 -0.0657,1.2501 -0.1459,1.31289 -0.0803,0.0628 -0.14591,0.38361 -0.14591,0.71291 0,0.32931 -0.061,0.67771 -0.1355,0.77424 -0.0745,0.0965 -0.1566,0.46646 -0.18239,0.82209 -0.0465,0.64105 -0.0534,0.64706 -0.81288,0.70242 -0.4213,0.0307 -0.766,0.12693 -0.766,0.21383 0,0.0869 -0.34471,0.20202 -0.76601,0.25585 -1.21471,0.1552 -2.86446,0.45874 -3.17794,0.58472 -0.19772,0.0795 -0.28732,0.03 -0.28732,-0.1587 z m 0.6201,-0.24256 c -0.10031,-0.0512 -0.26446,-0.0512 -0.36477,0 -0.10031,0.0513 -0.0182,0.0932 0.18238,0.0932 0.20063,0 0.2827,-0.0419 0.18239,-0.0932 z m 1.49553,-2.64873 c 0.0496,-0.10161 -0.0122,-0.18474 -0.13729,-0.18474 -0.12511,0 -0.22747,0.0831 -0.22747,0.18474 0,0.1016 0.0618,0.18473 0.13729,0.18473 0.0755,0 0.17788,-0.0831 0.22747,-0.18473 z m 1.2402,-1.1857 c 0,-0.0425 -0.0405,-0.21088 -0.09,-0.37419 -0.0693,-0.22862 -0.13605,-0.24853 -0.29021,-0.0865 -0.23086,0.2426 -0.13755,0.538 0.16995,0.538 0.11564,0 0.21025,-0.0348 0.21025,-0.0773 z"
         id="path17" /><path
         style="fill:#304b7d"
         d="m 112.38008,146.09872 c 1.82564,-0.0293 4.81306,-0.0293 6.63871,0 1.82564,0.0293 0.33193,0.0533 -3.31936,0.0533 -3.65129,0 -5.145,-0.024 -3.31935,-0.0533 z m 21.46447,-1.2e-4 c 4.94444,-0.0481 5.22151,-0.0686 5.03375,-0.37189 -0.17977,-0.29035 -0.17438,-0.29678 0.0566,-0.0674 0.14043,0.13945 0.25533,0.3265 0.25533,0.41566 0,0.0908 -2.32602,0.14287 -5.28908,0.11834 l -5.28909,-0.0438 z m 16.83579,3e-5 c 2.7485,-0.0281 7.24605,-0.0281 9.99455,0 2.7485,0.0281 0.49972,0.0511 -4.99728,0.0511 -5.497,0 -7.74577,-0.023 -4.99727,-0.0511 z m 21.9664,6.3e-4 c 0.78659,-0.0333 2.03408,-0.0331 2.77221,3.2e-4 0.73813,0.0335 0.0945,0.0607 -1.43016,0.0605 -1.52472,-1.7e-4 -2.12864,-0.0275 -1.34205,-0.0608 z m 6.71167,0 c 0.78658,-0.0333 2.03408,-0.0331 2.7722,3.2e-4 0.73813,0.0335 0.0946,0.0607 -1.43015,0.0605 -1.52472,-1.7e-4 -2.12864,-0.0275 -1.34205,-0.0608 z m 10.06749,0 c 0.78659,-0.0333 2.03409,-0.0331 2.77221,3.2e-4 0.73813,0.0335 0.0946,0.0607 -1.43016,0.0605 -1.52471,-1.7e-4 -2.12863,-0.0275 -1.34205,-0.0608 z M 15.619589,145.0209 c 0.007,-0.21521 0.04157,-0.25898 0.08815,-0.11161 0.04215,0.13336 0.03697,0.29269 -0.01152,0.35408 -0.04848,0.0614 -0.08297,-0.0477 -0.07663,-0.24247 z m 28.30572,-0.18474 c 0.007,-0.21521 0.04158,-0.25898 0.08815,-0.11161 0.04215,0.13336 0.03696,0.2927 -0.01152,0.35408 -0.04848,0.0614 -0.08297,-0.0477 -0.07663,-0.24247 z m 93.281361,-1.04685 -0.27795,-0.41566 0.32829,0.35192 c 0.30851,0.33073 0.39471,0.4794 0.27795,0.4794 -0.0277,0 -0.17542,-0.18704 -0.32829,-0.41566 z M 15.473683,142.24982 c 0.007,-0.21521 0.04157,-0.25898 0.08815,-0.11161 0.04215,0.13336 0.03697,0.29269 -0.01152,0.35408 -0.04848,0.0614 -0.08297,-0.0477 -0.07663,-0.24247 z m 28.305721,-0.18474 c 0.007,-0.21521 0.04157,-0.25898 0.08815,-0.11161 0.04215,0.13336 0.03696,0.2927 -0.01152,0.35408 -0.04848,0.0614 -0.08297,-0.0477 -0.07663,-0.24247 z m 66.203846,0.0664 c 0.0582,-0.0735 2.34973,-0.15667 5.09238,-0.18474 2.74266,-0.0281 4.93907,0.009 4.88092,0.0827 -0.0581,0.0735 -2.34972,0.15667 -5.09238,0.18474 -2.74265,0.0281 -4.93907,-0.009 -4.88092,-0.0827 z m 43.24073,-0.0969 c 1.57955,-0.0298 4.20586,-0.0299 5.83623,-9e-5 1.63037,0.0298 0.338,0.0541 -2.87193,0.0542 -3.20992,5e-5 -4.54386,-0.0243 -2.9643,-0.0541 z m -17.99179,-0.55449 c -0.18148,-0.29301 -0.17632,-0.29954 0.0551,-0.0697 0.24304,0.24134 0.32034,0.39304 0.20025,0.39304 -0.0303,0 -0.1452,-0.14548 -0.25534,-0.32329 z M 9.4915463,141.32613 c 0.007,-0.21521 0.041574,-0.25899 0.088151,-0.11161 0.042148,0.13335 0.036964,0.29269 -0.011519,0.35408 -0.048483,0.0614 -0.082968,-0.0477 -0.076632,-0.24247 z m 124.0005337,-1.87818 -0.50281,-0.69277 0.54714,0.63664 c 0.50928,0.59257 0.61424,0.7489 0.50282,0.7489 -0.0244,0 -0.2706,-0.31174 -0.54715,-0.69277 z M 15.327777,139.10926 c 0.007,-0.21521 0.04157,-0.25898 0.08815,-0.11161 0.04215,0.13336 0.03696,0.2927 -0.01152,0.35408 -0.04848,0.0614 -0.08297,-0.0477 -0.07663,-0.24247 z m 161.262243,-0.90829 c 6.5e-4,-0.71125 0.027,-0.97957 0.0586,-0.59628 0.0316,0.38329 0.0311,0.96521 -0.001,1.29317 -0.0322,0.32795 -0.0581,0.0143 -0.0574,-0.69689 z m -132.956522,0.72356 c 0.007,-0.21521 0.04157,-0.25899 0.08815,-0.11162 0.04215,0.13336 0.03697,0.2927 -0.01152,0.35409 -0.04848,0.0614 -0.08297,-0.0477 -0.07663,-0.24247 z m 142.285092,-0.0248 c 0.22179,-0.0425 0.55008,-0.0413 0.72953,0.003 0.17946,0.0438 -0.002,0.0786 -0.40325,0.0772 -0.40124,-0.001 -0.54806,-0.0373 -0.32628,-0.0797 z m -14.76344,-0.8989 c 0.007,-0.21521 0.0416,-0.25898 0.0882,-0.11161 0.0421,0.13336 0.037,0.2927 -0.0115,0.35408 -0.0485,0.0614 -0.083,-0.0477 -0.0766,-0.24247 z M 15.181872,136.33818 c 0.007,-0.21521 0.04157,-0.25898 0.08815,-0.11161 0.04215,0.13336 0.03696,0.2927 -0.01152,0.35408 -0.04848,0.0614 -0.08297,-0.0477 -0.07663,-0.24247 z m 28.30572,-0.18473 c 0.007,-0.21521 0.04157,-0.25899 0.08815,-0.11162 0.04215,0.13336 0.03696,0.2927 -0.01152,0.35409 -0.04848,0.0614 -0.08297,-0.0477 -0.07663,-0.24247 z m -5.982137,-0.73896 c 0.007,-0.21521 0.04158,-0.25898 0.08815,-0.11161 0.04215,0.13336 0.03696,0.29269 -0.01152,0.35408 -0.04848,0.0614 -0.08297,-0.0477 -0.07663,-0.24247 z m 148.928605,-0.4825 c 0.0564,-0.0706 1.00236,-0.15376 2.10203,-0.18474 1.09967,-0.031 1.95322,0.001 1.89677,0.0721 -0.0564,0.0706 -1.00235,0.15376 -2.10203,0.18474 -1.09967,0.031 -1.95322,-0.001 -1.89677,-0.0721 z M 14.901579,130.53431 c 0,-0.25401 0.03312,-0.35793 0.07359,-0.23092 0.04048,0.12701 0.04048,0.33484 0,0.46185 -0.04048,0.127 -0.07359,0.0231 -0.07359,-0.23093 z m 28.30572,-0.18474 c 0,-0.25401 0.03312,-0.35793 0.07359,-0.23092 0.04048,0.12701 0.04048,0.33484 0,0.46185 -0.04048,0.127 -0.07359,0.0231 -0.07359,-0.23093 z m 133.211971,-2.21686 c 0,-0.25402 0.0331,-0.35793 0.0736,-0.23092 0.0405,0.127 0.0405,0.33483 0,0.46184 -0.0405,0.12701 -0.0736,0.0231 -0.0736,-0.23092 z m -0.91708,-3.27911 c -0.18149,-0.29301 -0.17633,-0.29954 0.0551,-0.0697 0.14043,0.13945 0.25533,0.28493 0.25533,0.32329 0,0.15205 -0.11981,0.0542 -0.31042,-0.25354 z M 14.598248,124.69965 c 0.007,-0.21521 0.04157,-0.25899 0.08815,-0.11161 0.04215,0.13335 0.03696,0.29269 -0.01152,0.35408 -0.04848,0.0614 -0.08297,-0.0477 -0.07663,-0.24247 z M 118.59019,124.127 c 0.10533,-0.0534 0.23117,-0.0468 0.27965,0.0146 0.0485,0.0614 -0.0377,0.10505 -0.1915,0.097 -0.16997,-0.009 -0.20454,-0.0526 -0.0881,-0.11161 z m 82.59142,-1.12079 c -0.18149,-0.293 -0.17633,-0.29954 0.0551,-0.0697 0.14044,0.13945 0.25534,0.28493 0.25534,0.32329 0,0.15205 -0.11982,0.0542 -0.31042,-0.25354 z m 1.88061,-3.3174 c 0.18149,-0.0442 0.44412,-0.0425 0.58362,0.004 0.1395,0.0462 -0.009,0.0824 -0.32999,0.0803 -0.32099,-0.002 -0.43513,-0.0399 -0.25363,-0.0841 z m -0.14761,-2.58932 c 0.26081,-0.041 0.68758,-0.041 0.94839,0 0.2608,0.041 0.0474,0.0745 -0.4742,0.0745 -0.52161,0 -0.735,-0.0335 -0.47419,-0.0745 z"
         id="path16" /><path
         style="fill:#014391"
         d="m 1.6011155,145.84374 c 0,-0.11474 0.2872243,-1.59034 0.6382761,-3.27911 0.3510519,-1.68877 0.8832982,-4.27591 1.1827697,-5.7492 0.2994714,-1.47329 0.8264834,-4.0504 1.1711377,-5.7269 0.3446543,-1.67651 0.8071779,-3.94186 1.0278303,-5.03413 l 0.4011861,-1.98594 h 4.2717086 4.271708 l 0.08579,0.96988 c 0.04719,0.53343 0.151604,2.38313 0.232038,4.11043 0.38762,8.32407 0.723273,15.05692 0.794344,15.93371 l 0.07862,0.96988 H 12.764182 9.7718389 l -0.00226,-0.41566 c -0.00885,-1.62928 -0.425398,-8.34138 -0.5109407,-8.23307 -0.027388,0.0347 -0.3551922,1.55838 -0.7284538,3.38601 -0.3732616,1.82763 -0.7765077,3.75941 -0.8961023,4.29284 L 7.41664,146.05236 H 4.5088778 c -2.0631332,0 -2.9077623,-0.0606 -2.9077623,-0.20862 z m 24.8566765,-0.85363 c 0.45185,-1.0114 1.164024,-2.56716 5.052861,-11.03813 0.932904,-2.03213 2.184768,-4.76048 2.781919,-6.063 0.597152,-1.30252 1.226782,-2.67421 1.399178,-3.04819 l 0.313447,-0.67996 2.210067,-0.051 c 1.230293,-0.0284 2.462916,0.0352 2.780416,0.14341 0.763993,0.26047 1.359976,0.92812 1.738384,1.9474 0.34923,0.9407 0.402068,1.63891 0.880175,11.63089 0.160439,3.35301 0.329561,6.57439 0.375827,7.15862 l 0.08412,1.06225 h -2.998314 -2.998314 v -0.61949 c 0,-0.34071 -0.04199,-1.12814 -0.09331,-1.74983 l -0.09331,-1.13035 -1.854718,-0.0514 -1.854719,-0.0514 0.890212,-1.97925 0.890212,-1.97924 0.838958,-0.007 0.838958,-0.007 -0.0084,-1.52409 c -0.0046,-0.83825 -0.05437,-1.85182 -0.110535,-2.25238 l -0.102127,-0.72829 -0.929439,2.02146 c -1.850825,4.0254 -2.898216,6.30624 -3.747297,8.16025 l -0.865472,1.8898 -2.946669,0.004 -2.94667,0.004 z m 29.406639,0.55422 c -0.258706,-0.86289 -2.275772,-7.4914 -3.66811,-12.0542 -0.72862,-2.38775 -1.669334,-5.48609 -2.090475,-6.88521 l -0.76571,-2.54385 3.010166,0.0499 3.010166,0.0499 1.456511,4.84939 c 0.801081,2.66716 1.495139,4.84939 1.54235,4.84939 0.07904,0 0.373165,-1.36113 1.626765,-7.5281 l 0.460025,-2.26305 h 2.955683 2.955684 l -1.008296,4.94176 c -0.554563,2.71797 -1.503666,7.39416 -2.109118,10.39155 -0.605453,2.99738 -1.168701,5.71997 -1.251662,6.05019 l -0.15084,0.6004 h -2.910411 -2.910412 z m 13.145153,0.27988 c 0,-0.19382 0.961657,-4.99639 1.889192,-9.43475 l 0.262751,-1.25729 -1.951406,-5.42924 c -1.073274,-2.98608 -1.951406,-5.47541 -1.951406,-5.53185 0,-0.0564 1.329566,-0.10259 2.954591,-0.10255 l 2.954592,8e-5 0.718218,1.98586 c 0.85521,2.36465 1.381328,3.8317 2.420221,6.74863 0.729074,2.04704 0.766298,2.22275 0.626195,2.95582 -0.119402,0.62475 -1.116368,5.51936 -1.955524,9.60067 l -0.142441,0.69277 h -2.912491 c -2.213864,0 -2.912492,-0.0547 -2.912492,-0.22815 z m 14.492161,-0.0414 c -0.649655,-0.35779 -0.980309,-1.07785 -0.967452,-2.1068 0.0059,-0.47111 0.384063,-2.68548 0.840393,-4.92082 0.456329,-2.23534 1.22393,-6.01786 1.705782,-8.40561 0.481851,-2.38774 0.974309,-4.7778 1.094351,-5.31123 l 0.218259,-0.96988 h 2.907762 c 1.869011,0 2.907762,0.0669 2.907762,0.18742 0,0.10309 -0.758405,3.89897 -1.685345,8.4353 -0.92694,4.53634 -1.665587,8.46313 -1.64144,8.72622 l 0.0439,0.47834 2.358481,0.0507 2.35848,0.0507 0.150807,-0.6049 c 0.08294,-0.3327 0.552677,-2.60008 1.04385,-5.03863 0.907602,-4.50601 1.227386,-6.06844 2.028901,-9.91302 0.246985,-1.18469 0.449063,-2.20307 0.449063,-2.26305 0,-0.06 1.342442,-0.10905 2.983211,-0.10905 h 2.9832 l -0.22721,0.96873 c -0.12496,0.5328 -0.63816,3.00599 -1.14044,5.49597 -0.96921,4.8047 -2.766822,13.66736 -3.007249,14.82643 l -0.143702,0.69277 -7.399094,-0.007 c -5.962639,-0.006 -7.489016,-0.0568 -7.862275,-0.26233 z m 25.684695,-0.0537 c 0.0398,-0.17781 0.1842,-0.82209 0.32082,-1.43173 0.13661,-0.60964 0.29443,-1.31626 0.35072,-1.57028 l 0.10234,-0.46184 5.00564,-0.0924 5.00564,-0.0924 0.19925,-0.83133 c 0.48783,-2.03526 0.78663,-3.75152 0.70785,-4.06578 -0.0799,-0.31864 -0.34396,-0.34522 -3.98203,-0.40079 -3.53151,-0.0539 -3.93975,-0.0927 -4.35826,-0.41335 -0.53283,-0.40828 -0.77843,-0.98463 -0.77843,-1.82672 0,-1.06162 1.44102,-7.36704 1.85879,-8.13346 0.45234,-0.82983 1.31529,-1.42492 2.73724,-1.88757 0.938,-0.30519 2.0988,-0.338 14.22581,-0.40206 11.30643,-0.0597 13.17301,-0.0327 12.98562,0.18819 -0.12038,0.14186 -1.8603,1.53152 -3.86651,3.08812 -2.0062,1.5566 -4.01743,3.14541 -4.46939,3.53068 -1.96604,1.67596 -2.97972,4.68288 -2.38531,7.07564 0.23176,0.93292 0.41155,1.20199 2.09505,3.13526 1.01285,1.16311 2.3668,2.74203 3.00878,3.50869 l 1.16725,1.39394 -5.5786,0.006 -5.57859,0.006 -0.47649,-0.53945 c -0.766,-0.8672 -0.68596,-1.57669 1.1087,-9.82836 0.85348,-3.92419 1.55177,-7.2287 1.55177,-7.34336 0,-0.15137 -1.61274,-0.20848 -5.88717,-0.20848 h -5.88717 l -0.40556,1.97376 c -0.28572,1.39052 -0.36305,2.05925 -0.26169,2.26305 0.12304,0.24737 0.72785,0.30267 4.17406,0.38166 l 4.03018,0.0924 0.37871,0.47984 c 0.60562,0.76737 0.60552,1.58953 -5.8e-4,4.51652 -0.99916,4.82522 -1.38035,6.14856 -2.00263,6.95238 -0.99856,1.28987 -0.80065,1.26007 -8.36911,1.26007 -6.40569,0 -6.79494,-0.0187 -6.7267,-0.32329 z m 35.5165,-0.21302 c -0.43696,-0.49434 -0.47296,-0.62085 -0.45994,-1.61646 0.009,-0.7223 0.33704,-2.54907 0.98881,-5.51388 0.53608,-2.43856 1.13539,-5.18192 1.3318,-6.09638 0.19641,-0.91446 0.67328,-3.11747 1.05972,-4.89558 l 0.7026,-3.23292 2.70801,-0.0502 2.70801,-0.0502 -0.49816,2.26703 c -0.274,1.24687 -0.72327,3.30619 -0.99839,4.57627 -0.27513,1.27008 -0.89575,4.12056 -1.37917,6.3344 -0.48342,2.21383 -0.87894,4.09916 -0.87894,4.1896 0,0.0905 0.10318,0.29509 0.22928,0.45475 0.20068,0.2541 0.94662,0.29031 5.98007,0.29031 h 5.75078 l 0.34831,-0.69277 c 0.19157,-0.38103 0.90805,-1.93976 1.59218,-3.46385 2.31305,-5.15297 4.37734,-9.78145 5.27315,-11.82328 l 0.89155,-2.03212 2.04104,-0.0564 c 1.16121,-0.0321 2.27107,0.0286 2.57466,0.14083 0.6419,0.2373 1.35804,1.21747 1.5881,2.1736 0.15029,0.62463 0.38684,10.39229 0.42067,17.37048 l 0.011,2.26305 h -2.69926 -2.69926 v -1.75502 -1.75501 h -1.67791 c -0.92286,0 -1.67537,-0.0623 -1.67226,-0.13856 0.003,-0.0762 0.38742,-0.96988 0.85403,-1.98594 l 0.84838,-1.84739 0.78651,-0.0924 0.78652,-0.0924 -0.0495,-2.1245 c -0.0272,-1.16847 -0.0655,-2.14571 -0.085,-2.17163 -0.0328,-0.0436 -0.81935,1.68942 -4.15016,9.14349 l -1.25798,2.81525 -10.24758,0.002 -10.24758,0.002 z m 33.44189,0.0323 c 0.11722,-0.45935 4.02249,-18.52006 4.44487,-20.55622 l 0.17245,-0.83132 6.55626,-0.0546 c 6.7769,-0.0564 7.36493,-0.005 7.8629,0.69206 0.54289,0.75955 0.46102,1.69232 -0.56906,6.48295 -0.58015,2.69811 -1.13618,4.89018 -1.38035,5.44179 -0.49243,1.11247 -1.35239,1.92967 -2.17821,2.06992 -0.3343,0.0568 -0.6077,0.19619 -0.60755,0.30982 1.5e-4,0.11363 0.22995,1.69866 0.51067,3.52229 0.28072,1.82363 0.5104,3.3408 0.5104,3.37148 0,0.12697 -5.39939,0.0444 -5.40911,-0.0828 -0.006,-0.0762 -0.25319,-1.67651 -0.54971,-3.55622 l -0.53912,-3.41767 -0.69048,-0.0563 c -0.37977,-0.031 -0.68838,-0.0725 -0.68579,-0.0924 0.003,-0.0198 0.18857,-0.86739 0.41331,-1.88345 l 0.4086,-1.84739 2.02123,-0.0924 2.02123,-0.0924 0.48552,-2.21686 c 0.80147,-3.65942 0.87159,-4.14931 0.62291,-4.35168 -0.11782,-0.0959 -1.12899,-0.15356 -2.24704,-0.12819 l -2.03281,0.0461 -0.55565,2.58634 c -0.30561,1.42249 -0.65228,3.002 -0.77039,3.51003 -0.24147,1.03873 -1.28466,5.83992 -2.02704,9.32931 l -0.49129,2.30923 -2.71372,0.0502 -2.71371,0.0502 z m 24.14968,-21.63983 c -0.75051,-0.43278 -1.61553,-1.65015 -1.8133,-2.5519 -0.55657,-2.53779 0.47381,-4.77771 2.49351,-5.42058 0.56319,-0.17927 0.82035,-0.16493 1.49488,0.0833 2.55311,0.93975 3.34424,4.73372 1.46301,7.01601 -1.00861,1.22362 -2.43615,1.56622 -3.6381,0.87312 z m 2.68068,-0.66108 c 0.20541,-0.26009 0.19615,-0.28743 -0.0974,-0.28743 -0.25407,0 -0.42587,-0.26044 -0.79211,-1.2008 -0.43389,-1.11409 -0.50228,-1.20081 -0.94702,-1.20081 h -0.47936 v 1.20081 c 0,1.07764 -0.0299,1.2008 -0.29181,1.2008 -0.27926,0 -0.29181,-0.12316 -0.29181,-2.86345 0,-1.5749 -0.0542,-2.86345 -0.12047,-2.86345 -0.21466,0 -0.73522,0.81875 -0.96686,1.52068 -0.61278,1.85691 0.23702,4.14495 1.7709,4.76808 0.58385,0.23718 1.94503,0.0686 2.21597,-0.27443 z m 1.0341,-1.14193 c 0.26184,-0.48671 0.37491,-0.98452 0.41794,-1.84002 0.0509,-1.01303 0.006,-1.28618 -0.32636,-2.0053 -0.69355,-1.49844 -2.25037,-2.18986 -3.53658,-1.57069 -0.60592,0.29168 -0.1773,0.53734 0.94353,0.54078 1.12249,0.003 1.41393,0.18283 1.62735,1.00163 0.13151,0.50451 0.12047,0.76645 -0.0547,1.29719 -0.1207,0.36576 -0.3209,0.71431 -0.4449,0.77456 -0.124,0.0602 -0.22545,0.18503 -0.22545,0.27731 0,0.33623 0.90803,2.19426 1.07175,2.19304 0.0927,-7e-4 0.32998,-0.30152 0.5274,-0.6685 z m -1.67218,-2.65545 c 0.26297,-0.27633 0.28645,-0.94914 0.0438,-1.25631 -0.0963,-0.12193 -0.52307,-0.22169 -0.94839,-0.22169 h -0.7733 v 0.80054 c 0,0.44029 0.0493,0.8639 0.10943,0.94136 0.15716,0.20225 1.30928,0.008 1.56841,-0.2639 z"
         id="path15" /></g></g></svg>
