<?xml version="1.0" encoding="UTF-8" standalone="no"?>
<!-- Created with Inkscape (http://www.inkscape.org/) -->

<svg
   width="196.65379mm"
   height="38.5597mm"
   viewBox="0 0 196.65379 38.5597"
   version="1.1"
   id="svg1"
   xml:space="preserve"
   xmlns:inkscape="http://www.inkscape.org/namespaces/inkscape"
   xmlns:sodipodi="http://sodipodi.sourceforge.net/DTD/sodipodi-0.dtd"
   xmlns="http://www.w3.org/2000/svg"
   xmlns:svg="http://www.w3.org/2000/svg"><sodipodi:namedview
     id="namedview1"
     pagecolor="#ffffff"
     bordercolor="#000000"
     borderopacity="0.25"
     inkscape:showpageshadow="2"
     inkscape:pageopacity="0.0"
     inkscape:pagecheckerboard="0"
     inkscape:deskcolor="#d1d1d1"
     inkscape:document-units="mm"><inkscape:page
       x="0"
       y="-1.2036372e-12"
       width="196.65379"
       height="38.559696"
       id="page2"
       margin="0"
       bleed="0" /></sodipodi:namedview><defs
     id="defs1" /><g
     inkscape:label="Capa 1"
     inkscape:groupmode="layer"
     id="layer1"
     transform="translate(-7.7948895,-135.99795)"><path
       style="fill:#000000"
       d="m 22.983908,174.45872 c -0.470244,-0.13681 -0.696337,-0.23397 -1.168423,-0.50209 -0.820077,-0.46577 -12.073062,-7.51014 -12.474726,-7.80918 -0.5212703,-0.38809 -0.9818707,-0.8951 -1.1670634,-1.28466 -0.076775,-0.1615 -0.1934141,-0.50399 -0.2591983,-0.76109 l -0.1196077,-0.46745 v -8.35798 -8.35797 l 0.1196077,-0.46746 c 0.065784,-0.25709 0.1824235,-0.59958 0.2591983,-0.76108 0.1850394,-0.38924 0.6454197,-0.89619 1.1670634,-1.28512 0.4161476,-0.31028 11.689351,-7.36482 12.502677,-7.82392 0.994072,-0.56113 1.703244,-0.70064 2.48519,-0.4889 0.681798,0.18462 0.904639,0.31101 4.253965,2.41261 0.399165,0.25046 2.611106,1.63209 4.915423,3.07028 2.304318,1.43819 4.360323,2.74836 4.568901,2.9115 0.500611,0.39155 0.984908,0.96965 1.146148,1.36813 0.316295,0.78167 0.301743,0.37131 0.321628,9.07002 0.01307,5.71832 0.0015,8.10105 -0.04109,8.49518 -0.06589,0.60906 -0.204942,1.15047 -0.38655,1.50506 -0.153595,0.29991 -0.684792,0.87431 -1.107101,1.19715 -0.485855,0.37142 -12.442628,7.8255 -12.907438,8.04674 -0.837611,0.39869 -1.447358,0.48262 -2.108601,0.29023 z m 1.092184,-7.13025 c 0.354918,-0.12336 1.000848,-0.55209 1.131754,-0.75118 0.108031,-0.16431 0.10904,-0.2023 0.134766,-5.07344 l 0.02592,-4.9079 0.140348,-0.32332 c 0.07719,-0.17782 0.217158,-0.40667 0.311038,-0.50855 0.245719,-0.26665 4.021367,-2.6136 4.209301,-2.61651 0.09598,-0.001 0.185328,0.0461 0.246239,0.13124 0.09114,0.12734 0.0956,0.35385 0.0956,4.85127 v 4.71769 l 0.127242,0.14397 c 0.06998,0.0792 0.185701,0.14396 0.25715,0.14396 0.167541,0 2.334687,-1.35422 2.562137,-1.60104 0.09521,-0.10332 0.235176,-0.31982 0.311038,-0.48112 l 0.13793,-0.29326 0.01403,-5.36221 c 0.0162,-6.1923 0.04459,-5.78885 -0.445309,-6.32779 -0.254805,-0.28031 -0.888037,-0.69364 -4.700843,-3.06839 -3.102014,-1.93204 -4.488608,-2.76571 -4.684185,-2.81632 -0.467891,-0.12107 -0.703971,-0.0268 -2.088518,0.83417 -0.681362,0.4237 -1.261647,0.81857 -1.289521,0.8775 -0.08106,0.17137 -0.05933,0.33215 0.06596,0.48809 0.06415,0.0798 1.586293,1.06031 3.382537,2.17881 1.796244,1.11851 3.306722,2.0749 3.356618,2.12532 0.05051,0.051 0.09072,0.1746 0.09072,0.27877 0,0.10408 -0.04025,0.22787 -0.09072,0.27899 -0.0499,0.0505 -0.798951,0.53425 -1.664566,1.07491 l -1.573846,0.98301 -0.400555,0.0262 c -0.320775,0.021 -0.446123,0.003 -0.629339,-0.0885 -0.125831,-0.0631 -1.585789,-0.96212 -3.244351,-1.99783 -3.629139,-2.26626 -3.489955,-2.18542 -3.831292,-2.22528 -0.388494,-0.0454 -0.662228,0.0502 -1.316792,0.45993 -0.897361,0.56165 -1.193481,1.02457 -1.193344,1.86554 l 6.3e-5,0.38546 0.738652,0.45453 c 0.406259,0.24999 1.08857,0.67333 1.516247,0.94075 1.024863,0.64083 2.389741,1.49351 3.162219,1.97554 0.342142,0.2135 1.00639,0.62454 1.476107,0.91343 0.550159,0.33836 0.939031,0.61989 1.092925,0.79125 0.431893,0.4809 0.411581,0.21004 0.412985,5.50705 6.86e-4,2.58936 0.02223,4.76951 0.0484,4.89716 0.06958,0.33941 0.202479,0.50432 0.629448,0.78104 0.649929,0.42121 1.002173,0.50165 1.475814,0.33701 z m -7.279806,-4.30487 0.122382,-0.1121 0.01407,-3.82137 c 0.0089,-2.42866 -0.0049,-3.90117 -0.03805,-4.04035 -0.02867,-0.12044 -0.116641,-0.28708 -0.195503,-0.3703 -0.175928,-0.18566 -2.577628,-1.68531 -2.770812,-1.73013 -0.104298,-0.0242 -0.172424,0.005 -0.272158,0.11824 l -0.133036,0.15052 v 3.68732 c 0,4.16388 -0.01346,4.01075 0.398202,4.5288 0.151585,0.19076 0.390198,0.38935 0.682105,0.56772 0.24693,0.15088 0.752225,0.46732 1.122878,0.7032 0.370654,0.23588 0.735483,0.42925 0.810732,0.42971 0.07525,4.7e-4 0.191888,-0.0496 0.259198,-0.11126 z m 124.284964,0.90336 c -2.40287,-0.44239 -4.32618,-1.90703 -5.47123,-4.16645 -0.71449,-1.40984 -1.02057,-2.91535 -0.97727,-4.80682 0.0264,-1.15438 0.15727,-1.99053 0.45701,-2.92054 0.75239,-2.33443 2.48328,-4.22957 4.58521,-5.02028 0.97796,-0.3679 1.43533,-0.44186 2.7475,-0.44428 1.05695,-0.002 1.25633,0.0133 1.75623,0.13435 2.90402,0.70325 4.95618,2.82777 5.76018,5.9633 0.43597,1.70026 0.39641,3.89431 -0.1005,5.57449 -0.86888,2.93784 -2.84864,4.90157 -5.65336,5.60758 -0.62849,0.15821 -2.42446,0.20372 -3.10377,0.0786 z m 2.12225,-3.55091 c 0.72552,-0.1454 1.30593,-0.42911 1.87181,-0.91499 0.49855,-0.42806 0.85232,-0.92657 1.15915,-1.6334 0.38261,-0.88139 0.48742,-1.43633 0.48742,-2.58071 0,-1.14835 -0.10395,-1.69476 -0.49551,-2.60461 -0.23024,-0.53499 -0.32134,-0.67632 -0.73731,-1.14374 -0.53726,-0.60371 -0.88097,-0.85482 -1.49786,-1.0943 -1.31043,-0.50872 -2.78717,-0.34401 -3.8903,0.4339 -0.49003,0.34556 -1.10561,1.07294 -1.38026,1.63096 -0.72994,1.48301 -0.80885,3.6041 -0.19247,5.17361 0.56013,1.42626 1.75885,2.47238 3.13385,2.73491 0.36215,0.0691 1.1927,0.0683 1.54148,-0.002 z m -91.090891,3.26407 c -0.126602,-0.14325 -0.177518,-0.25477 -0.180741,-0.39591 -0.0025,-0.10807 -0.0061,-3.77777 -0.0081,-8.15489 -0.0034,-7.45631 0.0021,-7.96819 0.08628,-8.1136 0.165944,-0.28655 0.337653,-0.32136 1.585163,-0.32136 1.588335,0 1.663619,0.0455 1.701646,1.02926 l 0.02099,0.54301 0.318034,-0.29232 c 0.428459,-0.39382 1.439166,-0.94745 2.056985,-1.12676 0.707381,-0.20529 1.198845,-0.27053 2.036135,-0.27026 1.195166,3.9e-4 2.102186,0.21747 3.015908,0.72182 0.527785,0.29133 1.217138,0.85552 1.518331,1.24266 0.241514,0.31044 0.433897,0.41147 0.597529,0.31382 0.06228,-0.0372 0.241549,-0.20028 0.398363,-0.36245 0.395063,-0.40856 1.119944,-0.92906 1.680328,-1.20654 1.001092,-0.4957 1.975441,-0.70954 3.232981,-0.70954 1.937725,0 3.423562,0.62437 4.504759,1.89297 0.764047,0.89648 1.23021,1.94258 1.529703,3.43273 0.112722,0.56086 0.114587,0.64637 0.132362,6.07087 l 0.01803,5.502 -0.178493,0.20195 -0.178493,0.20195 h -1.332057 c -1.133647,0 -1.353186,-0.0141 -1.473915,-0.0948 -0.303517,-0.20285 -0.286395,0.0923 -0.317723,-5.47717 -0.02576,-4.57978 -0.03835,-5.17206 -0.117025,-5.50346 -0.334819,-1.41043 -1.103396,-2.26257 -2.264651,-2.51086 -0.521775,-0.11156 -1.454582,-0.0808 -1.943988,0.064 -1.139724,0.33732 -1.998233,1.26284 -2.382884,2.56887 -0.271893,0.92317 -0.286221,1.22391 -0.286552,6.01488 -2.63e-4,3.8031 -0.01107,4.44005 -0.07777,4.58599 -0.158931,0.34773 -0.181674,0.35256 -1.659165,0.35256 -1.477491,0 -1.500234,-0.005 -1.659165,-0.35256 -0.06684,-0.14624 -0.07751,-0.81928 -0.07777,-4.90858 -2.47e-4,-3.82609 -0.01469,-4.8471 -0.07499,-5.29968 -0.264508,-1.98526 -1.222956,-3.00473 -2.90548,-3.09048 -1.829132,-0.0932 -3.144653,0.81452 -3.707003,2.5579 -0.304813,0.94497 -0.31057,1.05559 -0.31057,5.96781 0,4.91478 0.006,4.81638 -0.307591,5.02598 -0.129806,0.0868 -0.320971,0.0996 -1.481099,0.0996 h -1.332057 z m 33.540256,0 -0.176255,-0.19942 1.94e-4,-8.1439 c 1.9e-4,-7.96862 0.0024,-8.14793 0.1012,-8.33132 0.157058,-0.29143 0.331763,-0.3214 1.750974,-0.30039 l 1.256212,0.0186 0.169379,0.19174 0.169378,0.19174 0.01488,8.0196 c 0.0082,4.41079 5.47e-4,8.1099 -0.01697,8.22026 -0.01811,0.11406 -0.09961,0.27227 -0.188841,0.36658 l -0.156988,0.16592 h -1.373452 -1.373453 z m 12.649929,0.0888 c -0.08781,-0.0606 -0.187274,-0.18586 -0.221037,-0.27838 -0.04651,-0.12745 -0.05807,-2.13369 -0.04771,-8.27582 l 0.01368,-8.10758 0.169379,-0.19174 0.169378,-0.19174 1.256212,-0.0186 c 1.419214,-0.021 1.593914,0.009 1.750974,0.30039 0.0966,0.17925 0.10101,0.3171 0.1012,3.16128 1.4e-4,2.08486 0.0177,3.01733 0.0588,3.11928 0.0681,0.16913 0.30371,0.2974 0.44985,0.24492 0.12082,-0.0434 0.16093,-0.082 0.93635,-0.90081 2.58933,-2.7343 5.59707,-5.84009 5.69761,-5.88334 0.0671,-0.0289 0.8801,-0.0524 1.80675,-0.0524 1.94266,0 1.98637,0.01 1.98825,0.44905 7.2e-4,0.16667 -0.24312,0.45911 -2.44863,2.93663 -1.34718,1.51334 -2.64187,2.96233 -2.8771,3.21998 -0.61639,0.67517 -0.64693,0.55246 0.57487,2.30952 0.54958,0.79034 1.97183,2.84416 3.16056,4.56404 2.29568,3.32145 2.29495,3.32017 2.05766,3.58865 -0.0997,0.11281 -0.1728,0.1173 -1.90654,0.1173 -1.57521,0 -1.81793,-0.012 -1.9223,-0.0947 -0.0657,-0.0521 -1.14711,-1.5499 -2.40315,-3.32853 -1.25602,-1.77862 -2.35511,-3.31964 -2.44239,-3.42448 -0.11711,-0.14065 -0.20378,-0.19062 -0.33065,-0.19062 -0.15183,0 -0.29859,0.13386 -1.25456,1.14432 -0.59544,0.62937 -1.09669,1.1858 -1.11388,1.2365 -0.0172,0.0507 -0.0313,1.00191 -0.0313,2.1138 0,1.67885 -0.0131,2.05036 -0.0775,2.19111 -0.15862,0.34704 -0.18427,0.35258 -1.63182,0.35234 -1.203241,-1.9e-4 -1.337825,-0.0102 -1.482986,-0.11036 z m 21.875276,-0.0888 -0.17625,-0.19942 v -8.13485 c 0,-7.56236 0.006,-8.14676 0.0884,-8.30424 0.16621,-0.31836 0.30042,-0.34734 1.60418,-0.34638 1.30071,9.5e-4 1.3613,0.0144 1.55876,0.34591 0.10318,0.17323 0.1182,0.27189 0.1182,0.77669 v 0.57826 l 0.37583,-0.3573 c 0.97975,-0.93142 2.52017,-1.46498 4.22651,-1.46395 1.1132,6.7e-4 1.49254,0.10701 1.73097,0.48521 0.1166,0.18497 0.12126,0.23696 0.13637,1.52288 0.0131,1.11679 0.003,1.35993 -0.0653,1.50856 -0.14558,0.31852 -0.1914,0.32728 -1.71287,0.32756 -1.61301,2.9e-4 -1.81094,0.0363 -2.61067,0.47541 -0.80674,0.44292 -1.38964,1.21862 -1.68991,2.24888 -0.27872,0.95628 -0.28723,1.12862 -0.28723,5.81895 0,4.68533 0.004,4.60927 -0.27622,4.81728 -0.11836,0.0877 -0.30047,0.1 -1.48968,0.1 h -1.35484 z m 40.73647,0.10787 c -0.28298,-0.22426 -0.27043,0.0899 -0.27043,-6.77055 v -6.34004 l -0.12725,-0.14397 -0.12724,-0.14396 h -2.4697 c -2.2348,0 -2.48394,-0.01 -2.61942,-0.10007 -0.28939,-0.19341 -0.31398,-0.34551 -0.29666,-1.8351 l 0.0157,-1.34735 0.16947,-0.19163 0.16947,-0.19163 6.98441,-0.0149 c 6.5702,-0.014 6.99516,-0.009 7.16584,0.088 0.32806,0.18604 0.3627,0.35149 0.36279,1.73238 9e-5,1.32959 -0.0287,1.50446 -0.28574,1.73318 -0.14203,0.12641 -0.15749,0.12716 -2.6172,0.12716 -2.41946,0 -2.47733,0.003 -2.61001,0.12076 l -0.1357,0.12077 -0.0138,6.40432 c -0.013,6.00706 -0.0195,6.41376 -0.1053,6.55657 -0.1625,0.27055 -0.26433,0.28764 -1.71385,0.28764 -1.1483,0 -1.37774,-0.0142 -1.47529,-0.0915 z m 16.18347,-0.10787 -0.17625,-0.19942 v -8.13215 c 0,-8.98651 -0.0242,-8.36839 0.33488,-8.56117 0.16018,-0.086 0.35118,-0.0965 1.47881,-0.0812 l 1.29488,0.0175 0.16938,0.19174 0.16938,0.19174 0.0149,8.0196 c 0.008,4.41079 5.5e-4,8.1099 -0.017,8.22026 -0.0181,0.11406 -0.0996,0.27227 -0.18884,0.36658 l -0.15699,0.16592 h -1.37345 -1.37345 z m 12.64993,0.0888 c -0.0878,-0.0606 -0.18727,-0.18586 -0.22104,-0.27838 -0.0465,-0.12745 -0.0581,-2.13369 -0.0477,-8.27582 l 0.0137,-8.10758 0.16938,-0.19174 0.16938,-0.19174 1.25621,-0.0186 c 1.41921,-0.021 1.59392,0.009 1.75098,0.30039 0.0966,0.17925 0.10101,0.3171 0.1012,3.16128 1.3e-4,2.08486 0.0177,3.01733 0.0588,3.11928 0.0776,0.19265 0.32096,0.30764 0.47884,0.22624 0.0649,-0.0334 1.5489,-1.55704 3.29777,-3.38574 1.74886,-1.8287 3.23586,-3.34904 3.30444,-3.37854 0.0686,-0.0295 0.90466,-0.0536 1.85795,-0.0536 1.66413,0 1.73738,0.005 1.83693,0.11731 0.0622,0.0704 0.10368,0.1955 0.10368,0.31278 0,0.17984 -0.194,0.41395 -2.42351,2.92469 -1.33292,1.50106 -2.62762,2.95152 -2.8771,3.22325 -0.61391,0.66868 -0.61464,0.65372 0.0809,1.65539 0.29396,0.42335 0.9542,1.37679 1.4672,2.11874 0.513,0.74196 1.2802,1.85049 1.70488,2.46341 2.44563,3.52958 2.61787,3.79038 2.61787,3.96374 0,0.0942 -0.0466,0.22404 -0.10368,0.28856 -0.0997,0.11281 -0.17279,0.1173 -1.90653,0.1173 -1.55339,0 -1.81891,-0.0127 -1.9189,-0.092 -0.0638,-0.0506 -1.14538,-1.54842 -2.40345,-3.32853 -1.25807,-1.78011 -2.35867,-3.32234 -2.44579,-3.42718 -0.11694,-0.14072 -0.20341,-0.19062 -0.33035,-0.19062 -0.15183,0 -0.29859,0.13386 -1.25456,1.14432 -0.59543,0.62937 -1.09668,1.1858 -1.11388,1.2365 -0.0172,0.0507 -0.0313,1.00191 -0.0313,2.1138 0,1.67885 -0.0131,2.05036 -0.0775,2.19111 -0.15862,0.34704 -0.18428,0.35258 -1.63182,0.35234 -1.20324,-1.9e-4 -1.33783,-0.0102 -1.48299,-0.11036 z"
       id="path1" /></g></svg>
