<?xml version="1.0" encoding="UTF-8" standalone="no"?>
<!-- Created with Inkscape (http://www.inkscape.org/) -->

<svg
   width="189.23737mm"
   height="27.00675mm"
   viewBox="0 0 189.23737 27.00675"
   version="1.1"
   id="svg1"
   xml:space="preserve"
   inkscape:export-filename="phyhome.svg"
   inkscape:export-xdpi="96"
   inkscape:export-ydpi="96"
   xmlns:inkscape="http://www.inkscape.org/namespaces/inkscape"
   xmlns:sodipodi="http://sodipodi.sourceforge.net/DTD/sodipodi-0.dtd"
   xmlns="http://www.w3.org/2000/svg"
   xmlns:svg="http://www.w3.org/2000/svg"><sodipodi:namedview
     id="namedview1"
     pagecolor="#ffffff"
     bordercolor="#000000"
     borderopacity="0.25"
     inkscape:showpageshadow="2"
     inkscape:pageopacity="0.0"
     inkscape:pagecheckerboard="0"
     inkscape:deskcolor="#d1d1d1"
     inkscape:document-units="mm"><inkscape:page
       x="0"
       y="0"
       width="189.23737"
       height="27.00675"
       id="page2"
       margin="0"
       bleed="0" /></sodipodi:namedview><defs
     id="defs1" /><g
     inkscape:label="Capa 1"
     inkscape:groupmode="layer"
     id="layer1"
     transform="translate(-8.4488906,-141.68319)"><g
       id="g3084"
       transform="matrix(1,0,0,0.66703759,0,56.167412)"><path
         style="fill:#fefefe"
         d="m 14.836601,160.4473 v -8.18362 l 3.094047,-0.37053 c 6.40434,-0.76695 9.446531,-4.74885 9.446531,-12.36448 0,-8.99364 -4.082989,-11.7981 -15.400369,-10.57798 -2.3387575,0.25214 -3.5279193,0.18126 -3.5279193,-0.2103 0,-0.405 18.4142423,-0.5723 58.5872803,-0.53228 32.223004,0.0321 58.037609,0.24628 57.365789,0.47595 -5.69347,1.94638 -10.15386,9.09255 -10.80719,17.3146 l -0.26301,3.30989 1.15545,-0.36633 c 0.63549,-0.20149 2.08505,-0.73033 3.22123,-1.17521 l 2.0658,-0.80887 0.46371,-2.00664 c 2.2576,-9.76929 11.44687,-10.07128 14.37947,-0.47254 0.86115,2.81866 0.89883,2.85611 4.2512,4.22525 l 2.63771,1.07727 -0.23307,-3.56448 c -0.5397,-8.25398 -4.26428,-14.69118 -9.97514,-17.24009 l -1.68235,-0.75088 34.13433,0.0857 c 18.77388,0.0472 30.63106,0.22242 26.3493,0.38947 l -7.78502,0.30375 -0.10501,19.8425 -0.105,19.8425 -2.0884,-0.17208 -2.08841,-0.17208 -1.67502,-19.10026 c -0.92126,-10.50515 -1.68585,-19.42098 -1.6991,-19.81297 -0.0159,-0.47183 -0.70753,-0.71269 -2.04634,-0.71269 h -2.02226 l -2.31623,6.98442 c -4.62306,13.94055 -5.97031,17.83833 -6.54954,18.94885 l -0.59014,1.13143 -2.73516,-7.97332 c -1.50433,-4.38532 -3.43535,-10.11042 -4.29113,-12.72243 -1.71051,-5.22075 -2.69884,-6.53929 -4.69644,-6.26555 l -1.32576,0.18168 -1.86783,19.10026 c -1.02731,10.50515 -1.88066,19.42098 -1.89635,19.81297 -0.0218,0.54482 -1.79177,0.70363 -7.51412,0.67421 l -7.4856,-0.0385 1.82475,-0.70265 c 3.49908,-1.34738 8.83987,-7.33289 8.08973,-9.06629 -0.71513,-1.65252 -10.09738,1.38139 -14.28712,4.61998 -3.42306,2.64597 -3.57926,3.23371 -1.14345,4.30262 l 1.923,0.84388 -8.07927,0.0397 -8.07927,0.0397 -0.10499,-19.81296 -0.10498,-19.81296 -3.29366,-0.1656 -3.29366,-0.1656 v 8.29034 8.29034 h -5.777904 -5.777901 l -0.110769,-8.12474 -0.11077,-8.12474 h -3.393471 -3.393471 l -0.104981,19.81296 -0.104981,19.81296 h -4.985226 -4.985225 v -8.64776 -8.64775 l 4.191935,-10.64219 c 4.889491,-12.4131 4.809713,-11.9733 2.171959,-11.9733 h -2.019976 l -3.008924,8.97997 -3.008924,8.97998 -2.798999,-7.9822 c -1.539449,-4.39021 -3.07703,-8.4312 -3.416846,-8.97998 l -0.617847,-0.99777 h -3.531211 c -4.377229,0 -4.449622,-1.0462 0.871741,12.59799 l 4.402952,11.28934 -0.111209,7.8693 -0.111209,7.86929 -5.489439,0.15863 -5.489438,0.15863 v -19.99465 -19.99465 l -3.293663,0.1656 -3.293664,0.1656 -0.110836,8.14029 -0.110835,8.1403 -5.678027,-0.15809 -5.678026,-0.1581 -0.199616,-7.9822 -0.199616,-7.9822 -3.293663,-0.1656 -3.293663,-0.1656 v 19.97856 19.97856 h -7.984638 -7.984638 z m 106.857119,1.29119 c 3.96669,-2.55683 8.08069,-3.92411 13.44465,-4.46828 7.82455,-0.7938 7.3003,-2.98189 -0.80678,-3.36734 -5.79111,-0.27534 -9.53646,0.44746 -14.89623,2.87475 -4.62177,2.09307 -4.34132,1.65231 -2.80921,4.41496 1.53499,2.76785 1.60822,2.77573 5.06757,0.54591 z m 2.70272,-8.58727 c 1.75216,-0.39381 5.42479,-0.51039 9.67672,-0.30718 l 6.85278,0.32753 0.22596,-0.84094 c 1.05069,-3.91031 -19.79336,-4.77523 -25.9887,-1.07839 l -1.41672,0.84538 0.25544,1.82403 c 0.36532,2.60862 0.70609,2.70375 4.32424,1.20712 1.78549,-0.73857 4.51712,-1.62846 6.07028,-1.97755 z m -86.803621,6.0721 v -9.4076 h 5.788862 5.788863 v 9.4076 9.40759 h -5.788863 -5.788862 z m 53.497073,0 v -9.4076 h 5.788862 5.788866 v 9.4076 9.40759 h -5.788866 -5.788862 z m 56.853718,6.69935 c 0.13074,-1.48954 0.52424,-6.81338 0.87444,-11.83077 0.3502,-5.01738 0.69869,-9.21438 0.77442,-9.32666 0.0757,-0.11227 2.03542,5.21157 4.35486,11.83077 l 4.21715,12.0349 h -5.22929 -5.2293 z m 16.91535,-9.81792 c 2.33115,-6.88939 4.30813,-12.42665 4.39329,-12.30503 0.14241,0.20339 1.63889,21.55691 1.67027,23.83342 l 0.0138,0.99777 h -5.15788 -5.15788 z m 24.34217,8.21684 c -0.16468,-0.24309 -0.29942,-3.47807 -0.29942,-7.18885 v -6.74686 h 4.39155 4.39155 v 6.84189 6.84188 l -1.49712,0.004 c -0.82342,0.002 -2.66488,0.15836 -4.09213,0.34696 -1.42725,0.18861 -2.72975,0.14402 -2.89443,-0.0991 z M 14.97171,142.11946 c 0.145268,-3.3907 0.264123,-7.02298 0.264123,-8.07175 v -1.90686 h 1.237619 c 5.64355,0 5.421918,14.4777 -0.241726,15.79028 l -1.524138,0.35322 z m 173.93,-2.56657 v -5.70157 h 4.39155 4.39155 v 5.70157 5.70158 h -4.39155 -4.39155 z"
         id="path3091" /><path
         style="fill:#c7c5c4"
         d="m 84.095574,148.67541 0.0078,-19.67042 h 3.393471 3.393471 l 0.01766,8.26728 0.01766,8.26728 -0.128425,-8.12475 -0.128426,-8.12474 h -3.17772 -3.177721 l -0.112741,19.52789 -0.11274,19.52788 z m 6.758444,10.54791 c -4.59e-4,-5.33097 0.05955,-7.58856 0.133349,-5.01687 0.0738,2.57169 0.07418,6.93339 8.34e-4,9.69267 -0.07334,2.75928 -0.133724,0.65517 -0.134183,-4.6758 z m 91.440472,-10.26283 c 1.4e-4,-10.97553 0.0538,-15.38482 0.11919,-9.79844 0.0654,5.58639 0.0653,14.56637 -2.5e-4,19.95551 -0.0656,5.38914 -0.11908,0.81846 -0.11894,-10.15707 z m -45.59235,7.87425 c 0.38426,-0.14341 1.01305,-0.14341 1.39731,0 0.38426,0.14341 0.0699,0.26075 -0.69866,0.26075 -0.76852,0 -1.08292,-0.11734 -0.69865,-0.26075 z m -6.78695,-4.57661 c 0.60384,-0.13063 1.59194,-0.13063 2.19578,0 0.60384,0.13064 0.10979,0.23752 -1.09789,0.23752 -1.20768,0 -1.70172,-0.10688 -1.09789,-0.23752 z m -80.561469,-15.27094 0.01644,-7.9822 3.193856,-0.0345 3.193855,-0.0345 -3.083183,0.1999 -3.083183,0.19989 -0.127111,7.81685 -0.12711,7.81686 z m -22.048309,2.5657 c 0,-1.09755 0.08216,-1.54655 0.182578,-0.99777 0.100418,0.54878 0.100418,1.44677 0,1.99555 -0.100418,0.54878 -0.182578,0.0998 -0.182578,-0.99778 z m -12.337807,-3.13586 c 0.0018,-2.19511 0.07393,-3.02324 0.160355,-1.84029 0.08642,1.18294 0.08497,2.97893 -0.0032,3.9911 -0.0882,1.01216 -0.158905,0.0443 -0.157134,-2.15081 z m -1.613547,-7.54893 c 1.270589,-0.11349 3.246786,-0.11243 4.391551,0.002 1.144765,0.11478 0.105193,0.20763 -2.31016,0.20635 -2.415353,-0.001 -3.351979,-0.0952 -2.081391,-0.20869 z m 18.948938,0.004 c 0.933205,-0.12004 2.460267,-0.12004 3.393471,0 0.933205,0.12004 0.169674,0.21825 -1.696735,0.21825 -1.866409,0 -2.62994,-0.0982 -1.696736,-0.21825 z m 46.909747,0.009 c 0.603839,-0.13064 1.591937,-0.13064 2.195776,0 0.603838,0.13063 0.109788,0.23752 -1.097888,0.23752 -1.207676,0 -1.701726,-0.10689 -1.097888,-0.23752 z m 24.951997,-0.009 c 0.9332,-0.12004 2.46026,-0.12004 3.39347,0 0.9332,0.12004 0.16967,0.21825 -1.69674,0.21825 -1.86641,0 -2.62994,-0.0982 -1.69673,-0.21825 z"
         id="path3090" /><path
         style="fill:#e09c9d"
         d="m 126.72134,168.23789 c 0.38426,-0.14341 1.01305,-0.14341 1.39731,0 0.38426,0.14341 0.0699,0.26074 -0.69866,0.26074 -0.76852,0 -1.08291,-0.11733 -0.69865,-0.26074 z M 113.5963,148.40914 c -0.12361,-0.46003 -0.1477,-1.1656 -0.0535,-1.56793 0.0942,-0.40233 0.26586,-0.0259 0.38153,0.83642 0.22586,1.68381 0.0395,2.09935 -0.328,0.73151 z m 12.92542,-20.09161 c 0.49405,-0.1359 1.3025,-0.1359 1.79655,0 0.49405,0.1359 0.0898,0.24709 -0.89828,0.24709 -0.98809,0 -1.39232,-0.11119 -0.89827,-0.24709 z"
         id="path3089" /><path
         style="fill:#94918f"
         d="m 49.333901,159.22332 c -4.58e-4,-5.33097 0.05955,-7.58856 0.133349,-5.01687 0.0738,2.57169 0.07418,6.93339 8.35e-4,9.69267 -0.07334,2.75928 -0.133725,0.65517 -0.134184,-4.6758 z m 59.901149,-10.26283 c 1.4e-4,-10.97553 0.0538,-15.38482 0.1192,-9.79844 0.0654,5.58639 0.0653,14.56637 -2.5e-4,19.95551 -0.0656,5.38914 -0.11908,0.81846 -0.11895,-10.15707 z m -35.567439,8.26728 c 0,-2.97907 0.06729,-4.19778 0.149529,-2.70825 0.08224,1.48954 0.08224,3.92696 0,5.4165 -0.08224,1.48953 -0.149529,0.27082 -0.149529,-2.70825 z m -6.407923,-0.85524 c 0.0022,-1.88152 0.07677,-2.58249 0.165626,-1.55772 0.08885,1.02477 0.08702,2.5642 -0.0041,3.42094 -0.09109,0.85675 -0.163793,0.0183 -0.161552,-1.86322 z m -51.517217,-4.67129 c 0.388439,-0.14456 0.927403,-0.13505 1.197695,0.0211 0.270293,0.15618 -0.04752,0.27445 -0.706253,0.26283 -0.658733,-0.0116 -0.879882,-0.1394 -0.491442,-0.28396 z m -1.181392,-7.87217 c 0.0022,-1.88152 0.07677,-2.58249 0.165626,-1.55772 0.08885,1.02477 0.08702,2.5642 -0.0041,3.42095 -0.09109,0.85674 -0.163793,0.0183 -0.161552,-1.86323 z m 27.14047,1.57221 c 1.49128,-0.11 3.826787,-0.10918 5.190014,0.002 1.363228,0.11099 0.14309,0.20099 -2.711418,0.19999 -2.854508,-9.9e-4 -3.969876,-0.0918 -2.478596,-0.20181 z m 149.296121,0.002 c 1.26257,-0.11314 3.3286,-0.11314 4.59117,0 1.26257,0.11315 0.22956,0.20573 -2.29558,0.20573 -2.52515,0 -3.55816,-0.0926 -2.29559,-0.20573 z M 37.348704,136.41703 c 6.99e-4,-4.07662 0.06429,-5.66952 0.141312,-3.53977 0.07702,2.12975 0.07645,5.46517 -0.0013,7.41204 -0.07772,1.94688 -0.14074,0.20435 -0.140042,-3.87227 z m 22.700909,-7.54605 c 1.042993,-0.11746 2.749709,-0.11746 3.792703,0 1.042993,0.11745 0.189635,0.21354 -1.896352,0.21354 -2.085987,0 -2.939345,-0.0961 -1.896351,-0.21354 z m 111.790417,0.01 c 0.60686,-0.13105 1.50513,-0.12755 1.99616,0.008 0.49103,0.13534 -0.005,0.24256 -1.10338,0.23828 -1.09788,-0.004 -1.49964,-0.11501 -0.89278,-0.24606 z m 14.36686,-0.0159 c 2.14088,-0.10252 5.64414,-0.10252 7.78502,0 2.14088,0.10252 0.38925,0.1864 -3.89251,0.1864 -4.28176,0 -6.03339,-0.0839 -3.89251,-0.1864 z"
         id="path3088" /><path
         style="fill:#cd5e5f"
         d="m 126.12964,148.83236 c 0.71756,-0.1269 1.79549,-0.12428 2.39539,0.006 0.59991,0.1301 0.0128,0.23392 -1.30465,0.23072 -1.31747,-0.003 -1.8083,-0.10964 -1.09074,-0.23653 z m 14.94207,-1.01219 c 0.008,-0.94076 0.0976,-1.25659 0.19883,-0.70184 0.10122,0.55474 0.0946,1.32446 -0.0148,1.71047 -0.10936,0.38602 -0.19218,-0.0679 -0.18404,-1.00863 z"
         id="path3087" /><path
         style="fill:#bd2728"
         d="m 123.52748,167.38306 c -1.69891,-0.82173 -1.63833,-1.27161 0.39924,-2.96499 3.7274,-3.09776 10.50796,-5.753 13.72751,-5.37562 l 1.5431,0.18087 -1.74004,2.69658 c -0.95703,1.48311 -2.73413,3.39115 -3.94911,4.24009 l -2.20906,1.54351 -3.23706,0.15357 c -1.78039,0.0845 -3.82095,-0.12884 -4.53458,-0.47401 z m -6.14402,-5.45149 c -0.3183,-0.54878 -0.81481,-1.44253 -1.10335,-1.98611 l -0.52463,-0.98832 1.14128,-0.6216 c 6.12223,-3.33447 13.93782,-4.95369 19.28692,-3.99581 5.81757,1.04177 5.21571,1.9907 -1.6327,2.57423 -4.53005,0.38599 -8.75122,1.82261 -12.51331,4.25875 -3.12256,2.022 -3.85254,2.14102 -4.65421,0.75886 z m -2.96345,-7.2085 c -0.41953,-2.38714 -0.002,-2.97444 2.8849,-4.057 6.09018,-2.28383 23.48935,-1.22438 23.48935,1.43028 v 0.85524 l -2.39539,-0.28508 c -1.31746,-0.15679 -5.09021,-0.2539 -8.38387,-0.2158 l -5.98848,0.0693 -3.7927,1.47213 c -2.08599,0.80967 -4.18878,1.63923 -4.67287,1.84347 l -0.88017,0.37135 z m 25.97502,-5.77856 c -0.21958,-0.11607 -1.42149,-0.6227 -2.67091,-1.12584 l -2.27168,-0.9148 -0.4654,-2.01392 c -2.31444,-10.01528 -13.41112,-10.23028 -14.93995,-0.28946 -0.15066,0.97967 -0.45429,1.94041 -0.67474,2.13498 -0.39904,0.35221 -4.606,1.88095 -5.28267,1.91963 -0.67158,0.0384 0.10858,-6.38751 1.1416,-9.40289 1.20467,-3.51644 3.31875,-6.42792 6.28571,-8.65657 l 2.1103,-1.58517 3.7927,-0.003 3.79271,-0.003 2.19577,1.60639 c 4.47326,3.27256 7.13157,8.6147 7.49381,15.05959 0.1105,1.96603 0.13141,3.55434 0.0465,3.52958 -0.085,-0.0247 -0.33412,-0.13997 -0.5537,-0.25604 z"
         id="path3086" /><path
         style="fill:#5c5753"
         d="m 30.985603,148.96049 c 1.37e-4,-10.97553 0.05377,-15.38482 0.119194,-9.79844 0.06542,5.58639 0.06531,14.56637 -2.49e-4,19.95551 -0.06556,5.38914 -0.119082,0.81846 -0.118945,-10.15707 z m 42.661796,16.53456 c 0.0022,-1.88152 0.07677,-2.5825 0.165626,-1.55772 0.08885,1.02477 0.08702,2.56419 -0.0041,3.42094 -0.09109,0.85675 -0.163793,0.0183 -0.161552,-1.86322 z m -6.391785,-3.13587 c 0,-1.72472 0.07484,-2.43029 0.166316,-1.56793 0.09147,0.86236 0.09147,2.2735 0,3.13587 -0.09147,0.86236 -0.166316,0.15679 -0.166316,-1.56794 z m 121.427246,-5.27303 0.0192,-6.98535 4.4921,-0.0293 4.4921,-0.0293 -4.38011,0.19039 -4.38011,0.19039 -0.13122,6.8243 -0.13122,6.8243 z M 93.585091,145.40082 c 1.701726,-0.10688 4.486369,-0.10688 6.188095,0 1.701724,0.10688 0.309404,0.19432 -3.094047,0.19432 -3.403452,0 -4.795774,-0.0874 -3.094048,-0.19432 z m 95.096059,-6.133 0.0209,-5.70158 4.4921,-0.0293 4.4921,-0.0293 -4.37847,0.19037 -4.37847,0.19037 -0.13457,5.54054 -0.13456,5.54055 z m -39.59523,-10.37287 c 0.38844,-0.14456 0.92741,-0.13505 1.1977,0.0211 0.27029,0.15618 -0.0475,0.27445 -0.70626,0.26283 -0.65873,-0.0116 -0.87988,-0.1394 -0.49144,-0.28396 z"
         id="path3085" /><path
         style="fill:#201814"
         d="m 8.4488907,148.90611 v -19.7248 l 7.3571533,0.19692 7.357153,0.19691 1.101857,1.17555 c 0.606021,0.64655 1.472265,1.88407 1.924988,2.75005 l 0.823132,1.57452 v 4.41854 4.41855 l -1.126902,2.43192 c -1.465826,3.16334 -3.771896,4.63247 -7.906831,5.03723 l -3.14284,0.30764 v 8.47089 8.47088 H 11.642746 8.4488907 Z m 9.9807973,-1.88396 c 4.328854,-4.47443 2.149339,-16.8929 -2.650215,-15.10043 l -0.844126,0.31525 -0.28597,7.38447 c -0.365307,9.43319 0.387721,10.90739 3.780311,7.40071 z m 12.77542,1.93834 v -19.67043 h 2.99424 2.994239 v 7.37132 7.37132 l 0.627364,0.89596 0.627365,0.89596 h 5.56073 5.560729 v -8.26728 -8.26728 h 3.193856 3.193855 v 19.67043 19.67042 h -3.193855 -3.193856 v -9.40759 -9.4076 h -5.988478 -5.988478 v 9.4076 9.40759 h -3.193855 -3.193856 z m 36.220922,11.83076 0.181149,-7.83966 -4.427535,-11.28843 c -5.299707,-13.51211 -5.215513,-12.3731 -0.91459,-12.3731 H 65.778 l 3.254437,8.97998 3.254437,8.97998 3.029225,-8.97998 3.029226,-8.97998 h 2.018668 2.018669 l -0.991337,2.42317 c -0.545235,1.33274 -2.538503,6.38992 -4.429486,11.23817 l -3.43815,8.81499 v 8.43226 8.43226 h -3.139404 -3.139404 z m 16.87692,-11.83076 v -19.67043 h 3.193855 3.193855 v 8.26728 8.26728 h 5.988479 5.988481 v -8.26728 -8.26728 h 3.19385 3.19386 v 19.67043 19.67042 h -3.19386 -3.19385 v -9.40759 -9.4076 H 96.679139 90.69066 v 9.4076 9.40759 H 87.496805 84.30295 Z m 60.28402,18.82976 c 0,-0.46237 0.80844,-9.15027 1.79654,-19.30645 0.9881,-10.15617 1.79654,-18.62956 1.79654,-18.82975 0,-0.84984 3.09953,-0.31563 3.67732,0.63379 0.33397,0.54878 2.53321,6.64233 4.8872,13.54123 l 4.27999,12.54346 0.66411,-1.31879 c 0.36526,-0.72533 2.4854,-6.75474 4.71141,-13.39869 l 4.0473,-12.07991 h 1.93795 1.93794 l 1.4323,16.81964 c 0.78776,9.2508 1.54931,18.03835 1.69233,19.52789 l 0.26004,2.70824 h -3.16176 -3.16175 l -0.22469,-2.42317 c -0.12358,-1.33274 -0.51254,-7.04144 -0.86435,-12.68599 -0.60676,-9.73505 -0.83037,-11.578 -1.2452,-10.26283 -0.0989,0.31358 -2.09543,6.08642 -4.4367,12.82853 l -4.25686,12.25838 -0.99808,0.16469 -0.99808,0.16468 -4.31754,-12.35772 c -2.37464,-6.79675 -4.46007,-12.13056 -4.63427,-11.85291 -0.17421,0.27765 -0.62667,5.37966 -1.00547,11.33781 -0.3788,5.95814 -0.77573,11.28198 -0.88207,11.83076 -0.25122,1.29648 -2.93415,1.44014 -2.93415,0.15711 z m 37.92702,-18.82976 v -19.67043 h 7.58541 7.58541 v 1.97688 1.97688 l -4.49136,0.16121 -4.49136,0.16121 v 5.98665 5.98666 l 4.49136,0.16121 4.49136,0.16121 v 1.9582 1.95821 l -4.49136,0.16121 -4.49136,0.16121 -0.11305,6.79446 c -0.13892,8.34886 -0.32866,8.04662 4.91425,7.82805 l 4.18152,-0.17433 v 2.04097 2.04096 h -7.58541 -7.58541 z"
         id="path3084" /></g></g></svg>
